ISO-10303-21;
HEADER;
FILE_DESCRIPTION(('FreeCAD Model'),'2;1');
FILE_NAME('Open CASCADE Shape Model','2026-05-01T14:48:34',('Author'),(
    ''),'Open CASCADE STEP processor 7.8','FreeCAD','Unknown');
FILE_SCHEMA(('AUTOMOTIVE_DESIGN { 1 0 10303 214 1 1 1 1 }'));
ENDSEC;
DATA;
#1 = APPLICATION_PROTOCOL_DEFINITION('international standard',
  'automotive_design',2000,#2);
#2 = APPLICATION_CONTEXT(
  'core data for automotive mechanical design processes');
#3 = SHAPE_DEFINITION_REPRESENTATION(#4,#10);
#4 = PRODUCT_DEFINITION_SHAPE('','',#5);
#5 = PRODUCT_DEFINITION('design','',#6,#9);
#6 = PRODUCT_DEFINITION_FORMATION('','',#7);
#7 = PRODUCT('Unnamed','Unnamed','',(#8));
#8 = PRODUCT_CONTEXT('',#2,'mechanical');
#9 = PRODUCT_DEFINITION_CONTEXT('part definition',#2,'design');
#10 = SHAPE_REPRESENTATION('',(#11,#15,#19,#23,#27,#31,#35,#39,#43,#47,
    #51,#55,#59,#63,#67,#71,#75),#79);
#11 = AXIS2_PLACEMENT_3D('',#12,#13,#14);
#12 = CARTESIAN_POINT('',(0.,0.,0.));
#13 = DIRECTION('',(0.,0.,1.));
#14 = DIRECTION('',(1.,0.,-0.));
#15 = AXIS2_PLACEMENT_3D('',#16,#17,#18);
#16 = CARTESIAN_POINT('',(0.,0.,0.));
#17 = DIRECTION('',(0.,0.,1.));
#18 = DIRECTION('',(1.,0.,0.));
#19 = AXIS2_PLACEMENT_3D('',#20,#21,#22);
#20 = CARTESIAN_POINT('',(0.,0.,0.));
#21 = DIRECTION('',(0.,0.,1.));
#22 = DIRECTION('',(1.,0.,0.));
#23 = AXIS2_PLACEMENT_3D('',#24,#25,#26);
#24 = CARTESIAN_POINT('',(0.,0.,0.));
#25 = DIRECTION('',(1.,1.232595164408E-32,1.110223024625E-16));
#26 = DIRECTION('',(0.,1.,-1.110223024625E-16));
#27 = AXIS2_PLACEMENT_3D('',#28,#29,#30);
#28 = CARTESIAN_POINT('',(0.,0.,0.));
#29 = DIRECTION('',(0.,-1.,1.110223024625E-16));
#30 = DIRECTION('',(0.,1.110223024625E-16,1.));
#31 = AXIS2_PLACEMENT_3D('',#32,#33,#34);
#32 = CARTESIAN_POINT('',(0.,0.,0.));
#33 = DIRECTION('',(0.,0.,1.));
#34 = DIRECTION('',(1.,0.,0.));
#35 = AXIS2_PLACEMENT_3D('',#36,#37,#38);
#36 = CARTESIAN_POINT('',(0.,0.,0.));
#37 = DIRECTION('',(0.,-1.,-2.22044604925E-16));
#38 = DIRECTION('',(1.,0.,0.));
#39 = AXIS2_PLACEMENT_3D('',#40,#41,#42);
#40 = CARTESIAN_POINT('',(0.,0.,0.));
#41 = DIRECTION('',(1.,1.232595164408E-32,1.110223024625E-16));
#42 = DIRECTION('',(0.,1.,-1.110223024625E-16));
#43 = AXIS2_PLACEMENT_3D('',#44,#45,#46);
#44 = CARTESIAN_POINT('',(0.,0.,0.));
#45 = DIRECTION('',(0.,-1.,2.22044604925E-16));
#46 = DIRECTION('',(1.,0.,0.));
#47 = AXIS2_PLACEMENT_3D('',#48,#49,#50);
#48 = CARTESIAN_POINT('',(0.,0.,0.));
#49 = DIRECTION('',(0.,0.,1.));
#50 = DIRECTION('',(1.,0.,0.));
#51 = AXIS2_PLACEMENT_3D('',#52,#53,#54);
#52 = CARTESIAN_POINT('',(0.,0.,0.));
#53 = DIRECTION('',(0.,0.,1.));
#54 = DIRECTION('',(1.,0.,0.));
#55 = AXIS2_PLACEMENT_3D('',#56,#57,#58);
#56 = CARTESIAN_POINT('',(0.,0.,0.));
#57 = DIRECTION('',(0.,0.,1.));
#58 = DIRECTION('',(1.,0.,0.));
#59 = AXIS2_PLACEMENT_3D('',#60,#61,#62);
#60 = CARTESIAN_POINT('',(0.,0.,14.));
#61 = DIRECTION('',(0.,0.,1.));
#62 = DIRECTION('',(1.,0.,0.));
#63 = AXIS2_PLACEMENT_3D('',#64,#65,#66);
#64 = CARTESIAN_POINT('',(0.,0.,0.));
#65 = DIRECTION('',(0.,0.,1.));
#66 = DIRECTION('',(1.,0.,0.));
#67 = AXIS2_PLACEMENT_3D('',#68,#69,#70);
#68 = CARTESIAN_POINT('',(0.,0.,14.));
#69 = DIRECTION('',(0.,0.,1.));
#70 = DIRECTION('',(1.,0.,0.));
#71 = AXIS2_PLACEMENT_3D('',#72,#73,#74);
#72 = CARTESIAN_POINT('',(0.,0.,0.));
#73 = DIRECTION('',(0.,0.,1.));
#74 = DIRECTION('',(1.,0.,0.));
#75 = AXIS2_PLACEMENT_3D('',#76,#77,#78);
#76 = CARTESIAN_POINT('',(0.,0.,0.));
#77 = DIRECTION('',(0.,0.,1.));
#78 = DIRECTION('',(1.,0.,-0.));
#79 = ( GEOMETRIC_REPRESENTATION_CONTEXT(3) 
GLOBAL_UNCERTAINTY_ASSIGNED_CONTEXT((#83)) GLOBAL_UNIT_ASSIGNED_CONTEXT(
(#80,#81,#82)) REPRESENTATION_CONTEXT('Context #1',
  '3D Context with UNIT and UNCERTAINTY') );
#80 = ( LENGTH_UNIT() NAMED_UNIT(*) SI_UNIT(.MILLI.,.METRE.) );
#81 = ( NAMED_UNIT(*) PLANE_ANGLE_UNIT() SI_UNIT($,.RADIAN.) );
#82 = ( NAMED_UNIT(*) SI_UNIT($,.STERADIAN.) SOLID_ANGLE_UNIT() );
#83 = UNCERTAINTY_MEASURE_WITH_UNIT(LENGTH_MEASURE(1.E-07),#80,
  'distance_accuracy_value','confusion accuracy');
#84 = PRODUCT_RELATED_PRODUCT_CATEGORY('part',$,(#7));
#85 = SHAPE_DEFINITION_REPRESENTATION(#86,#92);
#86 = PRODUCT_DEFINITION_SHAPE('','',#87);
#87 = PRODUCT_DEFINITION('design','',#88,#91);
#88 = PRODUCT_DEFINITION_FORMATION('','',#89);
#89 = PRODUCT('Body','Body','',(#90));
#90 = PRODUCT_CONTEXT('',#2,'mechanical');
#91 = PRODUCT_DEFINITION_CONTEXT('part definition',#2,'design');
#92 = ADVANCED_BREP_SHAPE_REPRESENTATION('',(#11,#93),#518);
#93 = MANIFOLD_SOLID_BREP('',#94);
#94 = CLOSED_SHELL('',(#95,#182,#214,#229,#252,#267,#290,#305,#314,#347,
    #371,#419,#438,#450,#475,#500,#509));
#95 = ADVANCED_FACE('',(#96),#177,.T.);
#96 = FACE_BOUND('',#97,.F.);
#97 = EDGE_LOOP('',(#98,#109,#117,#124,#125,#134,#143,#152,#161,#170));
#98 = ORIENTED_EDGE('',*,*,#99,.F.);
#99 = EDGE_CURVE('',#100,#102,#104,.T.);
#100 = VERTEX_POINT('',#101);
#101 = CARTESIAN_POINT('',(6.982521846168,1.605208188593E-15,7.229215));
#102 = VERTEX_POINT('',#103);
#103 = CARTESIAN_POINT('',(2.29473897653,1.554312234475E-15,14.));
#104 = CIRCLE('',#105,7.233572846168);
#105 = AXIS2_PLACEMENT_3D('',#106,#107,#108);
#106 = CARTESIAN_POINT('',(-0.251051,1.605208188593E-15,7.229215));
#107 = DIRECTION('',(0.,-1.,2.22044604925E-16));
#108 = DIRECTION('',(1.,0.,0.));
#109 = ORIENTED_EDGE('',*,*,#110,.T.);
#110 = EDGE_CURVE('',#100,#111,#113,.T.);
#111 = VERTEX_POINT('',#112);
#112 = CARTESIAN_POINT('',(6.982521846168,-10.,7.229215));
#113 = LINE('',#114,#115);
#114 = CARTESIAN_POINT('',(6.982521846168,1.605208188593E-15,7.229215));
#115 = VECTOR('',#116,1.);
#116 = DIRECTION('',(0.,-1.,2.22044604925E-16));
#117 = ORIENTED_EDGE('',*,*,#118,.T.);
#118 = EDGE_CURVE('',#111,#111,#119,.T.);
#119 = CIRCLE('',#120,7.233572846168);
#120 = AXIS2_PLACEMENT_3D('',#121,#122,#123);
#121 = CARTESIAN_POINT('',(-0.251051,-10.,7.229215));
#122 = DIRECTION('',(0.,-1.,2.22044604925E-16));
#123 = DIRECTION('',(1.,0.,0.));
#124 = ORIENTED_EDGE('',*,*,#110,.F.);
#125 = ORIENTED_EDGE('',*,*,#126,.F.);
#126 = EDGE_CURVE('',#127,#100,#129,.T.);
#127 = VERTEX_POINT('',#128);
#128 = CARTESIAN_POINT('',(-4.32542890394E-13,-1.676329423595E-30,
    -7.549516567451E-15));
#129 = CIRCLE('',#130,7.233572846168);
#130 = AXIS2_PLACEMENT_3D('',#131,#132,#133);
#131 = CARTESIAN_POINT('',(-0.251051,1.605208188593E-15,7.229215));
#132 = DIRECTION('',(0.,-1.,2.22044604925E-16));
#133 = DIRECTION('',(1.,0.,0.));
#134 = ORIENTED_EDGE('',*,*,#135,.F.);
#135 = EDGE_CURVE('',#136,#127,#138,.T.);
#136 = VERTEX_POINT('',#137);
#137 = CARTESIAN_POINT('',(-0.502102,1.380506584137E-30,
    6.217248937901E-15));
#138 = CIRCLE('',#139,7.233572846168);
#139 = AXIS2_PLACEMENT_3D('',#140,#141,#142);
#140 = CARTESIAN_POINT('',(-0.251051,1.605208188593E-15,7.229215));
#141 = DIRECTION('',(0.,-1.,2.22044604925E-16));
#142 = DIRECTION('',(1.,0.,0.));
#143 = ORIENTED_EDGE('',*,*,#144,.F.);
#144 = EDGE_CURVE('',#145,#136,#147,.T.);
#145 = VERTEX_POINT('',#146);
#146 = CARTESIAN_POINT('',(-7.,5.13599083218E-16,4.626089279596));
#147 = CIRCLE('',#148,7.233572846168);
#148 = AXIS2_PLACEMENT_3D('',#149,#150,#151);
#149 = CARTESIAN_POINT('',(-0.251051,1.605208188593E-15,7.229215));
#150 = DIRECTION('',(0.,-1.,2.22044604925E-16));
#151 = DIRECTION('',(1.,0.,0.));
#152 = ORIENTED_EDGE('',*,*,#153,.F.);
#153 = EDGE_CURVE('',#154,#145,#156,.T.);
#154 = VERTEX_POINT('',#155);
#155 = CARTESIAN_POINT('',(-7.,1.091609105375E-15,9.832340720404));
#156 = CIRCLE('',#157,7.233572846168);
#157 = AXIS2_PLACEMENT_3D('',#158,#159,#160);
#158 = CARTESIAN_POINT('',(-0.251051,1.605208188593E-15,7.229215));
#159 = DIRECTION('',(0.,-1.,2.22044604925E-16));
#160 = DIRECTION('',(1.,0.,0.));
#161 = ORIENTED_EDGE('',*,*,#162,.F.);
#162 = EDGE_CURVE('',#163,#154,#165,.T.);
#163 = VERTEX_POINT('',#164);
#164 = CARTESIAN_POINT('',(-2.79684097653,1.554312234475E-15,14.));
#165 = CIRCLE('',#166,7.233572846168);
#166 = AXIS2_PLACEMENT_3D('',#167,#168,#169);
#167 = CARTESIAN_POINT('',(-0.251051,1.605208188593E-15,7.229215));
#168 = DIRECTION('',(0.,-1.,2.22044604925E-16));
#169 = DIRECTION('',(1.,0.,0.));
#170 = ORIENTED_EDGE('',*,*,#171,.F.);
#171 = EDGE_CURVE('',#102,#163,#172,.T.);
#172 = CIRCLE('',#173,7.233572846168);
#173 = AXIS2_PLACEMENT_3D('',#174,#175,#176);
#174 = CARTESIAN_POINT('',(-0.251051,1.605208188593E-15,7.229215));
#175 = DIRECTION('',(0.,-1.,2.22044604925E-16));
#176 = DIRECTION('',(1.,0.,0.));
#177 = CYLINDRICAL_SURFACE('',#178,7.233572846168);
#178 = AXIS2_PLACEMENT_3D('',#179,#180,#181);
#179 = CARTESIAN_POINT('',(-0.251051,1.605208188593E-15,7.229215));
#180 = DIRECTION('',(0.,1.,-2.22044604925E-16));
#181 = DIRECTION('',(1.,0.,0.));
#182 = ADVANCED_FACE('',(#183),#209,.F.);
#183 = FACE_BOUND('',#184,.F.);
#184 = EDGE_LOOP('',(#185,#193,#194,#195,#203));
#185 = ORIENTED_EDGE('',*,*,#186,.F.);
#186 = EDGE_CURVE('',#127,#187,#189,.T.);
#187 = VERTEX_POINT('',#188);
#188 = CARTESIAN_POINT('',(7.,0.,0.));
#189 = LINE('',#190,#191);
#190 = CARTESIAN_POINT('',(-7.,0.,0.));
#191 = VECTOR('',#192,1.);
#192 = DIRECTION('',(1.,0.,0.));
#193 = ORIENTED_EDGE('',*,*,#126,.T.);
#194 = ORIENTED_EDGE('',*,*,#99,.T.);
#195 = ORIENTED_EDGE('',*,*,#196,.T.);
#196 = EDGE_CURVE('',#102,#197,#199,.T.);
#197 = VERTEX_POINT('',#198);
#198 = CARTESIAN_POINT('',(7.,0.,14.));
#199 = LINE('',#200,#201);
#200 = CARTESIAN_POINT('',(-7.,0.,14.));
#201 = VECTOR('',#202,1.);
#202 = DIRECTION('',(1.,0.,0.));
#203 = ORIENTED_EDGE('',*,*,#204,.F.);
#204 = EDGE_CURVE('',#187,#197,#205,.T.);
#205 = LINE('',#206,#207);
#206 = CARTESIAN_POINT('',(7.,0.,0.));
#207 = VECTOR('',#208,1.);
#208 = DIRECTION('',(0.,0.,1.));
#209 = PLANE('',#210);
#210 = AXIS2_PLACEMENT_3D('',#211,#212,#213);
#211 = CARTESIAN_POINT('',(-7.,0.,0.));
#212 = DIRECTION('',(0.,1.,0.));
#213 = DIRECTION('',(1.,0.,0.));
#214 = ADVANCED_FACE('',(#215),#224,.T.);
#215 = FACE_BOUND('',#216,.T.);
#216 = EDGE_LOOP('',(#217,#218));
#217 = ORIENTED_EDGE('',*,*,#171,.F.);
#218 = ORIENTED_EDGE('',*,*,#219,.F.);
#219 = EDGE_CURVE('',#163,#102,#220,.T.);
#220 = LINE('',#221,#222);
#221 = CARTESIAN_POINT('',(-7.,0.,14.));
#222 = VECTOR('',#223,1.);
#223 = DIRECTION('',(1.,0.,0.));
#224 = PLANE('',#225);
#225 = AXIS2_PLACEMENT_3D('',#226,#227,#228);
#226 = CARTESIAN_POINT('',(-0.251051,1.605208188593E-15,7.229215));
#227 = DIRECTION('',(0.,1.,0.));
#228 = DIRECTION('',(0.,0.,1.));
#229 = ADVANCED_FACE('',(#230),#247,.F.);
#230 = FACE_BOUND('',#231,.F.);
#231 = EDGE_LOOP('',(#232,#233,#241));
#232 = ORIENTED_EDGE('',*,*,#162,.T.);
#233 = ORIENTED_EDGE('',*,*,#234,.T.);
#234 = EDGE_CURVE('',#154,#235,#237,.T.);
#235 = VERTEX_POINT('',#236);
#236 = CARTESIAN_POINT('',(-7.,0.,14.));
#237 = LINE('',#238,#239);
#238 = CARTESIAN_POINT('',(-7.,0.,0.));
#239 = VECTOR('',#240,1.);
#240 = DIRECTION('',(0.,0.,1.));
#241 = ORIENTED_EDGE('',*,*,#242,.T.);
#242 = EDGE_CURVE('',#235,#163,#243,.T.);
#243 = LINE('',#244,#245);
#244 = CARTESIAN_POINT('',(-7.,0.,14.));
#245 = VECTOR('',#246,1.);
#246 = DIRECTION('',(1.,0.,0.));
#247 = PLANE('',#248);
#248 = AXIS2_PLACEMENT_3D('',#249,#250,#251);
#249 = CARTESIAN_POINT('',(-7.,0.,0.));
#250 = DIRECTION('',(0.,1.,0.));
#251 = DIRECTION('',(1.,0.,0.));
#252 = ADVANCED_FACE('',(#253),#262,.T.);
#253 = FACE_BOUND('',#254,.T.);
#254 = EDGE_LOOP('',(#255,#256));
#255 = ORIENTED_EDGE('',*,*,#153,.F.);
#256 = ORIENTED_EDGE('',*,*,#257,.F.);
#257 = EDGE_CURVE('',#145,#154,#258,.T.);
#258 = LINE('',#259,#260);
#259 = CARTESIAN_POINT('',(-7.,0.,0.));
#260 = VECTOR('',#261,1.);
#261 = DIRECTION('',(0.,0.,1.));
#262 = PLANE('',#263);
#263 = AXIS2_PLACEMENT_3D('',#264,#265,#266);
#264 = CARTESIAN_POINT('',(-0.251051,1.605208188593E-15,7.229215));
#265 = DIRECTION('',(0.,1.,0.));
#266 = DIRECTION('',(0.,0.,1.));
#267 = ADVANCED_FACE('',(#268),#285,.F.);
#268 = FACE_BOUND('',#269,.F.);
#269 = EDGE_LOOP('',(#270,#278,#284));
#270 = ORIENTED_EDGE('',*,*,#271,.F.);
#271 = EDGE_CURVE('',#272,#136,#274,.T.);
#272 = VERTEX_POINT('',#273);
#273 = CARTESIAN_POINT('',(-7.,0.,0.));
#274 = LINE('',#275,#276);
#275 = CARTESIAN_POINT('',(-7.,0.,0.));
#276 = VECTOR('',#277,1.);
#277 = DIRECTION('',(1.,0.,0.));
#278 = ORIENTED_EDGE('',*,*,#279,.T.);
#279 = EDGE_CURVE('',#272,#145,#280,.T.);
#280 = LINE('',#281,#282);
#281 = CARTESIAN_POINT('',(-7.,0.,0.));
#282 = VECTOR('',#283,1.);
#283 = DIRECTION('',(0.,0.,1.));
#284 = ORIENTED_EDGE('',*,*,#144,.T.);
#285 = PLANE('',#286);
#286 = AXIS2_PLACEMENT_3D('',#287,#288,#289);
#287 = CARTESIAN_POINT('',(-7.,0.,0.));
#288 = DIRECTION('',(0.,1.,0.));
#289 = DIRECTION('',(1.,0.,0.));
#290 = ADVANCED_FACE('',(#291),#300,.T.);
#291 = FACE_BOUND('',#292,.T.);
#292 = EDGE_LOOP('',(#293,#299));
#293 = ORIENTED_EDGE('',*,*,#294,.T.);
#294 = EDGE_CURVE('',#136,#127,#295,.T.);
#295 = LINE('',#296,#297);
#296 = CARTESIAN_POINT('',(-7.,0.,0.));
#297 = VECTOR('',#298,1.);
#298 = DIRECTION('',(1.,0.,0.));
#299 = ORIENTED_EDGE('',*,*,#135,.F.);
#300 = PLANE('',#301);
#301 = AXIS2_PLACEMENT_3D('',#302,#303,#304);
#302 = CARTESIAN_POINT('',(-0.251051,1.605208188593E-15,7.229215));
#303 = DIRECTION('',(0.,1.,0.));
#304 = DIRECTION('',(0.,0.,1.));
#305 = ADVANCED_FACE('',(#306),#309,.F.);
#306 = FACE_BOUND('',#307,.T.);
#307 = EDGE_LOOP('',(#308));
#308 = ORIENTED_EDGE('',*,*,#118,.T.);
#309 = PLANE('',#310);
#310 = AXIS2_PLACEMENT_3D('',#311,#312,#313);
#311 = CARTESIAN_POINT('',(-0.251051,-10.,7.229215));
#312 = DIRECTION('',(0.,1.,0.));
#313 = DIRECTION('',(0.,0.,1.));
#314 = ADVANCED_FACE('',(#315),#342,.F.);
#315 = FACE_BOUND('',#316,.F.);
#316 = EDGE_LOOP('',(#317,#318,#319,#320,#328,#336));
#317 = ORIENTED_EDGE('',*,*,#271,.T.);
#318 = ORIENTED_EDGE('',*,*,#294,.T.);
#319 = ORIENTED_EDGE('',*,*,#186,.T.);
#320 = ORIENTED_EDGE('',*,*,#321,.T.);
#321 = EDGE_CURVE('',#187,#322,#324,.T.);
#322 = VERTEX_POINT('',#323);
#323 = CARTESIAN_POINT('',(7.,2.,0.));
#324 = LINE('',#325,#326);
#325 = CARTESIAN_POINT('',(7.,0.,0.));
#326 = VECTOR('',#327,1.);
#327 = DIRECTION('',(0.,1.,0.));
#328 = ORIENTED_EDGE('',*,*,#329,.T.);
#329 = EDGE_CURVE('',#322,#330,#332,.T.);
#330 = VERTEX_POINT('',#331);
#331 = CARTESIAN_POINT('',(-7.,2.,0.));
#332 = LINE('',#333,#334);
#333 = CARTESIAN_POINT('',(7.,2.,0.));
#334 = VECTOR('',#335,1.);
#335 = DIRECTION('',(-1.,0.,0.));
#336 = ORIENTED_EDGE('',*,*,#337,.T.);
#337 = EDGE_CURVE('',#330,#272,#338,.T.);
#338 = LINE('',#339,#340);
#339 = CARTESIAN_POINT('',(-7.,2.,0.));
#340 = VECTOR('',#341,1.);
#341 = DIRECTION('',(0.,-1.,0.));
#342 = PLANE('',#343);
#343 = AXIS2_PLACEMENT_3D('',#344,#345,#346);
#344 = CARTESIAN_POINT('',(0.,1.,0.));
#345 = DIRECTION('',(0.,0.,1.));
#346 = DIRECTION('',(1.,0.,0.));
#347 = ADVANCED_FACE('',(#348),#366,.F.);
#348 = FACE_BOUND('',#349,.F.);
#349 = EDGE_LOOP('',(#350,#351,#359,#365));
#350 = ORIENTED_EDGE('',*,*,#204,.T.);
#351 = ORIENTED_EDGE('',*,*,#352,.T.);
#352 = EDGE_CURVE('',#197,#353,#355,.T.);
#353 = VERTEX_POINT('',#354);
#354 = CARTESIAN_POINT('',(7.,2.,14.));
#355 = LINE('',#356,#357);
#356 = CARTESIAN_POINT('',(7.,0.,14.));
#357 = VECTOR('',#358,1.);
#358 = DIRECTION('',(0.,1.,0.));
#359 = ORIENTED_EDGE('',*,*,#360,.F.);
#360 = EDGE_CURVE('',#322,#353,#361,.T.);
#361 = LINE('',#362,#363);
#362 = CARTESIAN_POINT('',(7.,2.,0.));
#363 = VECTOR('',#364,1.);
#364 = DIRECTION('',(0.,0.,1.));
#365 = ORIENTED_EDGE('',*,*,#321,.F.);
#366 = PLANE('',#367);
#367 = AXIS2_PLACEMENT_3D('',#368,#369,#370);
#368 = CARTESIAN_POINT('',(7.,0.,0.));
#369 = DIRECTION('',(-1.,0.,0.));
#370 = DIRECTION('',(0.,1.,0.));
#371 = ADVANCED_FACE('',(#372,#392,#403),#414,.T.);
#372 = FACE_BOUND('',#373,.T.);
#373 = EDGE_LOOP('',(#374,#375,#376,#377,#378,#386));
#374 = ORIENTED_EDGE('',*,*,#242,.T.);
#375 = ORIENTED_EDGE('',*,*,#219,.T.);
#376 = ORIENTED_EDGE('',*,*,#196,.T.);
#377 = ORIENTED_EDGE('',*,*,#352,.T.);
#378 = ORIENTED_EDGE('',*,*,#379,.T.);
#379 = EDGE_CURVE('',#353,#380,#382,.T.);
#380 = VERTEX_POINT('',#381);
#381 = CARTESIAN_POINT('',(-7.,2.,14.));
#382 = LINE('',#383,#384);
#383 = CARTESIAN_POINT('',(7.,2.,14.));
#384 = VECTOR('',#385,1.);
#385 = DIRECTION('',(-1.,0.,0.));
#386 = ORIENTED_EDGE('',*,*,#387,.T.);
#387 = EDGE_CURVE('',#380,#235,#388,.T.);
#388 = LINE('',#389,#390);
#389 = CARTESIAN_POINT('',(-7.,2.,14.));
#390 = VECTOR('',#391,1.);
#391 = DIRECTION('',(0.,-1.,0.));
#392 = FACE_BOUND('',#393,.T.);
#393 = EDGE_LOOP('',(#394));
#394 = ORIENTED_EDGE('',*,*,#395,.F.);
#395 = EDGE_CURVE('',#396,#396,#398,.T.);
#396 = VERTEX_POINT('',#397);
#397 = CARTESIAN_POINT('',(-5.85,1.,14.));
#398 = CIRCLE('',#399,0.5);
#399 = AXIS2_PLACEMENT_3D('',#400,#401,#402);
#400 = CARTESIAN_POINT('',(-6.35,1.,14.));
#401 = DIRECTION('',(0.,0.,1.));
#402 = DIRECTION('',(1.,0.,0.));
#403 = FACE_BOUND('',#404,.T.);
#404 = EDGE_LOOP('',(#405));
#405 = ORIENTED_EDGE('',*,*,#406,.F.);
#406 = EDGE_CURVE('',#407,#407,#409,.T.);
#407 = VERTEX_POINT('',#408);
#408 = CARTESIAN_POINT('',(6.85,1.,14.));
#409 = CIRCLE('',#410,0.5);
#410 = AXIS2_PLACEMENT_3D('',#411,#412,#413);
#411 = CARTESIAN_POINT('',(6.35,1.,14.));
#412 = DIRECTION('',(0.,0.,1.));
#413 = DIRECTION('',(1.,0.,0.));
#414 = PLANE('',#415);
#415 = AXIS2_PLACEMENT_3D('',#416,#417,#418);
#416 = CARTESIAN_POINT('',(0.,1.,14.));
#417 = DIRECTION('',(0.,0.,1.));
#418 = DIRECTION('',(1.,0.,0.));
#419 = ADVANCED_FACE('',(#420),#433,.F.);
#420 = FACE_BOUND('',#421,.F.);
#421 = EDGE_LOOP('',(#422,#428,#429,#430,#431,#432));
#422 = ORIENTED_EDGE('',*,*,#423,.T.);
#423 = EDGE_CURVE('',#330,#380,#424,.T.);
#424 = LINE('',#425,#426);
#425 = CARTESIAN_POINT('',(-7.,2.,0.));
#426 = VECTOR('',#427,1.);
#427 = DIRECTION('',(0.,0.,1.));
#428 = ORIENTED_EDGE('',*,*,#387,.T.);
#429 = ORIENTED_EDGE('',*,*,#234,.F.);
#430 = ORIENTED_EDGE('',*,*,#257,.F.);
#431 = ORIENTED_EDGE('',*,*,#279,.F.);
#432 = ORIENTED_EDGE('',*,*,#337,.F.);
#433 = PLANE('',#434);
#434 = AXIS2_PLACEMENT_3D('',#435,#436,#437);
#435 = CARTESIAN_POINT('',(-7.,2.,0.));
#436 = DIRECTION('',(1.,0.,0.));
#437 = DIRECTION('',(0.,-1.,0.));
#438 = ADVANCED_FACE('',(#439),#445,.F.);
#439 = FACE_BOUND('',#440,.F.);
#440 = EDGE_LOOP('',(#441,#442,#443,#444));
#441 = ORIENTED_EDGE('',*,*,#360,.T.);
#442 = ORIENTED_EDGE('',*,*,#379,.T.);
#443 = ORIENTED_EDGE('',*,*,#423,.F.);
#444 = ORIENTED_EDGE('',*,*,#329,.F.);
#445 = PLANE('',#446);
#446 = AXIS2_PLACEMENT_3D('',#447,#448,#449);
#447 = CARTESIAN_POINT('',(7.,2.,0.));
#448 = DIRECTION('',(0.,-1.,0.));
#449 = DIRECTION('',(-1.,0.,0.));
#450 = ADVANCED_FACE('',(#451),#470,.T.);
#451 = FACE_BOUND('',#452,.F.);
#452 = EDGE_LOOP('',(#453,#461,#468,#469));
#453 = ORIENTED_EDGE('',*,*,#454,.T.);
#454 = EDGE_CURVE('',#396,#455,#457,.T.);
#455 = VERTEX_POINT('',#456);
#456 = CARTESIAN_POINT('',(-5.85,1.,16.));
#457 = LINE('',#458,#459);
#458 = CARTESIAN_POINT('',(-5.85,1.,14.));
#459 = VECTOR('',#460,1.);
#460 = DIRECTION('',(0.,0.,1.));
#461 = ORIENTED_EDGE('',*,*,#462,.T.);
#462 = EDGE_CURVE('',#455,#455,#463,.T.);
#463 = CIRCLE('',#464,0.5);
#464 = AXIS2_PLACEMENT_3D('',#465,#466,#467);
#465 = CARTESIAN_POINT('',(-6.35,1.,16.));
#466 = DIRECTION('',(0.,0.,1.));
#467 = DIRECTION('',(1.,0.,0.));
#468 = ORIENTED_EDGE('',*,*,#454,.F.);
#469 = ORIENTED_EDGE('',*,*,#395,.F.);
#470 = CYLINDRICAL_SURFACE('',#471,0.5);
#471 = AXIS2_PLACEMENT_3D('',#472,#473,#474);
#472 = CARTESIAN_POINT('',(-6.35,1.,14.));
#473 = DIRECTION('',(-0.,-0.,-1.));
#474 = DIRECTION('',(1.,0.,0.));
#475 = ADVANCED_FACE('',(#476),#495,.T.);
#476 = FACE_BOUND('',#477,.F.);
#477 = EDGE_LOOP('',(#478,#486,#493,#494));
#478 = ORIENTED_EDGE('',*,*,#479,.T.);
#479 = EDGE_CURVE('',#407,#480,#482,.T.);
#480 = VERTEX_POINT('',#481);
#481 = CARTESIAN_POINT('',(6.85,1.,16.));
#482 = LINE('',#483,#484);
#483 = CARTESIAN_POINT('',(6.85,1.,14.));
#484 = VECTOR('',#485,1.);
#485 = DIRECTION('',(0.,0.,1.));
#486 = ORIENTED_EDGE('',*,*,#487,.T.);
#487 = EDGE_CURVE('',#480,#480,#488,.T.);
#488 = CIRCLE('',#489,0.5);
#489 = AXIS2_PLACEMENT_3D('',#490,#491,#492);
#490 = CARTESIAN_POINT('',(6.35,1.,16.));
#491 = DIRECTION('',(0.,0.,1.));
#492 = DIRECTION('',(1.,0.,0.));
#493 = ORIENTED_EDGE('',*,*,#479,.F.);
#494 = ORIENTED_EDGE('',*,*,#406,.F.);
#495 = CYLINDRICAL_SURFACE('',#496,0.5);
#496 = AXIS2_PLACEMENT_3D('',#497,#498,#499);
#497 = CARTESIAN_POINT('',(6.35,1.,14.));
#498 = DIRECTION('',(-0.,-0.,-1.));
#499 = DIRECTION('',(1.,0.,0.));
#500 = ADVANCED_FACE('',(#501),#504,.T.);
#501 = FACE_BOUND('',#502,.T.);
#502 = EDGE_LOOP('',(#503));
#503 = ORIENTED_EDGE('',*,*,#462,.T.);
#504 = PLANE('',#505);
#505 = AXIS2_PLACEMENT_3D('',#506,#507,#508);
#506 = CARTESIAN_POINT('',(-6.35,1.,16.));
#507 = DIRECTION('',(0.,0.,1.));
#508 = DIRECTION('',(1.,0.,0.));
#509 = ADVANCED_FACE('',(#510),#513,.T.);
#510 = FACE_BOUND('',#511,.T.);
#511 = EDGE_LOOP('',(#512));
#512 = ORIENTED_EDGE('',*,*,#487,.T.);
#513 = PLANE('',#514);
#514 = AXIS2_PLACEMENT_3D('',#515,#516,#517);
#515 = CARTESIAN_POINT('',(6.35,1.,16.));
#516 = DIRECTION('',(0.,0.,1.));
#517 = DIRECTION('',(1.,0.,0.));
#518 = ( GEOMETRIC_REPRESENTATION_CONTEXT(3) 
GLOBAL_UNCERTAINTY_ASSIGNED_CONTEXT((#522)) GLOBAL_UNIT_ASSIGNED_CONTEXT
((#519,#520,#521)) REPRESENTATION_CONTEXT('Context #1',
  '3D Context with UNIT and UNCERTAINTY') );
#519 = ( LENGTH_UNIT() NAMED_UNIT(*) SI_UNIT(.MILLI.,.METRE.) );
#520 = ( NAMED_UNIT(*) PLANE_ANGLE_UNIT() SI_UNIT($,.RADIAN.) );
#521 = ( NAMED_UNIT(*) SI_UNIT($,.STERADIAN.) SOLID_ANGLE_UNIT() );
#522 = UNCERTAINTY_MEASURE_WITH_UNIT(LENGTH_MEASURE(1.E-07),#519,
  'distance_accuracy_value','confusion accuracy');
#523 = CONTEXT_DEPENDENT_SHAPE_REPRESENTATION(#524,#526);
#524 = ( REPRESENTATION_RELATIONSHIP('','',#92,#10) 
REPRESENTATION_RELATIONSHIP_WITH_TRANSFORMATION(#525) 
SHAPE_REPRESENTATION_RELATIONSHIP() );
#525 = ITEM_DEFINED_TRANSFORMATION('','',#11,#15);
#526 = PRODUCT_DEFINITION_SHAPE('Placement','Placement of an item',#527
  );
#527 = NEXT_ASSEMBLY_USAGE_OCCURRENCE('1','Body','',#5,#87,$);
#528 = PRODUCT_RELATED_PRODUCT_CATEGORY('part',$,(#89));
#529 = SHAPE_DEFINITION_REPRESENTATION(#530,#536);
#530 = PRODUCT_DEFINITION_SHAPE('','',#531);
#531 = PRODUCT_DEFINITION('design','',#532,#535);
#532 = PRODUCT_DEFINITION_FORMATION('','',#533);
#533 = PRODUCT('X-axis','X-axis','',(#534));
#534 = PRODUCT_CONTEXT('',#2,'mechanical');
#535 = PRODUCT_DEFINITION_CONTEXT('part definition',#2,'design');
#536 = GEOMETRICALLY_BOUNDED_WIREFRAME_SHAPE_REPRESENTATION('',(#11,#537
    ),#542);
#537 = GEOMETRIC_CURVE_SET('',(#538));
#538 = LINE('',#539,#540);
#539 = CARTESIAN_POINT('',(0.,0.,0.));
#540 = VECTOR('',#541,1.);
#541 = DIRECTION('',(1.,0.,0.));
#542 = ( GEOMETRIC_REPRESENTATION_CONTEXT(3) 
GLOBAL_UNCERTAINTY_ASSIGNED_CONTEXT((#546)) GLOBAL_UNIT_ASSIGNED_CONTEXT
((#543,#544,#545)) REPRESENTATION_CONTEXT('Context #1',
  '3D Context with UNIT and UNCERTAINTY') );
#543 = ( LENGTH_UNIT() NAMED_UNIT(*) SI_UNIT(.MILLI.,.METRE.) );
#544 = ( NAMED_UNIT(*) PLANE_ANGLE_UNIT() SI_UNIT($,.RADIAN.) );
#545 = ( NAMED_UNIT(*) SI_UNIT($,.STERADIAN.) SOLID_ANGLE_UNIT() );
#546 = UNCERTAINTY_MEASURE_WITH_UNIT(LENGTH_MEASURE(1.E-07),#543,
  'distance_accuracy_value','confusion accuracy');
#547 = CONTEXT_DEPENDENT_SHAPE_REPRESENTATION(#548,#550);
#548 = ( REPRESENTATION_RELATIONSHIP('','',#536,#10) 
REPRESENTATION_RELATIONSHIP_WITH_TRANSFORMATION(#549) 
SHAPE_REPRESENTATION_RELATIONSHIP() );
#549 = ITEM_DEFINED_TRANSFORMATION('','',#11,#19);
#550 = PRODUCT_DEFINITION_SHAPE('Placement','Placement of an item',#551
  );
#551 = NEXT_ASSEMBLY_USAGE_OCCURRENCE('2','X-axis','',#5,#531,$);
#552 = PRODUCT_RELATED_PRODUCT_CATEGORY('part',$,(#533));
#553 = CONTEXT_DEPENDENT_SHAPE_REPRESENTATION(#554,#556);
#554 = ( REPRESENTATION_RELATIONSHIP('','',#536,#10) 
REPRESENTATION_RELATIONSHIP_WITH_TRANSFORMATION(#555) 
SHAPE_REPRESENTATION_RELATIONSHIP() );
#555 = ITEM_DEFINED_TRANSFORMATION('','',#11,#23);
#556 = PRODUCT_DEFINITION_SHAPE('Placement','Placement of an item',#557
  );
#557 = NEXT_ASSEMBLY_USAGE_OCCURRENCE('3','Y-axis','',#5,#531,$);
#558 = CONTEXT_DEPENDENT_SHAPE_REPRESENTATION(#559,#561);
#559 = ( REPRESENTATION_RELATIONSHIP('','',#536,#10) 
REPRESENTATION_RELATIONSHIP_WITH_TRANSFORMATION(#560) 
SHAPE_REPRESENTATION_RELATIONSHIP() );
#560 = ITEM_DEFINED_TRANSFORMATION('','',#11,#27);
#561 = PRODUCT_DEFINITION_SHAPE('Placement','Placement of an item',#562
  );
#562 = NEXT_ASSEMBLY_USAGE_OCCURRENCE('4','Z-axis','',#5,#531,$);
#563 = SHAPE_DEFINITION_REPRESENTATION(#564,#570);
#564 = PRODUCT_DEFINITION_SHAPE('','',#565);
#565 = PRODUCT_DEFINITION('design','',#566,#569);
#566 = PRODUCT_DEFINITION_FORMATION('','',#567);
#567 = PRODUCT('XY-plane','XY-plane','',(#568));
#568 = PRODUCT_CONTEXT('',#2,'mechanical');
#569 = PRODUCT_DEFINITION_CONTEXT('part definition',#2,'design');
#570 = MANIFOLD_SURFACE_SHAPE_REPRESENTATION('',(#11),#571);
#571 = ( GEOMETRIC_REPRESENTATION_CONTEXT(3) 
GLOBAL_UNCERTAINTY_ASSIGNED_CONTEXT((#575)) GLOBAL_UNIT_ASSIGNED_CONTEXT
((#572,#573,#574)) REPRESENTATION_CONTEXT('Context #1',
  '3D Context with UNIT and UNCERTAINTY') );
#572 = ( LENGTH_UNIT() NAMED_UNIT(*) SI_UNIT(.MILLI.,.METRE.) );
#573 = ( NAMED_UNIT(*) PLANE_ANGLE_UNIT() SI_UNIT($,.RADIAN.) );
#574 = ( NAMED_UNIT(*) SI_UNIT($,.STERADIAN.) SOLID_ANGLE_UNIT() );
#575 = UNCERTAINTY_MEASURE_WITH_UNIT(LENGTH_MEASURE(1.E-07),#572,
  'distance_accuracy_value','confusion accuracy');
#576 = CONTEXT_DEPENDENT_SHAPE_REPRESENTATION(#577,#579);
#577 = ( REPRESENTATION_RELATIONSHIP('','',#570,#10) 
REPRESENTATION_RELATIONSHIP_WITH_TRANSFORMATION(#578) 
SHAPE_REPRESENTATION_RELATIONSHIP() );
#578 = ITEM_DEFINED_TRANSFORMATION('','',#11,#31);
#579 = PRODUCT_DEFINITION_SHAPE('Placement','Placement of an item',#580
  );
#580 = NEXT_ASSEMBLY_USAGE_OCCURRENCE('5','XY-plane','',#5,#565,$);
#581 = PRODUCT_RELATED_PRODUCT_CATEGORY('part',$,(#567));
#582 = CONTEXT_DEPENDENT_SHAPE_REPRESENTATION(#583,#585);
#583 = ( REPRESENTATION_RELATIONSHIP('','',#570,#10) 
REPRESENTATION_RELATIONSHIP_WITH_TRANSFORMATION(#584) 
SHAPE_REPRESENTATION_RELATIONSHIP() );
#584 = ITEM_DEFINED_TRANSFORMATION('','',#11,#35);
#585 = PRODUCT_DEFINITION_SHAPE('Placement','Placement of an item',#586
  );
#586 = NEXT_ASSEMBLY_USAGE_OCCURRENCE('6','XZ-plane','',#5,#565,$);
#587 = CONTEXT_DEPENDENT_SHAPE_REPRESENTATION(#588,#590);
#588 = ( REPRESENTATION_RELATIONSHIP('','',#570,#10) 
REPRESENTATION_RELATIONSHIP_WITH_TRANSFORMATION(#589) 
SHAPE_REPRESENTATION_RELATIONSHIP() );
#589 = ITEM_DEFINED_TRANSFORMATION('','',#11,#39);
#590 = PRODUCT_DEFINITION_SHAPE('Placement','Placement of an item',#591
  );
#591 = NEXT_ASSEMBLY_USAGE_OCCURRENCE('7','YZ-plane','',#5,#565,$);
#592 = SHAPE_DEFINITION_REPRESENTATION(#593,#599);
#593 = PRODUCT_DEFINITION_SHAPE('','',#594);
#594 = PRODUCT_DEFINITION('design','',#595,#598);
#595 = PRODUCT_DEFINITION_FORMATION('','',#596);
#596 = PRODUCT('Sketch','Sketch','',(#597));
#597 = PRODUCT_CONTEXT('',#2,'mechanical');
#598 = PRODUCT_DEFINITION_CONTEXT('part definition',#2,'design');
#599 = GEOMETRICALLY_BOUNDED_WIREFRAME_SHAPE_REPRESENTATION('',(#11,#600
    ),#609);
#600 = GEOMETRIC_CURVE_SET('',(#601));
#601 = TRIMMED_CURVE('',#602,(#607,PARAMETER_VALUE(0.)),(#608,
    PARAMETER_VALUE(6.28318530718)),.T.,.PARAMETER.);
#602 = CIRCLE('',#603,7.233572846168);
#603 = AXIS2_PLACEMENT_3D('',#604,#605,#606);
#604 = CARTESIAN_POINT('',(-0.251051,7.229215,0.));
#605 = DIRECTION('',(0.,0.,1.));
#606 = DIRECTION('',(1.,0.,0.));
#607 = CARTESIAN_POINT('',(6.982521846168,7.229215,0.));
#608 = CARTESIAN_POINT('',(6.982521846168,7.229215,0.));
#609 = ( GEOMETRIC_REPRESENTATION_CONTEXT(3) 
GLOBAL_UNCERTAINTY_ASSIGNED_CONTEXT((#613)) GLOBAL_UNIT_ASSIGNED_CONTEXT
((#610,#611,#612)) REPRESENTATION_CONTEXT('Context #1',
  '3D Context with UNIT and UNCERTAINTY') );
#610 = ( LENGTH_UNIT() NAMED_UNIT(*) SI_UNIT(.MILLI.,.METRE.) );
#611 = ( NAMED_UNIT(*) PLANE_ANGLE_UNIT() SI_UNIT($,.RADIAN.) );
#612 = ( NAMED_UNIT(*) SI_UNIT($,.STERADIAN.) SOLID_ANGLE_UNIT() );
#613 = UNCERTAINTY_MEASURE_WITH_UNIT(LENGTH_MEASURE(1.E-07),#610,
  'distance_accuracy_value','confusion accuracy');
#614 = CONTEXT_DEPENDENT_SHAPE_REPRESENTATION(#615,#617);
#615 = ( REPRESENTATION_RELATIONSHIP('','',#599,#10) 
REPRESENTATION_RELATIONSHIP_WITH_TRANSFORMATION(#616) 
SHAPE_REPRESENTATION_RELATIONSHIP() );
#616 = ITEM_DEFINED_TRANSFORMATION('','',#11,#43);
#617 = PRODUCT_DEFINITION_SHAPE('Placement','Placement of an item',#618
  );
#618 = NEXT_ASSEMBLY_USAGE_OCCURRENCE('8','Sketch','',#5,#594,$);
#619 = PRODUCT_RELATED_PRODUCT_CATEGORY('part',$,(#596));
#620 = SHAPE_DEFINITION_REPRESENTATION(#621,#627);
#621 = PRODUCT_DEFINITION_SHAPE('','',#622);
#622 = PRODUCT_DEFINITION('design','',#623,#626);
#623 = PRODUCT_DEFINITION_FORMATION('','',#624);
#624 = PRODUCT('body-inductor','body-inductor','',(#625));
#625 = PRODUCT_CONTEXT('',#2,'mechanical');
#626 = PRODUCT_DEFINITION_CONTEXT('part definition',#2,'design');
#627 = ADVANCED_BREP_SHAPE_REPRESENTATION('',(#11,#628),#681);
#628 = MANIFOLD_SOLID_BREP('',#629);
#629 = CLOSED_SHELL('',(#630,#663,#672));
#630 = ADVANCED_FACE('',(#631),#658,.T.);
#631 = FACE_BOUND('',#632,.F.);
#632 = EDGE_LOOP('',(#633,#643,#650,#651));
#633 = ORIENTED_EDGE('',*,*,#634,.T.);
#634 = EDGE_CURVE('',#635,#637,#639,.T.);
#635 = VERTEX_POINT('',#636);
#636 = CARTESIAN_POINT('',(6.982521846168,1.605208188593E-15,7.229215));
#637 = VERTEX_POINT('',#638);
#638 = CARTESIAN_POINT('',(6.982521846168,-10.,7.229215));
#639 = LINE('',#640,#641);
#640 = CARTESIAN_POINT('',(6.982521846168,1.605208188593E-15,7.229215));
#641 = VECTOR('',#642,1.);
#642 = DIRECTION('',(0.,-1.,2.22044604925E-16));
#643 = ORIENTED_EDGE('',*,*,#644,.T.);
#644 = EDGE_CURVE('',#637,#637,#645,.T.);
#645 = CIRCLE('',#646,7.233572846168);
#646 = AXIS2_PLACEMENT_3D('',#647,#648,#649);
#647 = CARTESIAN_POINT('',(-0.251051,-10.,7.229215));
#648 = DIRECTION('',(0.,-1.,2.22044604925E-16));
#649 = DIRECTION('',(1.,0.,0.));
#650 = ORIENTED_EDGE('',*,*,#634,.F.);
#651 = ORIENTED_EDGE('',*,*,#652,.F.);
#652 = EDGE_CURVE('',#635,#635,#653,.T.);
#653 = CIRCLE('',#654,7.233572846168);
#654 = AXIS2_PLACEMENT_3D('',#655,#656,#657);
#655 = CARTESIAN_POINT('',(-0.251051,1.605208188593E-15,7.229215));
#656 = DIRECTION('',(0.,-1.,2.22044604925E-16));
#657 = DIRECTION('',(1.,0.,0.));
#658 = CYLINDRICAL_SURFACE('',#659,7.233572846168);
#659 = AXIS2_PLACEMENT_3D('',#660,#661,#662);
#660 = CARTESIAN_POINT('',(-0.251051,1.605208188593E-15,7.229215));
#661 = DIRECTION('',(-0.,1.,-2.22044604925E-16));
#662 = DIRECTION('',(1.,0.,0.));
#663 = ADVANCED_FACE('',(#664),#667,.T.);
#664 = FACE_BOUND('',#665,.F.);
#665 = EDGE_LOOP('',(#666));
#666 = ORIENTED_EDGE('',*,*,#652,.T.);
#667 = PLANE('',#668);
#668 = AXIS2_PLACEMENT_3D('',#669,#670,#671);
#669 = CARTESIAN_POINT('',(-0.251051,1.605208188593E-15,7.229215));
#670 = DIRECTION('',(0.,1.,0.));
#671 = DIRECTION('',(0.,0.,1.));
#672 = ADVANCED_FACE('',(#673),#676,.F.);
#673 = FACE_BOUND('',#674,.T.);
#674 = EDGE_LOOP('',(#675));
#675 = ORIENTED_EDGE('',*,*,#644,.T.);
#676 = PLANE('',#677);
#677 = AXIS2_PLACEMENT_3D('',#678,#679,#680);
#678 = CARTESIAN_POINT('',(-0.251051,-10.,7.229215));
#679 = DIRECTION('',(0.,1.,0.));
#680 = DIRECTION('',(0.,0.,1.));
#681 = ( GEOMETRIC_REPRESENTATION_CONTEXT(3) 
GLOBAL_UNCERTAINTY_ASSIGNED_CONTEXT((#685)) GLOBAL_UNIT_ASSIGNED_CONTEXT
((#682,#683,#684)) REPRESENTATION_CONTEXT('Context #1',
  '3D Context with UNIT and UNCERTAINTY') );
#682 = ( LENGTH_UNIT() NAMED_UNIT(*) SI_UNIT(.MILLI.,.METRE.) );
#683 = ( NAMED_UNIT(*) PLANE_ANGLE_UNIT() SI_UNIT($,.RADIAN.) );
#684 = ( NAMED_UNIT(*) SI_UNIT($,.STERADIAN.) SOLID_ANGLE_UNIT() );
#685 = UNCERTAINTY_MEASURE_WITH_UNIT(LENGTH_MEASURE(1.E-07),#682,
  'distance_accuracy_value','confusion accuracy');
#686 = CONTEXT_DEPENDENT_SHAPE_REPRESENTATION(#687,#689);
#687 = ( REPRESENTATION_RELATIONSHIP('','',#627,#10) 
REPRESENTATION_RELATIONSHIP_WITH_TRANSFORMATION(#688) 
SHAPE_REPRESENTATION_RELATIONSHIP() );
#688 = ITEM_DEFINED_TRANSFORMATION('','',#11,#47);
#689 = PRODUCT_DEFINITION_SHAPE('Placement','Placement of an item',#690
  );
#690 = NEXT_ASSEMBLY_USAGE_OCCURRENCE('9','body-inductor','',#5,#622,$);
#691 = PRODUCT_RELATED_PRODUCT_CATEGORY('part',$,(#624));
#692 = SHAPE_DEFINITION_REPRESENTATION(#693,#699);
#693 = PRODUCT_DEFINITION_SHAPE('','',#694);
#694 = PRODUCT_DEFINITION('design','',#695,#698);
#695 = PRODUCT_DEFINITION_FORMATION('','',#696);
#696 = PRODUCT('back of fasel','back of fasel','',(#697));
#697 = PRODUCT_CONTEXT('',#2,'mechanical');
#698 = PRODUCT_DEFINITION_CONTEXT('part definition',#2,'design');
#699 = GEOMETRICALLY_BOUNDED_WIREFRAME_SHAPE_REPRESENTATION('',(#11,#700
    ),#729);
#700 = GEOMETRIC_CURVE_SET('',(#701,#708,#715,#722));
#701 = TRIMMED_CURVE('',#702,(#706,PARAMETER_VALUE(0.)),(#707,
    PARAMETER_VALUE(14.)),.T.,.PARAMETER.);
#702 = LINE('',#703,#704);
#703 = CARTESIAN_POINT('',(-7.,0.,0.));
#704 = VECTOR('',#705,1.);
#705 = DIRECTION('',(1.,0.,0.));
#706 = CARTESIAN_POINT('',(-7.,0.,0.));
#707 = CARTESIAN_POINT('',(7.,0.,0.));
#708 = TRIMMED_CURVE('',#709,(#713,PARAMETER_VALUE(0.)),(#714,
    PARAMETER_VALUE(2.)),.T.,.PARAMETER.);
#709 = LINE('',#710,#711);
#710 = CARTESIAN_POINT('',(7.,0.,0.));
#711 = VECTOR('',#712,1.);
#712 = DIRECTION('',(0.,1.,0.));
#713 = CARTESIAN_POINT('',(7.,0.,0.));
#714 = CARTESIAN_POINT('',(7.,2.,0.));
#715 = TRIMMED_CURVE('',#716,(#720,PARAMETER_VALUE(0.)),(#721,
    PARAMETER_VALUE(14.)),.T.,.PARAMETER.);
#716 = LINE('',#717,#718);
#717 = CARTESIAN_POINT('',(7.,2.,0.));
#718 = VECTOR('',#719,1.);
#719 = DIRECTION('',(-1.,0.,0.));
#720 = CARTESIAN_POINT('',(7.,2.,0.));
#721 = CARTESIAN_POINT('',(-7.,2.,0.));
#722 = TRIMMED_CURVE('',#723,(#727,PARAMETER_VALUE(0.)),(#728,
    PARAMETER_VALUE(2.)),.T.,.PARAMETER.);
#723 = LINE('',#724,#725);
#724 = CARTESIAN_POINT('',(-7.,2.,0.));
#725 = VECTOR('',#726,1.);
#726 = DIRECTION('',(0.,-1.,0.));
#727 = CARTESIAN_POINT('',(-7.,2.,0.));
#728 = CARTESIAN_POINT('',(-7.,0.,0.));
#729 = ( GEOMETRIC_REPRESENTATION_CONTEXT(3) 
GLOBAL_UNCERTAINTY_ASSIGNED_CONTEXT((#733)) GLOBAL_UNIT_ASSIGNED_CONTEXT
((#730,#731,#732)) REPRESENTATION_CONTEXT('Context #1',
  '3D Context with UNIT and UNCERTAINTY') );
#730 = ( LENGTH_UNIT() NAMED_UNIT(*) SI_UNIT(.MILLI.,.METRE.) );
#731 = ( NAMED_UNIT(*) PLANE_ANGLE_UNIT() SI_UNIT($,.RADIAN.) );
#732 = ( NAMED_UNIT(*) SI_UNIT($,.STERADIAN.) SOLID_ANGLE_UNIT() );
#733 = UNCERTAINTY_MEASURE_WITH_UNIT(LENGTH_MEASURE(1.E-07),#730,
  'distance_accuracy_value','confusion accuracy');
#734 = CONTEXT_DEPENDENT_SHAPE_REPRESENTATION(#735,#737);
#735 = ( REPRESENTATION_RELATIONSHIP('','',#699,#10) 
REPRESENTATION_RELATIONSHIP_WITH_TRANSFORMATION(#736) 
SHAPE_REPRESENTATION_RELATIONSHIP() );
#736 = ITEM_DEFINED_TRANSFORMATION('','',#11,#51);
#737 = PRODUCT_DEFINITION_SHAPE('Placement','Placement of an item',#738
  );
#738 = NEXT_ASSEMBLY_USAGE_OCCURRENCE('10','back of fasel','',#5,#694,$
  );
#739 = PRODUCT_RELATED_PRODUCT_CATEGORY('part',$,(#696));
#740 = SHAPE_DEFINITION_REPRESENTATION(#741,#747);
#741 = PRODUCT_DEFINITION_SHAPE('','',#742);
#742 = PRODUCT_DEFINITION('design','',#743,#746);
#743 = PRODUCT_DEFINITION_FORMATION('','',#744);
#744 = PRODUCT('pad back of fasel','pad back of fasel','',(#745));
#745 = PRODUCT_CONTEXT('',#2,'mechanical');
#746 = PRODUCT_DEFINITION_CONTEXT('part definition',#2,'design');
#747 = ADVANCED_BREP_SHAPE_REPRESENTATION('',(#11,#748),#1083);
#748 = MANIFOLD_SOLID_BREP('',#749);
#749 = CLOSED_SHELL('',(#750,#837,#869,#884,#907,#922,#945,#960,#969,
    #1002,#1026,#1052,#1071));
#750 = ADVANCED_FACE('',(#751),#832,.T.);
#751 = FACE_BOUND('',#752,.F.);
#752 = EDGE_LOOP('',(#753,#764,#772,#779,#780,#789,#798,#807,#816,#825)
  );
#753 = ORIENTED_EDGE('',*,*,#754,.F.);
#754 = EDGE_CURVE('',#755,#757,#759,.T.);
#755 = VERTEX_POINT('',#756);
#756 = CARTESIAN_POINT('',(6.982521846168,1.605208188593E-15,7.229215));
#757 = VERTEX_POINT('',#758);
#758 = CARTESIAN_POINT('',(2.29473897653,1.554312234475E-15,14.));
#759 = CIRCLE('',#760,7.233572846168);
#760 = AXIS2_PLACEMENT_3D('',#761,#762,#763);
#761 = CARTESIAN_POINT('',(-0.251051,1.605208188593E-15,7.229215));
#762 = DIRECTION('',(0.,-1.,2.22044604925E-16));
#763 = DIRECTION('',(1.,0.,0.));
#764 = ORIENTED_EDGE('',*,*,#765,.T.);
#765 = EDGE_CURVE('',#755,#766,#768,.T.);
#766 = VERTEX_POINT('',#767);
#767 = CARTESIAN_POINT('',(6.982521846168,-10.,7.229215));
#768 = LINE('',#769,#770);
#769 = CARTESIAN_POINT('',(6.982521846168,1.605208188593E-15,7.229215));
#770 = VECTOR('',#771,1.);
#771 = DIRECTION('',(0.,-1.,2.22044604925E-16));
#772 = ORIENTED_EDGE('',*,*,#773,.T.);
#773 = EDGE_CURVE('',#766,#766,#774,.T.);
#774 = CIRCLE('',#775,7.233572846168);
#775 = AXIS2_PLACEMENT_3D('',#776,#777,#778);
#776 = CARTESIAN_POINT('',(-0.251051,-10.,7.229215));
#777 = DIRECTION('',(0.,-1.,2.22044604925E-16));
#778 = DIRECTION('',(1.,0.,0.));
#779 = ORIENTED_EDGE('',*,*,#765,.F.);
#780 = ORIENTED_EDGE('',*,*,#781,.F.);
#781 = EDGE_CURVE('',#782,#755,#784,.T.);
#782 = VERTEX_POINT('',#783);
#783 = CARTESIAN_POINT('',(-4.32542890394E-13,-1.676329423595E-30,
    -7.549516567451E-15));
#784 = CIRCLE('',#785,7.233572846168);
#785 = AXIS2_PLACEMENT_3D('',#786,#787,#788);
#786 = CARTESIAN_POINT('',(-0.251051,1.605208188593E-15,7.229215));
#787 = DIRECTION('',(0.,-1.,2.22044604925E-16));
#788 = DIRECTION('',(1.,0.,0.));
#789 = ORIENTED_EDGE('',*,*,#790,.F.);
#790 = EDGE_CURVE('',#791,#782,#793,.T.);
#791 = VERTEX_POINT('',#792);
#792 = CARTESIAN_POINT('',(-0.502102,1.380506584137E-30,
    6.217248937901E-15));
#793 = CIRCLE('',#794,7.233572846168);
#794 = AXIS2_PLACEMENT_3D('',#795,#796,#797);
#795 = CARTESIAN_POINT('',(-0.251051,1.605208188593E-15,7.229215));
#796 = DIRECTION('',(0.,-1.,2.22044604925E-16));
#797 = DIRECTION('',(1.,0.,0.));
#798 = ORIENTED_EDGE('',*,*,#799,.F.);
#799 = EDGE_CURVE('',#800,#791,#802,.T.);
#800 = VERTEX_POINT('',#801);
#801 = CARTESIAN_POINT('',(-7.,5.13599083218E-16,4.626089279596));
#802 = CIRCLE('',#803,7.233572846168);
#803 = AXIS2_PLACEMENT_3D('',#804,#805,#806);
#804 = CARTESIAN_POINT('',(-0.251051,1.605208188593E-15,7.229215));
#805 = DIRECTION('',(0.,-1.,2.22044604925E-16));
#806 = DIRECTION('',(1.,0.,0.));
#807 = ORIENTED_EDGE('',*,*,#808,.F.);
#808 = EDGE_CURVE('',#809,#800,#811,.T.);
#809 = VERTEX_POINT('',#810);
#810 = CARTESIAN_POINT('',(-7.,1.091609105375E-15,9.832340720404));
#811 = CIRCLE('',#812,7.233572846168);
#812 = AXIS2_PLACEMENT_3D('',#813,#814,#815);
#813 = CARTESIAN_POINT('',(-0.251051,1.605208188593E-15,7.229215));
#814 = DIRECTION('',(0.,-1.,2.22044604925E-16));
#815 = DIRECTION('',(1.,0.,0.));
#816 = ORIENTED_EDGE('',*,*,#817,.F.);
#817 = EDGE_CURVE('',#818,#809,#820,.T.);
#818 = VERTEX_POINT('',#819);
#819 = CARTESIAN_POINT('',(-2.79684097653,1.554312234475E-15,14.));
#820 = CIRCLE('',#821,7.233572846168);
#821 = AXIS2_PLACEMENT_3D('',#822,#823,#824);
#822 = CARTESIAN_POINT('',(-0.251051,1.605208188593E-15,7.229215));
#823 = DIRECTION('',(0.,-1.,2.22044604925E-16));
#824 = DIRECTION('',(1.,0.,0.));
#825 = ORIENTED_EDGE('',*,*,#826,.F.);
#826 = EDGE_CURVE('',#757,#818,#827,.T.);
#827 = CIRCLE('',#828,7.233572846168);
#828 = AXIS2_PLACEMENT_3D('',#829,#830,#831);
#829 = CARTESIAN_POINT('',(-0.251051,1.605208188593E-15,7.229215));
#830 = DIRECTION('',(0.,-1.,2.22044604925E-16));
#831 = DIRECTION('',(1.,0.,0.));
#832 = CYLINDRICAL_SURFACE('',#833,7.233572846168);
#833 = AXIS2_PLACEMENT_3D('',#834,#835,#836);
#834 = CARTESIAN_POINT('',(-0.251051,1.605208188593E-15,7.229215));
#835 = DIRECTION('',(0.,1.,-2.22044604925E-16));
#836 = DIRECTION('',(1.,0.,0.));
#837 = ADVANCED_FACE('',(#838),#864,.F.);
#838 = FACE_BOUND('',#839,.F.);
#839 = EDGE_LOOP('',(#840,#848,#849,#850,#858));
#840 = ORIENTED_EDGE('',*,*,#841,.F.);
#841 = EDGE_CURVE('',#782,#842,#844,.T.);
#842 = VERTEX_POINT('',#843);
#843 = CARTESIAN_POINT('',(7.,0.,0.));
#844 = LINE('',#845,#846);
#845 = CARTESIAN_POINT('',(-7.,0.,0.));
#846 = VECTOR('',#847,1.);
#847 = DIRECTION('',(1.,0.,0.));
#848 = ORIENTED_EDGE('',*,*,#781,.T.);
#849 = ORIENTED_EDGE('',*,*,#754,.T.);
#850 = ORIENTED_EDGE('',*,*,#851,.T.);
#851 = EDGE_CURVE('',#757,#852,#854,.T.);
#852 = VERTEX_POINT('',#853);
#853 = CARTESIAN_POINT('',(7.,0.,14.));
#854 = LINE('',#855,#856);
#855 = CARTESIAN_POINT('',(-7.,0.,14.));
#856 = VECTOR('',#857,1.);
#857 = DIRECTION('',(1.,0.,0.));
#858 = ORIENTED_EDGE('',*,*,#859,.F.);
#859 = EDGE_CURVE('',#842,#852,#860,.T.);
#860 = LINE('',#861,#862);
#861 = CARTESIAN_POINT('',(7.,0.,0.));
#862 = VECTOR('',#863,1.);
#863 = DIRECTION('',(0.,0.,1.));
#864 = PLANE('',#865);
#865 = AXIS2_PLACEMENT_3D('',#866,#867,#868);
#866 = CARTESIAN_POINT('',(-7.,0.,0.));
#867 = DIRECTION('',(0.,1.,0.));
#868 = DIRECTION('',(1.,0.,0.));
#869 = ADVANCED_FACE('',(#870),#879,.T.);
#870 = FACE_BOUND('',#871,.T.);
#871 = EDGE_LOOP('',(#872,#873));
#872 = ORIENTED_EDGE('',*,*,#826,.F.);
#873 = ORIENTED_EDGE('',*,*,#874,.F.);
#874 = EDGE_CURVE('',#818,#757,#875,.T.);
#875 = LINE('',#876,#877);
#876 = CARTESIAN_POINT('',(-7.,0.,14.));
#877 = VECTOR('',#878,1.);
#878 = DIRECTION('',(1.,0.,0.));
#879 = PLANE('',#880);
#880 = AXIS2_PLACEMENT_3D('',#881,#882,#883);
#881 = CARTESIAN_POINT('',(-0.251051,1.605208188593E-15,7.229215));
#882 = DIRECTION('',(0.,1.,0.));
#883 = DIRECTION('',(0.,0.,1.));
#884 = ADVANCED_FACE('',(#885),#902,.F.);
#885 = FACE_BOUND('',#886,.F.);
#886 = EDGE_LOOP('',(#887,#888,#896));
#887 = ORIENTED_EDGE('',*,*,#817,.T.);
#888 = ORIENTED_EDGE('',*,*,#889,.T.);
#889 = EDGE_CURVE('',#809,#890,#892,.T.);
#890 = VERTEX_POINT('',#891);
#891 = CARTESIAN_POINT('',(-7.,0.,14.));
#892 = LINE('',#893,#894);
#893 = CARTESIAN_POINT('',(-7.,0.,0.));
#894 = VECTOR('',#895,1.);
#895 = DIRECTION('',(0.,0.,1.));
#896 = ORIENTED_EDGE('',*,*,#897,.T.);
#897 = EDGE_CURVE('',#890,#818,#898,.T.);
#898 = LINE('',#899,#900);
#899 = CARTESIAN_POINT('',(-7.,0.,14.));
#900 = VECTOR('',#901,1.);
#901 = DIRECTION('',(1.,0.,0.));
#902 = PLANE('',#903);
#903 = AXIS2_PLACEMENT_3D('',#904,#905,#906);
#904 = CARTESIAN_POINT('',(-7.,0.,0.));
#905 = DIRECTION('',(0.,1.,0.));
#906 = DIRECTION('',(1.,0.,0.));
#907 = ADVANCED_FACE('',(#908),#917,.T.);
#908 = FACE_BOUND('',#909,.T.);
#909 = EDGE_LOOP('',(#910,#911));
#910 = ORIENTED_EDGE('',*,*,#808,.F.);
#911 = ORIENTED_EDGE('',*,*,#912,.F.);
#912 = EDGE_CURVE('',#800,#809,#913,.T.);
#913 = LINE('',#914,#915);
#914 = CARTESIAN_POINT('',(-7.,0.,0.));
#915 = VECTOR('',#916,1.);
#916 = DIRECTION('',(0.,0.,1.));
#917 = PLANE('',#918);
#918 = AXIS2_PLACEMENT_3D('',#919,#920,#921);
#919 = CARTESIAN_POINT('',(-0.251051,1.605208188593E-15,7.229215));
#920 = DIRECTION('',(0.,1.,0.));
#921 = DIRECTION('',(0.,0.,1.));
#922 = ADVANCED_FACE('',(#923),#940,.F.);
#923 = FACE_BOUND('',#924,.F.);
#924 = EDGE_LOOP('',(#925,#933,#939));
#925 = ORIENTED_EDGE('',*,*,#926,.F.);
#926 = EDGE_CURVE('',#927,#791,#929,.T.);
#927 = VERTEX_POINT('',#928);
#928 = CARTESIAN_POINT('',(-7.,0.,0.));
#929 = LINE('',#930,#931);
#930 = CARTESIAN_POINT('',(-7.,0.,0.));
#931 = VECTOR('',#932,1.);
#932 = DIRECTION('',(1.,0.,0.));
#933 = ORIENTED_EDGE('',*,*,#934,.T.);
#934 = EDGE_CURVE('',#927,#800,#935,.T.);
#935 = LINE('',#936,#937);
#936 = CARTESIAN_POINT('',(-7.,0.,0.));
#937 = VECTOR('',#938,1.);
#938 = DIRECTION('',(0.,0.,1.));
#939 = ORIENTED_EDGE('',*,*,#799,.T.);
#940 = PLANE('',#941);
#941 = AXIS2_PLACEMENT_3D('',#942,#943,#944);
#942 = CARTESIAN_POINT('',(-7.,0.,0.));
#943 = DIRECTION('',(0.,1.,0.));
#944 = DIRECTION('',(1.,0.,0.));
#945 = ADVANCED_FACE('',(#946),#955,.T.);
#946 = FACE_BOUND('',#947,.T.);
#947 = EDGE_LOOP('',(#948,#954));
#948 = ORIENTED_EDGE('',*,*,#949,.T.);
#949 = EDGE_CURVE('',#791,#782,#950,.T.);
#950 = LINE('',#951,#952);
#951 = CARTESIAN_POINT('',(-7.,0.,0.));
#952 = VECTOR('',#953,1.);
#953 = DIRECTION('',(1.,0.,0.));
#954 = ORIENTED_EDGE('',*,*,#790,.F.);
#955 = PLANE('',#956);
#956 = AXIS2_PLACEMENT_3D('',#957,#958,#959);
#957 = CARTESIAN_POINT('',(-0.251051,1.605208188593E-15,7.229215));
#958 = DIRECTION('',(0.,1.,0.));
#959 = DIRECTION('',(0.,0.,1.));
#960 = ADVANCED_FACE('',(#961),#964,.F.);
#961 = FACE_BOUND('',#962,.T.);
#962 = EDGE_LOOP('',(#963));
#963 = ORIENTED_EDGE('',*,*,#773,.T.);
#964 = PLANE('',#965);
#965 = AXIS2_PLACEMENT_3D('',#966,#967,#968);
#966 = CARTESIAN_POINT('',(-0.251051,-10.,7.229215));
#967 = DIRECTION('',(0.,1.,0.));
#968 = DIRECTION('',(0.,0.,1.));
#969 = ADVANCED_FACE('',(#970),#997,.F.);
#970 = FACE_BOUND('',#971,.F.);
#971 = EDGE_LOOP('',(#972,#973,#974,#975,#983,#991));
#972 = ORIENTED_EDGE('',*,*,#926,.T.);
#973 = ORIENTED_EDGE('',*,*,#949,.T.);
#974 = ORIENTED_EDGE('',*,*,#841,.T.);
#975 = ORIENTED_EDGE('',*,*,#976,.T.);
#976 = EDGE_CURVE('',#842,#977,#979,.T.);
#977 = VERTEX_POINT('',#978);
#978 = CARTESIAN_POINT('',(7.,2.,0.));
#979 = LINE('',#980,#981);
#980 = CARTESIAN_POINT('',(7.,0.,0.));
#981 = VECTOR('',#982,1.);
#982 = DIRECTION('',(0.,1.,0.));
#983 = ORIENTED_EDGE('',*,*,#984,.T.);
#984 = EDGE_CURVE('',#977,#985,#987,.T.);
#985 = VERTEX_POINT('',#986);
#986 = CARTESIAN_POINT('',(-7.,2.,0.));
#987 = LINE('',#988,#989);
#988 = CARTESIAN_POINT('',(7.,2.,0.));
#989 = VECTOR('',#990,1.);
#990 = DIRECTION('',(-1.,0.,0.));
#991 = ORIENTED_EDGE('',*,*,#992,.T.);
#992 = EDGE_CURVE('',#985,#927,#993,.T.);
#993 = LINE('',#994,#995);
#994 = CARTESIAN_POINT('',(-7.,2.,0.));
#995 = VECTOR('',#996,1.);
#996 = DIRECTION('',(0.,-1.,0.));
#997 = PLANE('',#998);
#998 = AXIS2_PLACEMENT_3D('',#999,#1000,#1001);
#999 = CARTESIAN_POINT('',(0.,1.,0.));
#1000 = DIRECTION('',(0.,0.,1.));
#1001 = DIRECTION('',(1.,0.,0.));
#1002 = ADVANCED_FACE('',(#1003),#1021,.F.);
#1003 = FACE_BOUND('',#1004,.F.);
#1004 = EDGE_LOOP('',(#1005,#1006,#1014,#1020));
#1005 = ORIENTED_EDGE('',*,*,#859,.T.);
#1006 = ORIENTED_EDGE('',*,*,#1007,.T.);
#1007 = EDGE_CURVE('',#852,#1008,#1010,.T.);
#1008 = VERTEX_POINT('',#1009);
#1009 = CARTESIAN_POINT('',(7.,2.,14.));
#1010 = LINE('',#1011,#1012);
#1011 = CARTESIAN_POINT('',(7.,0.,14.));
#1012 = VECTOR('',#1013,1.);
#1013 = DIRECTION('',(0.,1.,0.));
#1014 = ORIENTED_EDGE('',*,*,#1015,.F.);
#1015 = EDGE_CURVE('',#977,#1008,#1016,.T.);
#1016 = LINE('',#1017,#1018);
#1017 = CARTESIAN_POINT('',(7.,2.,0.));
#1018 = VECTOR('',#1019,1.);
#1019 = DIRECTION('',(0.,0.,1.));
#1020 = ORIENTED_EDGE('',*,*,#976,.F.);
#1021 = PLANE('',#1022);
#1022 = AXIS2_PLACEMENT_3D('',#1023,#1024,#1025);
#1023 = CARTESIAN_POINT('',(7.,0.,0.));
#1024 = DIRECTION('',(-1.,0.,0.));
#1025 = DIRECTION('',(0.,1.,0.));
#1026 = ADVANCED_FACE('',(#1027),#1047,.T.);
#1027 = FACE_BOUND('',#1028,.T.);
#1028 = EDGE_LOOP('',(#1029,#1030,#1031,#1032,#1033,#1041));
#1029 = ORIENTED_EDGE('',*,*,#897,.T.);
#1030 = ORIENTED_EDGE('',*,*,#874,.T.);
#1031 = ORIENTED_EDGE('',*,*,#851,.T.);
#1032 = ORIENTED_EDGE('',*,*,#1007,.T.);
#1033 = ORIENTED_EDGE('',*,*,#1034,.T.);
#1034 = EDGE_CURVE('',#1008,#1035,#1037,.T.);
#1035 = VERTEX_POINT('',#1036);
#1036 = CARTESIAN_POINT('',(-7.,2.,14.));
#1037 = LINE('',#1038,#1039);
#1038 = CARTESIAN_POINT('',(7.,2.,14.));
#1039 = VECTOR('',#1040,1.);
#1040 = DIRECTION('',(-1.,0.,0.));
#1041 = ORIENTED_EDGE('',*,*,#1042,.T.);
#1042 = EDGE_CURVE('',#1035,#890,#1043,.T.);
#1043 = LINE('',#1044,#1045);
#1044 = CARTESIAN_POINT('',(-7.,2.,14.));
#1045 = VECTOR('',#1046,1.);
#1046 = DIRECTION('',(0.,-1.,0.));
#1047 = PLANE('',#1048);
#1048 = AXIS2_PLACEMENT_3D('',#1049,#1050,#1051);
#1049 = CARTESIAN_POINT('',(0.,1.,14.));
#1050 = DIRECTION('',(0.,0.,1.));
#1051 = DIRECTION('',(1.,0.,0.));
#1052 = ADVANCED_FACE('',(#1053),#1066,.F.);
#1053 = FACE_BOUND('',#1054,.F.);
#1054 = EDGE_LOOP('',(#1055,#1061,#1062,#1063,#1064,#1065));
#1055 = ORIENTED_EDGE('',*,*,#1056,.T.);
#1056 = EDGE_CURVE('',#985,#1035,#1057,.T.);
#1057 = LINE('',#1058,#1059);
#1058 = CARTESIAN_POINT('',(-7.,2.,0.));
#1059 = VECTOR('',#1060,1.);
#1060 = DIRECTION('',(0.,0.,1.));
#1061 = ORIENTED_EDGE('',*,*,#1042,.T.);
#1062 = ORIENTED_EDGE('',*,*,#889,.F.);
#1063 = ORIENTED_EDGE('',*,*,#912,.F.);
#1064 = ORIENTED_EDGE('',*,*,#934,.F.);
#1065 = ORIENTED_EDGE('',*,*,#992,.F.);
#1066 = PLANE('',#1067);
#1067 = AXIS2_PLACEMENT_3D('',#1068,#1069,#1070);
#1068 = CARTESIAN_POINT('',(-7.,2.,0.));
#1069 = DIRECTION('',(1.,0.,-0.));
#1070 = DIRECTION('',(0.,-1.,0.));
#1071 = ADVANCED_FACE('',(#1072),#1078,.F.);
#1072 = FACE_BOUND('',#1073,.F.);
#1073 = EDGE_LOOP('',(#1074,#1075,#1076,#1077));
#1074 = ORIENTED_EDGE('',*,*,#1015,.T.);
#1075 = ORIENTED_EDGE('',*,*,#1034,.T.);
#1076 = ORIENTED_EDGE('',*,*,#1056,.F.);
#1077 = ORIENTED_EDGE('',*,*,#984,.F.);
#1078 = PLANE('',#1079);
#1079 = AXIS2_PLACEMENT_3D('',#1080,#1081,#1082);
#1080 = CARTESIAN_POINT('',(7.,2.,0.));
#1081 = DIRECTION('',(0.,-1.,0.));
#1082 = DIRECTION('',(-1.,0.,0.));
#1083 = ( GEOMETRIC_REPRESENTATION_CONTEXT(3) 
GLOBAL_UNCERTAINTY_ASSIGNED_CONTEXT((#1087)) 
GLOBAL_UNIT_ASSIGNED_CONTEXT((#1084,#1085,#1086)) REPRESENTATION_CONTEXT
('Context #1','3D Context with UNIT and UNCERTAINTY') );
#1084 = ( LENGTH_UNIT() NAMED_UNIT(*) SI_UNIT(.MILLI.,.METRE.) );
#1085 = ( NAMED_UNIT(*) PLANE_ANGLE_UNIT() SI_UNIT($,.RADIAN.) );
#1086 = ( NAMED_UNIT(*) SI_UNIT($,.STERADIAN.) SOLID_ANGLE_UNIT() );
#1087 = UNCERTAINTY_MEASURE_WITH_UNIT(LENGTH_MEASURE(1.E-07),#1084,
  'distance_accuracy_value','confusion accuracy');
#1088 = CONTEXT_DEPENDENT_SHAPE_REPRESENTATION(#1089,#1091);
#1089 = ( REPRESENTATION_RELATIONSHIP('','',#747,#10) 
REPRESENTATION_RELATIONSHIP_WITH_TRANSFORMATION(#1090) 
SHAPE_REPRESENTATION_RELATIONSHIP() );
#1090 = ITEM_DEFINED_TRANSFORMATION('','',#11,#55);
#1091 = PRODUCT_DEFINITION_SHAPE('Placement','Placement of an item',
  #1092);
#1092 = NEXT_ASSEMBLY_USAGE_OCCURRENCE('11','pad back of fasel','',#5,
  #742,$);
#1093 = PRODUCT_RELATED_PRODUCT_CATEGORY('part',$,(#744));
#1094 = SHAPE_DEFINITION_REPRESENTATION(#1095,#1101);
#1095 = PRODUCT_DEFINITION_SHAPE('','',#1096);
#1096 = PRODUCT_DEFINITION('design','',#1097,#1100);
#1097 = PRODUCT_DEFINITION_FORMATION('','',#1098);
#1098 = PRODUCT('footie1','footie1','',(#1099));
#1099 = PRODUCT_CONTEXT('',#2,'mechanical');
#1100 = PRODUCT_DEFINITION_CONTEXT('part definition',#2,'design');
#1101 = GEOMETRICALLY_BOUNDED_WIREFRAME_SHAPE_REPRESENTATION('',(#11,
    #1102),#1111);
#1102 = GEOMETRIC_CURVE_SET('',(#1103));
#1103 = TRIMMED_CURVE('',#1104,(#1109,PARAMETER_VALUE(0.)),(#1110,
    PARAMETER_VALUE(6.28318530718)),.T.,.PARAMETER.);
#1104 = CIRCLE('',#1105,0.5);
#1105 = AXIS2_PLACEMENT_3D('',#1106,#1107,#1108);
#1106 = CARTESIAN_POINT('',(-6.35,1.,0.));
#1107 = DIRECTION('',(0.,0.,1.));
#1108 = DIRECTION('',(1.,0.,0.));
#1109 = CARTESIAN_POINT('',(-5.85,1.,0.));
#1110 = CARTESIAN_POINT('',(-5.85,1.,0.));
#1111 = ( GEOMETRIC_REPRESENTATION_CONTEXT(3) 
GLOBAL_UNCERTAINTY_ASSIGNED_CONTEXT((#1115)) 
GLOBAL_UNIT_ASSIGNED_CONTEXT((#1112,#1113,#1114)) REPRESENTATION_CONTEXT
('Context #1','3D Context with UNIT and UNCERTAINTY') );
#1112 = ( LENGTH_UNIT() NAMED_UNIT(*) SI_UNIT(.MILLI.,.METRE.) );
#1113 = ( NAMED_UNIT(*) PLANE_ANGLE_UNIT() SI_UNIT($,.RADIAN.) );
#1114 = ( NAMED_UNIT(*) SI_UNIT($,.STERADIAN.) SOLID_ANGLE_UNIT() );
#1115 = UNCERTAINTY_MEASURE_WITH_UNIT(LENGTH_MEASURE(1.E-07),#1112,
  'distance_accuracy_value','confusion accuracy');
#1116 = CONTEXT_DEPENDENT_SHAPE_REPRESENTATION(#1117,#1119);
#1117 = ( REPRESENTATION_RELATIONSHIP('','',#1101,#10) 
REPRESENTATION_RELATIONSHIP_WITH_TRANSFORMATION(#1118) 
SHAPE_REPRESENTATION_RELATIONSHIP() );
#1118 = ITEM_DEFINED_TRANSFORMATION('','',#11,#59);
#1119 = PRODUCT_DEFINITION_SHAPE('Placement','Placement of an item',
  #1120);
#1120 = NEXT_ASSEMBLY_USAGE_OCCURRENCE('12','footie1','',#5,#1096,$);
#1121 = PRODUCT_RELATED_PRODUCT_CATEGORY('part',$,(#1098));
#1122 = SHAPE_DEFINITION_REPRESENTATION(#1123,#1129);
#1123 = PRODUCT_DEFINITION_SHAPE('','',#1124);
#1124 = PRODUCT_DEFINITION('design','',#1125,#1128);
#1125 = PRODUCT_DEFINITION_FORMATION('','',#1126);
#1126 = PRODUCT('Pad002','Pad002','',(#1127));
#1127 = PRODUCT_CONTEXT('',#2,'mechanical');
#1128 = PRODUCT_DEFINITION_CONTEXT('part definition',#2,'design');
#1129 = ADVANCED_BREP_SHAPE_REPRESENTATION('',(#11,#1130),#1510);
#1130 = MANIFOLD_SOLID_BREP('',#1131);
#1131 = CLOSED_SHELL('',(#1132,#1219,#1251,#1266,#1289,#1304,#1327,#1342
    ,#1351,#1384,#1408,#1445,#1464,#1476,#1501));
#1132 = ADVANCED_FACE('',(#1133),#1214,.T.);
#1133 = FACE_BOUND('',#1134,.F.);
#1134 = EDGE_LOOP('',(#1135,#1146,#1154,#1161,#1162,#1171,#1180,#1189,
    #1198,#1207));
#1135 = ORIENTED_EDGE('',*,*,#1136,.F.);
#1136 = EDGE_CURVE('',#1137,#1139,#1141,.T.);
#1137 = VERTEX_POINT('',#1138);
#1138 = CARTESIAN_POINT('',(6.982521846168,1.605208188593E-15,7.229215)
  );
#1139 = VERTEX_POINT('',#1140);
#1140 = CARTESIAN_POINT('',(2.29473897653,1.554312234475E-15,14.));
#1141 = CIRCLE('',#1142,7.233572846168);
#1142 = AXIS2_PLACEMENT_3D('',#1143,#1144,#1145);
#1143 = CARTESIAN_POINT('',(-0.251051,1.605208188593E-15,7.229215));
#1144 = DIRECTION('',(0.,-1.,2.22044604925E-16));
#1145 = DIRECTION('',(1.,0.,0.));
#1146 = ORIENTED_EDGE('',*,*,#1147,.T.);
#1147 = EDGE_CURVE('',#1137,#1148,#1150,.T.);
#1148 = VERTEX_POINT('',#1149);
#1149 = CARTESIAN_POINT('',(6.982521846168,-10.,7.229215));
#1150 = LINE('',#1151,#1152);
#1151 = CARTESIAN_POINT('',(6.982521846168,1.605208188593E-15,7.229215)
  );
#1152 = VECTOR('',#1153,1.);
#1153 = DIRECTION('',(0.,-1.,2.22044604925E-16));
#1154 = ORIENTED_EDGE('',*,*,#1155,.T.);
#1155 = EDGE_CURVE('',#1148,#1148,#1156,.T.);
#1156 = CIRCLE('',#1157,7.233572846168);
#1157 = AXIS2_PLACEMENT_3D('',#1158,#1159,#1160);
#1158 = CARTESIAN_POINT('',(-0.251051,-10.,7.229215));
#1159 = DIRECTION('',(0.,-1.,2.22044604925E-16));
#1160 = DIRECTION('',(1.,0.,0.));
#1161 = ORIENTED_EDGE('',*,*,#1147,.F.);
#1162 = ORIENTED_EDGE('',*,*,#1163,.F.);
#1163 = EDGE_CURVE('',#1164,#1137,#1166,.T.);
#1164 = VERTEX_POINT('',#1165);
#1165 = CARTESIAN_POINT('',(-4.32542890394E-13,-1.676329423595E-30,
    -7.549516567451E-15));
#1166 = CIRCLE('',#1167,7.233572846168);
#1167 = AXIS2_PLACEMENT_3D('',#1168,#1169,#1170);
#1168 = CARTESIAN_POINT('',(-0.251051,1.605208188593E-15,7.229215));
#1169 = DIRECTION('',(0.,-1.,2.22044604925E-16));
#1170 = DIRECTION('',(1.,0.,0.));
#1171 = ORIENTED_EDGE('',*,*,#1172,.F.);
#1172 = EDGE_CURVE('',#1173,#1164,#1175,.T.);
#1173 = VERTEX_POINT('',#1174);
#1174 = CARTESIAN_POINT('',(-0.502102,1.380506584137E-30,
    6.217248937901E-15));
#1175 = CIRCLE('',#1176,7.233572846168);
#1176 = AXIS2_PLACEMENT_3D('',#1177,#1178,#1179);
#1177 = CARTESIAN_POINT('',(-0.251051,1.605208188593E-15,7.229215));
#1178 = DIRECTION('',(0.,-1.,2.22044604925E-16));
#1179 = DIRECTION('',(1.,0.,0.));
#1180 = ORIENTED_EDGE('',*,*,#1181,.F.);
#1181 = EDGE_CURVE('',#1182,#1173,#1184,.T.);
#1182 = VERTEX_POINT('',#1183);
#1183 = CARTESIAN_POINT('',(-7.,5.13599083218E-16,4.626089279596));
#1184 = CIRCLE('',#1185,7.233572846168);
#1185 = AXIS2_PLACEMENT_3D('',#1186,#1187,#1188);
#1186 = CARTESIAN_POINT('',(-0.251051,1.605208188593E-15,7.229215));
#1187 = DIRECTION('',(0.,-1.,2.22044604925E-16));
#1188 = DIRECTION('',(1.,0.,0.));
#1189 = ORIENTED_EDGE('',*,*,#1190,.F.);
#1190 = EDGE_CURVE('',#1191,#1182,#1193,.T.);
#1191 = VERTEX_POINT('',#1192);
#1192 = CARTESIAN_POINT('',(-7.,1.091609105375E-15,9.832340720404));
#1193 = CIRCLE('',#1194,7.233572846168);
#1194 = AXIS2_PLACEMENT_3D('',#1195,#1196,#1197);
#1195 = CARTESIAN_POINT('',(-0.251051,1.605208188593E-15,7.229215));
#1196 = DIRECTION('',(0.,-1.,2.22044604925E-16));
#1197 = DIRECTION('',(1.,0.,0.));
#1198 = ORIENTED_EDGE('',*,*,#1199,.F.);
#1199 = EDGE_CURVE('',#1200,#1191,#1202,.T.);
#1200 = VERTEX_POINT('',#1201);
#1201 = CARTESIAN_POINT('',(-2.79684097653,1.554312234475E-15,14.));
#1202 = CIRCLE('',#1203,7.233572846168);
#1203 = AXIS2_PLACEMENT_3D('',#1204,#1205,#1206);
#1204 = CARTESIAN_POINT('',(-0.251051,1.605208188593E-15,7.229215));
#1205 = DIRECTION('',(0.,-1.,2.22044604925E-16));
#1206 = DIRECTION('',(1.,0.,0.));
#1207 = ORIENTED_EDGE('',*,*,#1208,.F.);
#1208 = EDGE_CURVE('',#1139,#1200,#1209,.T.);
#1209 = CIRCLE('',#1210,7.233572846168);
#1210 = AXIS2_PLACEMENT_3D('',#1211,#1212,#1213);
#1211 = CARTESIAN_POINT('',(-0.251051,1.605208188593E-15,7.229215));
#1212 = DIRECTION('',(0.,-1.,2.22044604925E-16));
#1213 = DIRECTION('',(1.,0.,0.));
#1214 = CYLINDRICAL_SURFACE('',#1215,7.233572846168);
#1215 = AXIS2_PLACEMENT_3D('',#1216,#1217,#1218);
#1216 = CARTESIAN_POINT('',(-0.251051,1.605208188593E-15,7.229215));
#1217 = DIRECTION('',(0.,1.,-2.22044604925E-16));
#1218 = DIRECTION('',(1.,0.,0.));
#1219 = ADVANCED_FACE('',(#1220),#1246,.F.);
#1220 = FACE_BOUND('',#1221,.F.);
#1221 = EDGE_LOOP('',(#1222,#1230,#1231,#1232,#1240));
#1222 = ORIENTED_EDGE('',*,*,#1223,.F.);
#1223 = EDGE_CURVE('',#1164,#1224,#1226,.T.);
#1224 = VERTEX_POINT('',#1225);
#1225 = CARTESIAN_POINT('',(7.,0.,0.));
#1226 = LINE('',#1227,#1228);
#1227 = CARTESIAN_POINT('',(-7.,0.,0.));
#1228 = VECTOR('',#1229,1.);
#1229 = DIRECTION('',(1.,0.,0.));
#1230 = ORIENTED_EDGE('',*,*,#1163,.T.);
#1231 = ORIENTED_EDGE('',*,*,#1136,.T.);
#1232 = ORIENTED_EDGE('',*,*,#1233,.T.);
#1233 = EDGE_CURVE('',#1139,#1234,#1236,.T.);
#1234 = VERTEX_POINT('',#1235);
#1235 = CARTESIAN_POINT('',(7.,0.,14.));
#1236 = LINE('',#1237,#1238);
#1237 = CARTESIAN_POINT('',(-7.,0.,14.));
#1238 = VECTOR('',#1239,1.);
#1239 = DIRECTION('',(1.,0.,0.));
#1240 = ORIENTED_EDGE('',*,*,#1241,.F.);
#1241 = EDGE_CURVE('',#1224,#1234,#1242,.T.);
#1242 = LINE('',#1243,#1244);
#1243 = CARTESIAN_POINT('',(7.,0.,0.));
#1244 = VECTOR('',#1245,1.);
#1245 = DIRECTION('',(0.,0.,1.));
#1246 = PLANE('',#1247);
#1247 = AXIS2_PLACEMENT_3D('',#1248,#1249,#1250);
#1248 = CARTESIAN_POINT('',(-7.,0.,0.));
#1249 = DIRECTION('',(0.,1.,0.));
#1250 = DIRECTION('',(1.,0.,0.));
#1251 = ADVANCED_FACE('',(#1252),#1261,.T.);
#1252 = FACE_BOUND('',#1253,.T.);
#1253 = EDGE_LOOP('',(#1254,#1255));
#1254 = ORIENTED_EDGE('',*,*,#1208,.F.);
#1255 = ORIENTED_EDGE('',*,*,#1256,.F.);
#1256 = EDGE_CURVE('',#1200,#1139,#1257,.T.);
#1257 = LINE('',#1258,#1259);
#1258 = CARTESIAN_POINT('',(-7.,0.,14.));
#1259 = VECTOR('',#1260,1.);
#1260 = DIRECTION('',(1.,0.,0.));
#1261 = PLANE('',#1262);
#1262 = AXIS2_PLACEMENT_3D('',#1263,#1264,#1265);
#1263 = CARTESIAN_POINT('',(-0.251051,1.605208188593E-15,7.229215));
#1264 = DIRECTION('',(0.,1.,0.));
#1265 = DIRECTION('',(0.,0.,1.));
#1266 = ADVANCED_FACE('',(#1267),#1284,.F.);
#1267 = FACE_BOUND('',#1268,.F.);
#1268 = EDGE_LOOP('',(#1269,#1270,#1278));
#1269 = ORIENTED_EDGE('',*,*,#1199,.T.);
#1270 = ORIENTED_EDGE('',*,*,#1271,.T.);
#1271 = EDGE_CURVE('',#1191,#1272,#1274,.T.);
#1272 = VERTEX_POINT('',#1273);
#1273 = CARTESIAN_POINT('',(-7.,0.,14.));
#1274 = LINE('',#1275,#1276);
#1275 = CARTESIAN_POINT('',(-7.,0.,0.));
#1276 = VECTOR('',#1277,1.);
#1277 = DIRECTION('',(0.,0.,1.));
#1278 = ORIENTED_EDGE('',*,*,#1279,.T.);
#1279 = EDGE_CURVE('',#1272,#1200,#1280,.T.);
#1280 = LINE('',#1281,#1282);
#1281 = CARTESIAN_POINT('',(-7.,0.,14.));
#1282 = VECTOR('',#1283,1.);
#1283 = DIRECTION('',(1.,0.,0.));
#1284 = PLANE('',#1285);
#1285 = AXIS2_PLACEMENT_3D('',#1286,#1287,#1288);
#1286 = CARTESIAN_POINT('',(-7.,0.,0.));
#1287 = DIRECTION('',(0.,1.,0.));
#1288 = DIRECTION('',(1.,0.,0.));
#1289 = ADVANCED_FACE('',(#1290),#1299,.T.);
#1290 = FACE_BOUND('',#1291,.T.);
#1291 = EDGE_LOOP('',(#1292,#1293));
#1292 = ORIENTED_EDGE('',*,*,#1190,.F.);
#1293 = ORIENTED_EDGE('',*,*,#1294,.F.);
#1294 = EDGE_CURVE('',#1182,#1191,#1295,.T.);
#1295 = LINE('',#1296,#1297);
#1296 = CARTESIAN_POINT('',(-7.,0.,0.));
#1297 = VECTOR('',#1298,1.);
#1298 = DIRECTION('',(0.,0.,1.));
#1299 = PLANE('',#1300);
#1300 = AXIS2_PLACEMENT_3D('',#1301,#1302,#1303);
#1301 = CARTESIAN_POINT('',(-0.251051,1.605208188593E-15,7.229215));
#1302 = DIRECTION('',(0.,1.,0.));
#1303 = DIRECTION('',(0.,0.,1.));
#1304 = ADVANCED_FACE('',(#1305),#1322,.F.);
#1305 = FACE_BOUND('',#1306,.F.);
#1306 = EDGE_LOOP('',(#1307,#1315,#1321));
#1307 = ORIENTED_EDGE('',*,*,#1308,.F.);
#1308 = EDGE_CURVE('',#1309,#1173,#1311,.T.);
#1309 = VERTEX_POINT('',#1310);
#1310 = CARTESIAN_POINT('',(-7.,0.,0.));
#1311 = LINE('',#1312,#1313);
#1312 = CARTESIAN_POINT('',(-7.,0.,0.));
#1313 = VECTOR('',#1314,1.);
#1314 = DIRECTION('',(1.,0.,0.));
#1315 = ORIENTED_EDGE('',*,*,#1316,.T.);
#1316 = EDGE_CURVE('',#1309,#1182,#1317,.T.);
#1317 = LINE('',#1318,#1319);
#1318 = CARTESIAN_POINT('',(-7.,0.,0.));
#1319 = VECTOR('',#1320,1.);
#1320 = DIRECTION('',(0.,0.,1.));
#1321 = ORIENTED_EDGE('',*,*,#1181,.T.);
#1322 = PLANE('',#1323);
#1323 = AXIS2_PLACEMENT_3D('',#1324,#1325,#1326);
#1324 = CARTESIAN_POINT('',(-7.,0.,0.));
#1325 = DIRECTION('',(0.,1.,0.));
#1326 = DIRECTION('',(1.,0.,0.));
#1327 = ADVANCED_FACE('',(#1328),#1337,.T.);
#1328 = FACE_BOUND('',#1329,.T.);
#1329 = EDGE_LOOP('',(#1330,#1336));
#1330 = ORIENTED_EDGE('',*,*,#1331,.T.);
#1331 = EDGE_CURVE('',#1173,#1164,#1332,.T.);
#1332 = LINE('',#1333,#1334);
#1333 = CARTESIAN_POINT('',(-7.,0.,0.));
#1334 = VECTOR('',#1335,1.);
#1335 = DIRECTION('',(1.,0.,0.));
#1336 = ORIENTED_EDGE('',*,*,#1172,.F.);
#1337 = PLANE('',#1338);
#1338 = AXIS2_PLACEMENT_3D('',#1339,#1340,#1341);
#1339 = CARTESIAN_POINT('',(-0.251051,1.605208188593E-15,7.229215));
#1340 = DIRECTION('',(0.,1.,0.));
#1341 = DIRECTION('',(0.,0.,1.));
#1342 = ADVANCED_FACE('',(#1343),#1346,.F.);
#1343 = FACE_BOUND('',#1344,.T.);
#1344 = EDGE_LOOP('',(#1345));
#1345 = ORIENTED_EDGE('',*,*,#1155,.T.);
#1346 = PLANE('',#1347);
#1347 = AXIS2_PLACEMENT_3D('',#1348,#1349,#1350);
#1348 = CARTESIAN_POINT('',(-0.251051,-10.,7.229215));
#1349 = DIRECTION('',(0.,1.,0.));
#1350 = DIRECTION('',(0.,0.,1.));
#1351 = ADVANCED_FACE('',(#1352),#1379,.F.);
#1352 = FACE_BOUND('',#1353,.F.);
#1353 = EDGE_LOOP('',(#1354,#1355,#1356,#1357,#1365,#1373));
#1354 = ORIENTED_EDGE('',*,*,#1308,.T.);
#1355 = ORIENTED_EDGE('',*,*,#1331,.T.);
#1356 = ORIENTED_EDGE('',*,*,#1223,.T.);
#1357 = ORIENTED_EDGE('',*,*,#1358,.T.);
#1358 = EDGE_CURVE('',#1224,#1359,#1361,.T.);
#1359 = VERTEX_POINT('',#1360);
#1360 = CARTESIAN_POINT('',(7.,2.,0.));
#1361 = LINE('',#1362,#1363);
#1362 = CARTESIAN_POINT('',(7.,0.,0.));
#1363 = VECTOR('',#1364,1.);
#1364 = DIRECTION('',(0.,1.,0.));
#1365 = ORIENTED_EDGE('',*,*,#1366,.T.);
#1366 = EDGE_CURVE('',#1359,#1367,#1369,.T.);
#1367 = VERTEX_POINT('',#1368);
#1368 = CARTESIAN_POINT('',(-7.,2.,0.));
#1369 = LINE('',#1370,#1371);
#1370 = CARTESIAN_POINT('',(7.,2.,0.));
#1371 = VECTOR('',#1372,1.);
#1372 = DIRECTION('',(-1.,0.,0.));
#1373 = ORIENTED_EDGE('',*,*,#1374,.T.);
#1374 = EDGE_CURVE('',#1367,#1309,#1375,.T.);
#1375 = LINE('',#1376,#1377);
#1376 = CARTESIAN_POINT('',(-7.,2.,0.));
#1377 = VECTOR('',#1378,1.);
#1378 = DIRECTION('',(0.,-1.,0.));
#1379 = PLANE('',#1380);
#1380 = AXIS2_PLACEMENT_3D('',#1381,#1382,#1383);
#1381 = CARTESIAN_POINT('',(0.,1.,0.));
#1382 = DIRECTION('',(0.,0.,1.));
#1383 = DIRECTION('',(1.,0.,0.));
#1384 = ADVANCED_FACE('',(#1385),#1403,.F.);
#1385 = FACE_BOUND('',#1386,.F.);
#1386 = EDGE_LOOP('',(#1387,#1388,#1396,#1402));
#1387 = ORIENTED_EDGE('',*,*,#1241,.T.);
#1388 = ORIENTED_EDGE('',*,*,#1389,.T.);
#1389 = EDGE_CURVE('',#1234,#1390,#1392,.T.);
#1390 = VERTEX_POINT('',#1391);
#1391 = CARTESIAN_POINT('',(7.,2.,14.));
#1392 = LINE('',#1393,#1394);
#1393 = CARTESIAN_POINT('',(7.,0.,14.));
#1394 = VECTOR('',#1395,1.);
#1395 = DIRECTION('',(0.,1.,0.));
#1396 = ORIENTED_EDGE('',*,*,#1397,.F.);
#1397 = EDGE_CURVE('',#1359,#1390,#1398,.T.);
#1398 = LINE('',#1399,#1400);
#1399 = CARTESIAN_POINT('',(7.,2.,0.));
#1400 = VECTOR('',#1401,1.);
#1401 = DIRECTION('',(0.,0.,1.));
#1402 = ORIENTED_EDGE('',*,*,#1358,.F.);
#1403 = PLANE('',#1404);
#1404 = AXIS2_PLACEMENT_3D('',#1405,#1406,#1407);
#1405 = CARTESIAN_POINT('',(7.,0.,0.));
#1406 = DIRECTION('',(-1.,0.,0.));
#1407 = DIRECTION('',(0.,1.,0.));
#1408 = ADVANCED_FACE('',(#1409,#1429),#1440,.T.);
#1409 = FACE_BOUND('',#1410,.T.);
#1410 = EDGE_LOOP('',(#1411,#1412,#1413,#1414,#1415,#1423));
#1411 = ORIENTED_EDGE('',*,*,#1279,.T.);
#1412 = ORIENTED_EDGE('',*,*,#1256,.T.);
#1413 = ORIENTED_EDGE('',*,*,#1233,.T.);
#1414 = ORIENTED_EDGE('',*,*,#1389,.T.);
#1415 = ORIENTED_EDGE('',*,*,#1416,.T.);
#1416 = EDGE_CURVE('',#1390,#1417,#1419,.T.);
#1417 = VERTEX_POINT('',#1418);
#1418 = CARTESIAN_POINT('',(-7.,2.,14.));
#1419 = LINE('',#1420,#1421);
#1420 = CARTESIAN_POINT('',(7.,2.,14.));
#1421 = VECTOR('',#1422,1.);
#1422 = DIRECTION('',(-1.,0.,0.));
#1423 = ORIENTED_EDGE('',*,*,#1424,.T.);
#1424 = EDGE_CURVE('',#1417,#1272,#1425,.T.);
#1425 = LINE('',#1426,#1427);
#1426 = CARTESIAN_POINT('',(-7.,2.,14.));
#1427 = VECTOR('',#1428,1.);
#1428 = DIRECTION('',(0.,-1.,0.));
#1429 = FACE_BOUND('',#1430,.T.);
#1430 = EDGE_LOOP('',(#1431));
#1431 = ORIENTED_EDGE('',*,*,#1432,.F.);
#1432 = EDGE_CURVE('',#1433,#1433,#1435,.T.);
#1433 = VERTEX_POINT('',#1434);
#1434 = CARTESIAN_POINT('',(-5.85,1.,14.));
#1435 = CIRCLE('',#1436,0.5);
#1436 = AXIS2_PLACEMENT_3D('',#1437,#1438,#1439);
#1437 = CARTESIAN_POINT('',(-6.35,1.,14.));
#1438 = DIRECTION('',(0.,0.,1.));
#1439 = DIRECTION('',(1.,0.,0.));
#1440 = PLANE('',#1441);
#1441 = AXIS2_PLACEMENT_3D('',#1442,#1443,#1444);
#1442 = CARTESIAN_POINT('',(0.,1.,14.));
#1443 = DIRECTION('',(0.,0.,1.));
#1444 = DIRECTION('',(1.,0.,0.));
#1445 = ADVANCED_FACE('',(#1446),#1459,.F.);
#1446 = FACE_BOUND('',#1447,.F.);
#1447 = EDGE_LOOP('',(#1448,#1454,#1455,#1456,#1457,#1458));
#1448 = ORIENTED_EDGE('',*,*,#1449,.T.);
#1449 = EDGE_CURVE('',#1367,#1417,#1450,.T.);
#1450 = LINE('',#1451,#1452);
#1451 = CARTESIAN_POINT('',(-7.,2.,0.));
#1452 = VECTOR('',#1453,1.);
#1453 = DIRECTION('',(0.,0.,1.));
#1454 = ORIENTED_EDGE('',*,*,#1424,.T.);
#1455 = ORIENTED_EDGE('',*,*,#1271,.F.);
#1456 = ORIENTED_EDGE('',*,*,#1294,.F.);
#1457 = ORIENTED_EDGE('',*,*,#1316,.F.);
#1458 = ORIENTED_EDGE('',*,*,#1374,.F.);
#1459 = PLANE('',#1460);
#1460 = AXIS2_PLACEMENT_3D('',#1461,#1462,#1463);
#1461 = CARTESIAN_POINT('',(-7.,2.,0.));
#1462 = DIRECTION('',(1.,0.,0.));
#1463 = DIRECTION('',(0.,-1.,0.));
#1464 = ADVANCED_FACE('',(#1465),#1471,.F.);
#1465 = FACE_BOUND('',#1466,.F.);
#1466 = EDGE_LOOP('',(#1467,#1468,#1469,#1470));
#1467 = ORIENTED_EDGE('',*,*,#1397,.T.);
#1468 = ORIENTED_EDGE('',*,*,#1416,.T.);
#1469 = ORIENTED_EDGE('',*,*,#1449,.F.);
#1470 = ORIENTED_EDGE('',*,*,#1366,.F.);
#1471 = PLANE('',#1472);
#1472 = AXIS2_PLACEMENT_3D('',#1473,#1474,#1475);
#1473 = CARTESIAN_POINT('',(7.,2.,0.));
#1474 = DIRECTION('',(0.,-1.,0.));
#1475 = DIRECTION('',(-1.,0.,0.));
#1476 = ADVANCED_FACE('',(#1477),#1496,.T.);
#1477 = FACE_BOUND('',#1478,.F.);
#1478 = EDGE_LOOP('',(#1479,#1487,#1494,#1495));
#1479 = ORIENTED_EDGE('',*,*,#1480,.T.);
#1480 = EDGE_CURVE('',#1433,#1481,#1483,.T.);
#1481 = VERTEX_POINT('',#1482);
#1482 = CARTESIAN_POINT('',(-5.85,1.,16.));
#1483 = LINE('',#1484,#1485);
#1484 = CARTESIAN_POINT('',(-5.85,1.,14.));
#1485 = VECTOR('',#1486,1.);
#1486 = DIRECTION('',(0.,0.,1.));
#1487 = ORIENTED_EDGE('',*,*,#1488,.T.);
#1488 = EDGE_CURVE('',#1481,#1481,#1489,.T.);
#1489 = CIRCLE('',#1490,0.5);
#1490 = AXIS2_PLACEMENT_3D('',#1491,#1492,#1493);
#1491 = CARTESIAN_POINT('',(-6.35,1.,16.));
#1492 = DIRECTION('',(0.,0.,1.));
#1493 = DIRECTION('',(1.,0.,0.));
#1494 = ORIENTED_EDGE('',*,*,#1480,.F.);
#1495 = ORIENTED_EDGE('',*,*,#1432,.F.);
#1496 = CYLINDRICAL_SURFACE('',#1497,0.5);
#1497 = AXIS2_PLACEMENT_3D('',#1498,#1499,#1500);
#1498 = CARTESIAN_POINT('',(-6.35,1.,14.));
#1499 = DIRECTION('',(-0.,-0.,-1.));
#1500 = DIRECTION('',(1.,0.,0.));
#1501 = ADVANCED_FACE('',(#1502),#1505,.T.);
#1502 = FACE_BOUND('',#1503,.T.);
#1503 = EDGE_LOOP('',(#1504));
#1504 = ORIENTED_EDGE('',*,*,#1488,.T.);
#1505 = PLANE('',#1506);
#1506 = AXIS2_PLACEMENT_3D('',#1507,#1508,#1509);
#1507 = CARTESIAN_POINT('',(-6.35,1.,16.));
#1508 = DIRECTION('',(0.,0.,1.));
#1509 = DIRECTION('',(1.,0.,0.));
#1510 = ( GEOMETRIC_REPRESENTATION_CONTEXT(3) 
GLOBAL_UNCERTAINTY_ASSIGNED_CONTEXT((#1514)) 
GLOBAL_UNIT_ASSIGNED_CONTEXT((#1511,#1512,#1513)) REPRESENTATION_CONTEXT
('Context #1','3D Context with UNIT and UNCERTAINTY') );
#1511 = ( LENGTH_UNIT() NAMED_UNIT(*) SI_UNIT(.MILLI.,.METRE.) );
#1512 = ( NAMED_UNIT(*) PLANE_ANGLE_UNIT() SI_UNIT($,.RADIAN.) );
#1513 = ( NAMED_UNIT(*) SI_UNIT($,.STERADIAN.) SOLID_ANGLE_UNIT() );
#1514 = UNCERTAINTY_MEASURE_WITH_UNIT(LENGTH_MEASURE(1.E-07),#1511,
  'distance_accuracy_value','confusion accuracy');
#1515 = CONTEXT_DEPENDENT_SHAPE_REPRESENTATION(#1516,#1518);
#1516 = ( REPRESENTATION_RELATIONSHIP('','',#1129,#10) 
REPRESENTATION_RELATIONSHIP_WITH_TRANSFORMATION(#1517) 
SHAPE_REPRESENTATION_RELATIONSHIP() );
#1517 = ITEM_DEFINED_TRANSFORMATION('','',#11,#63);
#1518 = PRODUCT_DEFINITION_SHAPE('Placement','Placement of an item',
  #1519);
#1519 = NEXT_ASSEMBLY_USAGE_OCCURRENCE('13','Pad002','',#5,#1124,$);
#1520 = PRODUCT_RELATED_PRODUCT_CATEGORY('part',$,(#1126));
#1521 = SHAPE_DEFINITION_REPRESENTATION(#1522,#1528);
#1522 = PRODUCT_DEFINITION_SHAPE('','',#1523);
#1523 = PRODUCT_DEFINITION('design','',#1524,#1527);
#1524 = PRODUCT_DEFINITION_FORMATION('','',#1525);
#1525 = PRODUCT('Sketch003','Sketch003','',(#1526));
#1526 = PRODUCT_CONTEXT('',#2,'mechanical');
#1527 = PRODUCT_DEFINITION_CONTEXT('part definition',#2,'design');
#1528 = GEOMETRICALLY_BOUNDED_WIREFRAME_SHAPE_REPRESENTATION('',(#11,
    #1529),#1538);
#1529 = GEOMETRIC_CURVE_SET('',(#1530));
#1530 = TRIMMED_CURVE('',#1531,(#1536,PARAMETER_VALUE(0.)),(#1537,
    PARAMETER_VALUE(6.28318530718)),.T.,.PARAMETER.);
#1531 = CIRCLE('',#1532,0.5);
#1532 = AXIS2_PLACEMENT_3D('',#1533,#1534,#1535);
#1533 = CARTESIAN_POINT('',(6.35,1.,0.));
#1534 = DIRECTION('',(0.,0.,1.));
#1535 = DIRECTION('',(1.,0.,0.));
#1536 = CARTESIAN_POINT('',(6.85,1.,0.));
#1537 = CARTESIAN_POINT('',(6.85,1.,0.));
#1538 = ( GEOMETRIC_REPRESENTATION_CONTEXT(3) 
GLOBAL_UNCERTAINTY_ASSIGNED_CONTEXT((#1542)) 
GLOBAL_UNIT_ASSIGNED_CONTEXT((#1539,#1540,#1541)) REPRESENTATION_CONTEXT
('Context #1','3D Context with UNIT and UNCERTAINTY') );
#1539 = ( LENGTH_UNIT() NAMED_UNIT(*) SI_UNIT(.MILLI.,.METRE.) );
#1540 = ( NAMED_UNIT(*) PLANE_ANGLE_UNIT() SI_UNIT($,.RADIAN.) );
#1541 = ( NAMED_UNIT(*) SI_UNIT($,.STERADIAN.) SOLID_ANGLE_UNIT() );
#1542 = UNCERTAINTY_MEASURE_WITH_UNIT(LENGTH_MEASURE(1.E-07),#1539,
  'distance_accuracy_value','confusion accuracy');
#1543 = CONTEXT_DEPENDENT_SHAPE_REPRESENTATION(#1544,#1546);
#1544 = ( REPRESENTATION_RELATIONSHIP('','',#1528,#10) 
REPRESENTATION_RELATIONSHIP_WITH_TRANSFORMATION(#1545) 
SHAPE_REPRESENTATION_RELATIONSHIP() );
#1545 = ITEM_DEFINED_TRANSFORMATION('','',#11,#67);
#1546 = PRODUCT_DEFINITION_SHAPE('Placement','Placement of an item',
  #1547);
#1547 = NEXT_ASSEMBLY_USAGE_OCCURRENCE('14','Sketch003','',#5,#1523,$);
#1548 = PRODUCT_RELATED_PRODUCT_CATEGORY('part',$,(#1525));
#1549 = SHAPE_DEFINITION_REPRESENTATION(#1550,#1556);
#1550 = PRODUCT_DEFINITION_SHAPE('','',#1551);
#1551 = PRODUCT_DEFINITION('design','',#1552,#1555);
#1552 = PRODUCT_DEFINITION_FORMATION('','',#1553);
#1553 = PRODUCT('Pad003','Pad003','',(#1554));
#1554 = PRODUCT_CONTEXT('',#2,'mechanical');
#1555 = PRODUCT_DEFINITION_CONTEXT('part definition',#2,'design');
#1556 = ADVANCED_BREP_SHAPE_REPRESENTATION('',(#11,#1557),#1982);
#1557 = MANIFOLD_SOLID_BREP('',#1558);
#1558 = CLOSED_SHELL('',(#1559,#1646,#1678,#1693,#1716,#1731,#1754,#1769
    ,#1778,#1811,#1835,#1883,#1902,#1914,#1939,#1964,#1973));
#1559 = ADVANCED_FACE('',(#1560),#1641,.T.);
#1560 = FACE_BOUND('',#1561,.F.);
#1561 = EDGE_LOOP('',(#1562,#1573,#1581,#1588,#1589,#1598,#1607,#1616,
    #1625,#1634));
#1562 = ORIENTED_EDGE('',*,*,#1563,.F.);
#1563 = EDGE_CURVE('',#1564,#1566,#1568,.T.);
#1564 = VERTEX_POINT('',#1565);
#1565 = CARTESIAN_POINT('',(6.982521846168,1.605208188593E-15,7.229215)
  );
#1566 = VERTEX_POINT('',#1567);
#1567 = CARTESIAN_POINT('',(2.29473897653,1.554312234475E-15,14.));
#1568 = CIRCLE('',#1569,7.233572846168);
#1569 = AXIS2_PLACEMENT_3D('',#1570,#1571,#1572);
#1570 = CARTESIAN_POINT('',(-0.251051,1.605208188593E-15,7.229215));
#1571 = DIRECTION('',(0.,-1.,2.22044604925E-16));
#1572 = DIRECTION('',(1.,0.,0.));
#1573 = ORIENTED_EDGE('',*,*,#1574,.T.);
#1574 = EDGE_CURVE('',#1564,#1575,#1577,.T.);
#1575 = VERTEX_POINT('',#1576);
#1576 = CARTESIAN_POINT('',(6.982521846168,-10.,7.229215));
#1577 = LINE('',#1578,#1579);
#1578 = CARTESIAN_POINT('',(6.982521846168,1.605208188593E-15,7.229215)
  );
#1579 = VECTOR('',#1580,1.);
#1580 = DIRECTION('',(0.,-1.,2.22044604925E-16));
#1581 = ORIENTED_EDGE('',*,*,#1582,.T.);
#1582 = EDGE_CURVE('',#1575,#1575,#1583,.T.);
#1583 = CIRCLE('',#1584,7.233572846168);
#1584 = AXIS2_PLACEMENT_3D('',#1585,#1586,#1587);
#1585 = CARTESIAN_POINT('',(-0.251051,-10.,7.229215));
#1586 = DIRECTION('',(0.,-1.,2.22044604925E-16));
#1587 = DIRECTION('',(1.,0.,0.));
#1588 = ORIENTED_EDGE('',*,*,#1574,.F.);
#1589 = ORIENTED_EDGE('',*,*,#1590,.F.);
#1590 = EDGE_CURVE('',#1591,#1564,#1593,.T.);
#1591 = VERTEX_POINT('',#1592);
#1592 = CARTESIAN_POINT('',(-4.32542890394E-13,-1.676329423595E-30,
    -7.549516567451E-15));
#1593 = CIRCLE('',#1594,7.233572846168);
#1594 = AXIS2_PLACEMENT_3D('',#1595,#1596,#1597);
#1595 = CARTESIAN_POINT('',(-0.251051,1.605208188593E-15,7.229215));
#1596 = DIRECTION('',(0.,-1.,2.22044604925E-16));
#1597 = DIRECTION('',(1.,0.,0.));
#1598 = ORIENTED_EDGE('',*,*,#1599,.F.);
#1599 = EDGE_CURVE('',#1600,#1591,#1602,.T.);
#1600 = VERTEX_POINT('',#1601);
#1601 = CARTESIAN_POINT('',(-0.502102,1.380506584137E-30,
    6.217248937901E-15));
#1602 = CIRCLE('',#1603,7.233572846168);
#1603 = AXIS2_PLACEMENT_3D('',#1604,#1605,#1606);
#1604 = CARTESIAN_POINT('',(-0.251051,1.605208188593E-15,7.229215));
#1605 = DIRECTION('',(0.,-1.,2.22044604925E-16));
#1606 = DIRECTION('',(1.,0.,0.));
#1607 = ORIENTED_EDGE('',*,*,#1608,.F.);
#1608 = EDGE_CURVE('',#1609,#1600,#1611,.T.);
#1609 = VERTEX_POINT('',#1610);
#1610 = CARTESIAN_POINT('',(-7.,5.13599083218E-16,4.626089279596));
#1611 = CIRCLE('',#1612,7.233572846168);
#1612 = AXIS2_PLACEMENT_3D('',#1613,#1614,#1615);
#1613 = CARTESIAN_POINT('',(-0.251051,1.605208188593E-15,7.229215));
#1614 = DIRECTION('',(0.,-1.,2.22044604925E-16));
#1615 = DIRECTION('',(1.,0.,0.));
#1616 = ORIENTED_EDGE('',*,*,#1617,.F.);
#1617 = EDGE_CURVE('',#1618,#1609,#1620,.T.);
#1618 = VERTEX_POINT('',#1619);
#1619 = CARTESIAN_POINT('',(-7.,1.091609105375E-15,9.832340720404));
#1620 = CIRCLE('',#1621,7.233572846168);
#1621 = AXIS2_PLACEMENT_3D('',#1622,#1623,#1624);
#1622 = CARTESIAN_POINT('',(-0.251051,1.605208188593E-15,7.229215));
#1623 = DIRECTION('',(0.,-1.,2.22044604925E-16));
#1624 = DIRECTION('',(1.,0.,0.));
#1625 = ORIENTED_EDGE('',*,*,#1626,.F.);
#1626 = EDGE_CURVE('',#1627,#1618,#1629,.T.);
#1627 = VERTEX_POINT('',#1628);
#1628 = CARTESIAN_POINT('',(-2.79684097653,1.554312234475E-15,14.));
#1629 = CIRCLE('',#1630,7.233572846168);
#1630 = AXIS2_PLACEMENT_3D('',#1631,#1632,#1633);
#1631 = CARTESIAN_POINT('',(-0.251051,1.605208188593E-15,7.229215));
#1632 = DIRECTION('',(0.,-1.,2.22044604925E-16));
#1633 = DIRECTION('',(1.,0.,0.));
#1634 = ORIENTED_EDGE('',*,*,#1635,.F.);
#1635 = EDGE_CURVE('',#1566,#1627,#1636,.T.);
#1636 = CIRCLE('',#1637,7.233572846168);
#1637 = AXIS2_PLACEMENT_3D('',#1638,#1639,#1640);
#1638 = CARTESIAN_POINT('',(-0.251051,1.605208188593E-15,7.229215));
#1639 = DIRECTION('',(0.,-1.,2.22044604925E-16));
#1640 = DIRECTION('',(1.,0.,0.));
#1641 = CYLINDRICAL_SURFACE('',#1642,7.233572846168);
#1642 = AXIS2_PLACEMENT_3D('',#1643,#1644,#1645);
#1643 = CARTESIAN_POINT('',(-0.251051,1.605208188593E-15,7.229215));
#1644 = DIRECTION('',(0.,1.,-2.22044604925E-16));
#1645 = DIRECTION('',(1.,0.,0.));
#1646 = ADVANCED_FACE('',(#1647),#1673,.F.);
#1647 = FACE_BOUND('',#1648,.F.);
#1648 = EDGE_LOOP('',(#1649,#1657,#1658,#1659,#1667));
#1649 = ORIENTED_EDGE('',*,*,#1650,.F.);
#1650 = EDGE_CURVE('',#1591,#1651,#1653,.T.);
#1651 = VERTEX_POINT('',#1652);
#1652 = CARTESIAN_POINT('',(7.,0.,0.));
#1653 = LINE('',#1654,#1655);
#1654 = CARTESIAN_POINT('',(-7.,0.,0.));
#1655 = VECTOR('',#1656,1.);
#1656 = DIRECTION('',(1.,0.,0.));
#1657 = ORIENTED_EDGE('',*,*,#1590,.T.);
#1658 = ORIENTED_EDGE('',*,*,#1563,.T.);
#1659 = ORIENTED_EDGE('',*,*,#1660,.T.);
#1660 = EDGE_CURVE('',#1566,#1661,#1663,.T.);
#1661 = VERTEX_POINT('',#1662);
#1662 = CARTESIAN_POINT('',(7.,0.,14.));
#1663 = LINE('',#1664,#1665);
#1664 = CARTESIAN_POINT('',(-7.,0.,14.));
#1665 = VECTOR('',#1666,1.);
#1666 = DIRECTION('',(1.,0.,0.));
#1667 = ORIENTED_EDGE('',*,*,#1668,.F.);
#1668 = EDGE_CURVE('',#1651,#1661,#1669,.T.);
#1669 = LINE('',#1670,#1671);
#1670 = CARTESIAN_POINT('',(7.,0.,0.));
#1671 = VECTOR('',#1672,1.);
#1672 = DIRECTION('',(0.,0.,1.));
#1673 = PLANE('',#1674);
#1674 = AXIS2_PLACEMENT_3D('',#1675,#1676,#1677);
#1675 = CARTESIAN_POINT('',(-7.,0.,0.));
#1676 = DIRECTION('',(0.,1.,0.));
#1677 = DIRECTION('',(1.,0.,0.));
#1678 = ADVANCED_FACE('',(#1679),#1688,.T.);
#1679 = FACE_BOUND('',#1680,.T.);
#1680 = EDGE_LOOP('',(#1681,#1682));
#1681 = ORIENTED_EDGE('',*,*,#1635,.F.);
#1682 = ORIENTED_EDGE('',*,*,#1683,.F.);
#1683 = EDGE_CURVE('',#1627,#1566,#1684,.T.);
#1684 = LINE('',#1685,#1686);
#1685 = CARTESIAN_POINT('',(-7.,0.,14.));
#1686 = VECTOR('',#1687,1.);
#1687 = DIRECTION('',(1.,0.,0.));
#1688 = PLANE('',#1689);
#1689 = AXIS2_PLACEMENT_3D('',#1690,#1691,#1692);
#1690 = CARTESIAN_POINT('',(-0.251051,1.605208188593E-15,7.229215));
#1691 = DIRECTION('',(0.,1.,0.));
#1692 = DIRECTION('',(0.,0.,1.));
#1693 = ADVANCED_FACE('',(#1694),#1711,.F.);
#1694 = FACE_BOUND('',#1695,.F.);
#1695 = EDGE_LOOP('',(#1696,#1697,#1705));
#1696 = ORIENTED_EDGE('',*,*,#1626,.T.);
#1697 = ORIENTED_EDGE('',*,*,#1698,.T.);
#1698 = EDGE_CURVE('',#1618,#1699,#1701,.T.);
#1699 = VERTEX_POINT('',#1700);
#1700 = CARTESIAN_POINT('',(-7.,0.,14.));
#1701 = LINE('',#1702,#1703);
#1702 = CARTESIAN_POINT('',(-7.,0.,0.));
#1703 = VECTOR('',#1704,1.);
#1704 = DIRECTION('',(0.,0.,1.));
#1705 = ORIENTED_EDGE('',*,*,#1706,.T.);
#1706 = EDGE_CURVE('',#1699,#1627,#1707,.T.);
#1707 = LINE('',#1708,#1709);
#1708 = CARTESIAN_POINT('',(-7.,0.,14.));
#1709 = VECTOR('',#1710,1.);
#1710 = DIRECTION('',(1.,0.,0.));
#1711 = PLANE('',#1712);
#1712 = AXIS2_PLACEMENT_3D('',#1713,#1714,#1715);
#1713 = CARTESIAN_POINT('',(-7.,0.,0.));
#1714 = DIRECTION('',(0.,1.,0.));
#1715 = DIRECTION('',(1.,0.,0.));
#1716 = ADVANCED_FACE('',(#1717),#1726,.T.);
#1717 = FACE_BOUND('',#1718,.T.);
#1718 = EDGE_LOOP('',(#1719,#1720));
#1719 = ORIENTED_EDGE('',*,*,#1617,.F.);
#1720 = ORIENTED_EDGE('',*,*,#1721,.F.);
#1721 = EDGE_CURVE('',#1609,#1618,#1722,.T.);
#1722 = LINE('',#1723,#1724);
#1723 = CARTESIAN_POINT('',(-7.,0.,0.));
#1724 = VECTOR('',#1725,1.);
#1725 = DIRECTION('',(0.,0.,1.));
#1726 = PLANE('',#1727);
#1727 = AXIS2_PLACEMENT_3D('',#1728,#1729,#1730);
#1728 = CARTESIAN_POINT('',(-0.251051,1.605208188593E-15,7.229215));
#1729 = DIRECTION('',(0.,1.,0.));
#1730 = DIRECTION('',(0.,0.,1.));
#1731 = ADVANCED_FACE('',(#1732),#1749,.F.);
#1732 = FACE_BOUND('',#1733,.F.);
#1733 = EDGE_LOOP('',(#1734,#1742,#1748));
#1734 = ORIENTED_EDGE('',*,*,#1735,.F.);
#1735 = EDGE_CURVE('',#1736,#1600,#1738,.T.);
#1736 = VERTEX_POINT('',#1737);
#1737 = CARTESIAN_POINT('',(-7.,0.,0.));
#1738 = LINE('',#1739,#1740);
#1739 = CARTESIAN_POINT('',(-7.,0.,0.));
#1740 = VECTOR('',#1741,1.);
#1741 = DIRECTION('',(1.,0.,0.));
#1742 = ORIENTED_EDGE('',*,*,#1743,.T.);
#1743 = EDGE_CURVE('',#1736,#1609,#1744,.T.);
#1744 = LINE('',#1745,#1746);
#1745 = CARTESIAN_POINT('',(-7.,0.,0.));
#1746 = VECTOR('',#1747,1.);
#1747 = DIRECTION('',(0.,0.,1.));
#1748 = ORIENTED_EDGE('',*,*,#1608,.T.);
#1749 = PLANE('',#1750);
#1750 = AXIS2_PLACEMENT_3D('',#1751,#1752,#1753);
#1751 = CARTESIAN_POINT('',(-7.,0.,0.));
#1752 = DIRECTION('',(0.,1.,0.));
#1753 = DIRECTION('',(1.,0.,0.));
#1754 = ADVANCED_FACE('',(#1755),#1764,.T.);
#1755 = FACE_BOUND('',#1756,.T.);
#1756 = EDGE_LOOP('',(#1757,#1763));
#1757 = ORIENTED_EDGE('',*,*,#1758,.T.);
#1758 = EDGE_CURVE('',#1600,#1591,#1759,.T.);
#1759 = LINE('',#1760,#1761);
#1760 = CARTESIAN_POINT('',(-7.,0.,0.));
#1761 = VECTOR('',#1762,1.);
#1762 = DIRECTION('',(1.,0.,0.));
#1763 = ORIENTED_EDGE('',*,*,#1599,.F.);
#1764 = PLANE('',#1765);
#1765 = AXIS2_PLACEMENT_3D('',#1766,#1767,#1768);
#1766 = CARTESIAN_POINT('',(-0.251051,1.605208188593E-15,7.229215));
#1767 = DIRECTION('',(0.,1.,0.));
#1768 = DIRECTION('',(0.,0.,1.));
#1769 = ADVANCED_FACE('',(#1770),#1773,.F.);
#1770 = FACE_BOUND('',#1771,.T.);
#1771 = EDGE_LOOP('',(#1772));
#1772 = ORIENTED_EDGE('',*,*,#1582,.T.);
#1773 = PLANE('',#1774);
#1774 = AXIS2_PLACEMENT_3D('',#1775,#1776,#1777);
#1775 = CARTESIAN_POINT('',(-0.251051,-10.,7.229215));
#1776 = DIRECTION('',(0.,1.,0.));
#1777 = DIRECTION('',(0.,0.,1.));
#1778 = ADVANCED_FACE('',(#1779),#1806,.F.);
#1779 = FACE_BOUND('',#1780,.F.);
#1780 = EDGE_LOOP('',(#1781,#1782,#1783,#1784,#1792,#1800));
#1781 = ORIENTED_EDGE('',*,*,#1735,.T.);
#1782 = ORIENTED_EDGE('',*,*,#1758,.T.);
#1783 = ORIENTED_EDGE('',*,*,#1650,.T.);
#1784 = ORIENTED_EDGE('',*,*,#1785,.T.);
#1785 = EDGE_CURVE('',#1651,#1786,#1788,.T.);
#1786 = VERTEX_POINT('',#1787);
#1787 = CARTESIAN_POINT('',(7.,2.,0.));
#1788 = LINE('',#1789,#1790);
#1789 = CARTESIAN_POINT('',(7.,0.,0.));
#1790 = VECTOR('',#1791,1.);
#1791 = DIRECTION('',(0.,1.,0.));
#1792 = ORIENTED_EDGE('',*,*,#1793,.T.);
#1793 = EDGE_CURVE('',#1786,#1794,#1796,.T.);
#1794 = VERTEX_POINT('',#1795);
#1795 = CARTESIAN_POINT('',(-7.,2.,0.));
#1796 = LINE('',#1797,#1798);
#1797 = CARTESIAN_POINT('',(7.,2.,0.));
#1798 = VECTOR('',#1799,1.);
#1799 = DIRECTION('',(-1.,0.,0.));
#1800 = ORIENTED_EDGE('',*,*,#1801,.T.);
#1801 = EDGE_CURVE('',#1794,#1736,#1802,.T.);
#1802 = LINE('',#1803,#1804);
#1803 = CARTESIAN_POINT('',(-7.,2.,0.));
#1804 = VECTOR('',#1805,1.);
#1805 = DIRECTION('',(0.,-1.,0.));
#1806 = PLANE('',#1807);
#1807 = AXIS2_PLACEMENT_3D('',#1808,#1809,#1810);
#1808 = CARTESIAN_POINT('',(0.,1.,0.));
#1809 = DIRECTION('',(0.,0.,1.));
#1810 = DIRECTION('',(1.,0.,0.));
#1811 = ADVANCED_FACE('',(#1812),#1830,.F.);
#1812 = FACE_BOUND('',#1813,.F.);
#1813 = EDGE_LOOP('',(#1814,#1815,#1823,#1829));
#1814 = ORIENTED_EDGE('',*,*,#1668,.T.);
#1815 = ORIENTED_EDGE('',*,*,#1816,.T.);
#1816 = EDGE_CURVE('',#1661,#1817,#1819,.T.);
#1817 = VERTEX_POINT('',#1818);
#1818 = CARTESIAN_POINT('',(7.,2.,14.));
#1819 = LINE('',#1820,#1821);
#1820 = CARTESIAN_POINT('',(7.,0.,14.));
#1821 = VECTOR('',#1822,1.);
#1822 = DIRECTION('',(0.,1.,0.));
#1823 = ORIENTED_EDGE('',*,*,#1824,.F.);
#1824 = EDGE_CURVE('',#1786,#1817,#1825,.T.);
#1825 = LINE('',#1826,#1827);
#1826 = CARTESIAN_POINT('',(7.,2.,0.));
#1827 = VECTOR('',#1828,1.);
#1828 = DIRECTION('',(0.,0.,1.));
#1829 = ORIENTED_EDGE('',*,*,#1785,.F.);
#1830 = PLANE('',#1831);
#1831 = AXIS2_PLACEMENT_3D('',#1832,#1833,#1834);
#1832 = CARTESIAN_POINT('',(7.,0.,0.));
#1833 = DIRECTION('',(-1.,0.,0.));
#1834 = DIRECTION('',(0.,1.,0.));
#1835 = ADVANCED_FACE('',(#1836,#1856,#1867),#1878,.T.);
#1836 = FACE_BOUND('',#1837,.T.);
#1837 = EDGE_LOOP('',(#1838,#1839,#1840,#1841,#1842,#1850));
#1838 = ORIENTED_EDGE('',*,*,#1706,.T.);
#1839 = ORIENTED_EDGE('',*,*,#1683,.T.);
#1840 = ORIENTED_EDGE('',*,*,#1660,.T.);
#1841 = ORIENTED_EDGE('',*,*,#1816,.T.);
#1842 = ORIENTED_EDGE('',*,*,#1843,.T.);
#1843 = EDGE_CURVE('',#1817,#1844,#1846,.T.);
#1844 = VERTEX_POINT('',#1845);
#1845 = CARTESIAN_POINT('',(-7.,2.,14.));
#1846 = LINE('',#1847,#1848);
#1847 = CARTESIAN_POINT('',(7.,2.,14.));
#1848 = VECTOR('',#1849,1.);
#1849 = DIRECTION('',(-1.,0.,0.));
#1850 = ORIENTED_EDGE('',*,*,#1851,.T.);
#1851 = EDGE_CURVE('',#1844,#1699,#1852,.T.);
#1852 = LINE('',#1853,#1854);
#1853 = CARTESIAN_POINT('',(-7.,2.,14.));
#1854 = VECTOR('',#1855,1.);
#1855 = DIRECTION('',(0.,-1.,0.));
#1856 = FACE_BOUND('',#1857,.T.);
#1857 = EDGE_LOOP('',(#1858));
#1858 = ORIENTED_EDGE('',*,*,#1859,.F.);
#1859 = EDGE_CURVE('',#1860,#1860,#1862,.T.);
#1860 = VERTEX_POINT('',#1861);
#1861 = CARTESIAN_POINT('',(-5.85,1.,14.));
#1862 = CIRCLE('',#1863,0.5);
#1863 = AXIS2_PLACEMENT_3D('',#1864,#1865,#1866);
#1864 = CARTESIAN_POINT('',(-6.35,1.,14.));
#1865 = DIRECTION('',(0.,0.,1.));
#1866 = DIRECTION('',(1.,0.,0.));
#1867 = FACE_BOUND('',#1868,.T.);
#1868 = EDGE_LOOP('',(#1869));
#1869 = ORIENTED_EDGE('',*,*,#1870,.F.);
#1870 = EDGE_CURVE('',#1871,#1871,#1873,.T.);
#1871 = VERTEX_POINT('',#1872);
#1872 = CARTESIAN_POINT('',(6.85,1.,14.));
#1873 = CIRCLE('',#1874,0.5);
#1874 = AXIS2_PLACEMENT_3D('',#1875,#1876,#1877);
#1875 = CARTESIAN_POINT('',(6.35,1.,14.));
#1876 = DIRECTION('',(0.,0.,1.));
#1877 = DIRECTION('',(1.,0.,0.));
#1878 = PLANE('',#1879);
#1879 = AXIS2_PLACEMENT_3D('',#1880,#1881,#1882);
#1880 = CARTESIAN_POINT('',(0.,1.,14.));
#1881 = DIRECTION('',(0.,0.,1.));
#1882 = DIRECTION('',(1.,0.,0.));
#1883 = ADVANCED_FACE('',(#1884),#1897,.F.);
#1884 = FACE_BOUND('',#1885,.F.);
#1885 = EDGE_LOOP('',(#1886,#1892,#1893,#1894,#1895,#1896));
#1886 = ORIENTED_EDGE('',*,*,#1887,.T.);
#1887 = EDGE_CURVE('',#1794,#1844,#1888,.T.);
#1888 = LINE('',#1889,#1890);
#1889 = CARTESIAN_POINT('',(-7.,2.,0.));
#1890 = VECTOR('',#1891,1.);
#1891 = DIRECTION('',(0.,0.,1.));
#1892 = ORIENTED_EDGE('',*,*,#1851,.T.);
#1893 = ORIENTED_EDGE('',*,*,#1698,.F.);
#1894 = ORIENTED_EDGE('',*,*,#1721,.F.);
#1895 = ORIENTED_EDGE('',*,*,#1743,.F.);
#1896 = ORIENTED_EDGE('',*,*,#1801,.F.);
#1897 = PLANE('',#1898);
#1898 = AXIS2_PLACEMENT_3D('',#1899,#1900,#1901);
#1899 = CARTESIAN_POINT('',(-7.,2.,0.));
#1900 = DIRECTION('',(1.,0.,0.));
#1901 = DIRECTION('',(0.,-1.,0.));
#1902 = ADVANCED_FACE('',(#1903),#1909,.F.);
#1903 = FACE_BOUND('',#1904,.F.);
#1904 = EDGE_LOOP('',(#1905,#1906,#1907,#1908));
#1905 = ORIENTED_EDGE('',*,*,#1824,.T.);
#1906 = ORIENTED_EDGE('',*,*,#1843,.T.);
#1907 = ORIENTED_EDGE('',*,*,#1887,.F.);
#1908 = ORIENTED_EDGE('',*,*,#1793,.F.);
#1909 = PLANE('',#1910);
#1910 = AXIS2_PLACEMENT_3D('',#1911,#1912,#1913);
#1911 = CARTESIAN_POINT('',(7.,2.,0.));
#1912 = DIRECTION('',(0.,-1.,0.));
#1913 = DIRECTION('',(-1.,0.,0.));
#1914 = ADVANCED_FACE('',(#1915),#1934,.T.);
#1915 = FACE_BOUND('',#1916,.F.);
#1916 = EDGE_LOOP('',(#1917,#1925,#1932,#1933));
#1917 = ORIENTED_EDGE('',*,*,#1918,.T.);
#1918 = EDGE_CURVE('',#1860,#1919,#1921,.T.);
#1919 = VERTEX_POINT('',#1920);
#1920 = CARTESIAN_POINT('',(-5.85,1.,16.));
#1921 = LINE('',#1922,#1923);
#1922 = CARTESIAN_POINT('',(-5.85,1.,14.));
#1923 = VECTOR('',#1924,1.);
#1924 = DIRECTION('',(0.,0.,1.));
#1925 = ORIENTED_EDGE('',*,*,#1926,.T.);
#1926 = EDGE_CURVE('',#1919,#1919,#1927,.T.);
#1927 = CIRCLE('',#1928,0.5);
#1928 = AXIS2_PLACEMENT_3D('',#1929,#1930,#1931);
#1929 = CARTESIAN_POINT('',(-6.35,1.,16.));
#1930 = DIRECTION('',(0.,0.,1.));
#1931 = DIRECTION('',(1.,0.,0.));
#1932 = ORIENTED_EDGE('',*,*,#1918,.F.);
#1933 = ORIENTED_EDGE('',*,*,#1859,.F.);
#1934 = CYLINDRICAL_SURFACE('',#1935,0.5);
#1935 = AXIS2_PLACEMENT_3D('',#1936,#1937,#1938);
#1936 = CARTESIAN_POINT('',(-6.35,1.,14.));
#1937 = DIRECTION('',(-0.,-0.,-1.));
#1938 = DIRECTION('',(1.,0.,0.));
#1939 = ADVANCED_FACE('',(#1940),#1959,.T.);
#1940 = FACE_BOUND('',#1941,.F.);
#1941 = EDGE_LOOP('',(#1942,#1950,#1957,#1958));
#1942 = ORIENTED_EDGE('',*,*,#1943,.T.);
#1943 = EDGE_CURVE('',#1871,#1944,#1946,.T.);
#1944 = VERTEX_POINT('',#1945);
#1945 = CARTESIAN_POINT('',(6.85,1.,16.));
#1946 = LINE('',#1947,#1948);
#1947 = CARTESIAN_POINT('',(6.85,1.,14.));
#1948 = VECTOR('',#1949,1.);
#1949 = DIRECTION('',(0.,0.,1.));
#1950 = ORIENTED_EDGE('',*,*,#1951,.T.);
#1951 = EDGE_CURVE('',#1944,#1944,#1952,.T.);
#1952 = CIRCLE('',#1953,0.5);
#1953 = AXIS2_PLACEMENT_3D('',#1954,#1955,#1956);
#1954 = CARTESIAN_POINT('',(6.35,1.,16.));
#1955 = DIRECTION('',(0.,0.,1.));
#1956 = DIRECTION('',(1.,0.,0.));
#1957 = ORIENTED_EDGE('',*,*,#1943,.F.);
#1958 = ORIENTED_EDGE('',*,*,#1870,.F.);
#1959 = CYLINDRICAL_SURFACE('',#1960,0.5);
#1960 = AXIS2_PLACEMENT_3D('',#1961,#1962,#1963);
#1961 = CARTESIAN_POINT('',(6.35,1.,14.));
#1962 = DIRECTION('',(-0.,-0.,-1.));
#1963 = DIRECTION('',(1.,0.,0.));
#1964 = ADVANCED_FACE('',(#1965),#1968,.T.);
#1965 = FACE_BOUND('',#1966,.T.);
#1966 = EDGE_LOOP('',(#1967));
#1967 = ORIENTED_EDGE('',*,*,#1926,.T.);
#1968 = PLANE('',#1969);
#1969 = AXIS2_PLACEMENT_3D('',#1970,#1971,#1972);
#1970 = CARTESIAN_POINT('',(-6.35,1.,16.));
#1971 = DIRECTION('',(0.,0.,1.));
#1972 = DIRECTION('',(1.,0.,0.));
#1973 = ADVANCED_FACE('',(#1974),#1977,.T.);
#1974 = FACE_BOUND('',#1975,.T.);
#1975 = EDGE_LOOP('',(#1976));
#1976 = ORIENTED_EDGE('',*,*,#1951,.T.);
#1977 = PLANE('',#1978);
#1978 = AXIS2_PLACEMENT_3D('',#1979,#1980,#1981);
#1979 = CARTESIAN_POINT('',(6.35,1.,16.));
#1980 = DIRECTION('',(0.,0.,1.));
#1981 = DIRECTION('',(1.,0.,0.));
#1982 = ( GEOMETRIC_REPRESENTATION_CONTEXT(3) 
GLOBAL_UNCERTAINTY_ASSIGNED_CONTEXT((#1986)) 
GLOBAL_UNIT_ASSIGNED_CONTEXT((#1983,#1984,#1985)) REPRESENTATION_CONTEXT
('Context #1','3D Context with UNIT and UNCERTAINTY') );
#1983 = ( LENGTH_UNIT() NAMED_UNIT(*) SI_UNIT(.MILLI.,.METRE.) );
#1984 = ( NAMED_UNIT(*) PLANE_ANGLE_UNIT() SI_UNIT($,.RADIAN.) );
#1985 = ( NAMED_UNIT(*) SI_UNIT($,.STERADIAN.) SOLID_ANGLE_UNIT() );
#1986 = UNCERTAINTY_MEASURE_WITH_UNIT(LENGTH_MEASURE(1.E-07),#1983,
  'distance_accuracy_value','confusion accuracy');
#1987 = CONTEXT_DEPENDENT_SHAPE_REPRESENTATION(#1988,#1990);
#1988 = ( REPRESENTATION_RELATIONSHIP('','',#1556,#10) 
REPRESENTATION_RELATIONSHIP_WITH_TRANSFORMATION(#1989) 
SHAPE_REPRESENTATION_RELATIONSHIP() );
#1989 = ITEM_DEFINED_TRANSFORMATION('','',#11,#71);
#1990 = PRODUCT_DEFINITION_SHAPE('Placement','Placement of an item',
  #1991);
#1991 = NEXT_ASSEMBLY_USAGE_OCCURRENCE('15','Pad003','',#5,#1551,$);
#1992 = PRODUCT_RELATED_PRODUCT_CATEGORY('part',$,(#1553));
#1993 = SHAPE_DEFINITION_REPRESENTATION(#1994,#2000);
#1994 = PRODUCT_DEFINITION_SHAPE('','',#1995);
#1995 = PRODUCT_DEFINITION('design','',#1996,#1999);
#1996 = PRODUCT_DEFINITION_FORMATION('','',#1997);
#1997 = PRODUCT('Open CASCADE STEP translator 7.8 1.16',
  'Open CASCADE STEP translator 7.8 1.16','',(#1998));
#1998 = PRODUCT_CONTEXT('',#2,'mechanical');
#1999 = PRODUCT_DEFINITION_CONTEXT('part definition',#2,'design');
#2000 = GEOMETRICALLY_BOUNDED_WIREFRAME_SHAPE_REPRESENTATION('',(#11,
    #2001),#2003);
#2001 = GEOMETRIC_CURVE_SET('',(#2002));
#2002 = CARTESIAN_POINT('',(0.,0.,0.));
#2003 = ( GEOMETRIC_REPRESENTATION_CONTEXT(3) 
GLOBAL_UNCERTAINTY_ASSIGNED_CONTEXT((#2007)) 
GLOBAL_UNIT_ASSIGNED_CONTEXT((#2004,#2005,#2006)) REPRESENTATION_CONTEXT
('Context #1','3D Context with UNIT and UNCERTAINTY') );
#2004 = ( LENGTH_UNIT() NAMED_UNIT(*) SI_UNIT(.MILLI.,.METRE.) );
#2005 = ( NAMED_UNIT(*) PLANE_ANGLE_UNIT() SI_UNIT($,.RADIAN.) );
#2006 = ( NAMED_UNIT(*) SI_UNIT($,.STERADIAN.) SOLID_ANGLE_UNIT() );
#2007 = UNCERTAINTY_MEASURE_WITH_UNIT(LENGTH_MEASURE(1.E-07),#2004,
  'distance_accuracy_value','confusion accuracy');
#2008 = CONTEXT_DEPENDENT_SHAPE_REPRESENTATION(#2009,#2011);
#2009 = ( REPRESENTATION_RELATIONSHIP('','',#2000,#10) 
REPRESENTATION_RELATIONSHIP_WITH_TRANSFORMATION(#2010) 
SHAPE_REPRESENTATION_RELATIONSHIP() );
#2010 = ITEM_DEFINED_TRANSFORMATION('','',#11,#75);
#2011 = PRODUCT_DEFINITION_SHAPE('Placement','Placement of an item',
  #2012);
#2012 = NEXT_ASSEMBLY_USAGE_OCCURRENCE('16','','',#5,#1995,$);
#2013 = PRODUCT_RELATED_PRODUCT_CATEGORY('part',$,(#1997));
#2014 = MECHANICAL_DESIGN_GEOMETRIC_PRESENTATION_REPRESENTATION('',(
    #2015),#729);
#2015 = STYLED_ITEM('color',(#2016),#700);
#2016 = PRESENTATION_STYLE_ASSIGNMENT((#2017,#2025));
#2017 = SURFACE_STYLE_USAGE(.BOTH.,#2018);
#2018 = SURFACE_SIDE_STYLE('',(#2019,#2023));
#2019 = SURFACE_STYLE_FILL_AREA(#2020);
#2020 = FILL_AREA_STYLE('',(#2021));
#2021 = FILL_AREA_STYLE_COLOUR('',#2022);
#2022 = COLOUR_RGB('',0.329411773243,0.670588257465,1.);
#2023 = SURFACE_STYLE_RENDERING_WITH_PROPERTIES(.NORMAL_SHADING.,#2022,(
    #2024));
#2024 = SURFACE_STYLE_TRANSPARENT(0.749019622803);
#2025 = CURVE_STYLE('',#2026,POSITIVE_LENGTH_MEASURE(0.1),#2027);
#2026 = DRAUGHTING_PRE_DEFINED_CURVE_FONT('continuous');
#2027 = COLOUR_RGB('',0.129411774038,0.145098047169,0.160784315601);
#2028 = MECHANICAL_DESIGN_GEOMETRIC_PRESENTATION_REPRESENTATION('',(
    #2029),#1982);
#2029 = STYLED_ITEM('color',(#2030),#1557);
#2030 = PRESENTATION_STYLE_ASSIGNMENT((#2031,#2037));
#2031 = SURFACE_STYLE_USAGE(.BOTH.,#2032);
#2032 = SURFACE_SIDE_STYLE('',(#2033));
#2033 = SURFACE_STYLE_FILL_AREA(#2034);
#2034 = FILL_AREA_STYLE('',(#2035));
#2035 = FILL_AREA_STYLE_COLOUR('',#2036);
#2036 = COLOUR_RGB('',0.678431390124,0.709803936702,0.741176476869);
#2037 = CURVE_STYLE('',#2038,POSITIVE_LENGTH_MEASURE(0.1),#2039);
#2038 = DRAUGHTING_PRE_DEFINED_CURVE_FONT('continuous');
#2039 = COLOUR_RGB('',9.803921802644E-02,9.803921802644E-02,
  9.803921802644E-02);
#2040 = MECHANICAL_DESIGN_GEOMETRIC_PRESENTATION_REPRESENTATION('',(
    #2041),#1510);
#2041 = STYLED_ITEM('color',(#2042),#1130);
#2042 = PRESENTATION_STYLE_ASSIGNMENT((#2043,#2048));
#2043 = SURFACE_STYLE_USAGE(.BOTH.,#2044);
#2044 = SURFACE_SIDE_STYLE('',(#2045));
#2045 = SURFACE_STYLE_FILL_AREA(#2046);
#2046 = FILL_AREA_STYLE('',(#2047));
#2047 = FILL_AREA_STYLE_COLOUR('',#2036);
#2048 = CURVE_STYLE('',#2049,POSITIVE_LENGTH_MEASURE(0.1),#2039);
#2049 = DRAUGHTING_PRE_DEFINED_CURVE_FONT('continuous');
#2050 = MECHANICAL_DESIGN_GEOMETRIC_PRESENTATION_REPRESENTATION('',(
    #2051),#681);
#2051 = STYLED_ITEM('color',(#2052),#628);
#2052 = PRESENTATION_STYLE_ASSIGNMENT((#2053,#2058));
#2053 = SURFACE_STYLE_USAGE(.BOTH.,#2054);
#2054 = SURFACE_SIDE_STYLE('',(#2055));
#2055 = SURFACE_STYLE_FILL_AREA(#2056);
#2056 = FILL_AREA_STYLE('',(#2057));
#2057 = FILL_AREA_STYLE_COLOUR('',#2036);
#2058 = CURVE_STYLE('',#2059,POSITIVE_LENGTH_MEASURE(0.1),#2039);
#2059 = DRAUGHTING_PRE_DEFINED_CURVE_FONT('continuous');
#2060 = MECHANICAL_DESIGN_GEOMETRIC_PRESENTATION_REPRESENTATION('',(
    #2061),#1538);
#2061 = STYLED_ITEM('color',(#2062),#1529);
#2062 = PRESENTATION_STYLE_ASSIGNMENT((#2063,#2070));
#2063 = SURFACE_STYLE_USAGE(.BOTH.,#2064);
#2064 = SURFACE_SIDE_STYLE('',(#2065,#2068));
#2065 = SURFACE_STYLE_FILL_AREA(#2066);
#2066 = FILL_AREA_STYLE('',(#2067));
#2067 = FILL_AREA_STYLE_COLOUR('',#2022);
#2068 = SURFACE_STYLE_RENDERING_WITH_PROPERTIES(.NORMAL_SHADING.,#2022,(
    #2069));
#2069 = SURFACE_STYLE_TRANSPARENT(0.749019622803);
#2070 = CURVE_STYLE('',#2071,POSITIVE_LENGTH_MEASURE(0.1),#2027);
#2071 = DRAUGHTING_PRE_DEFINED_CURVE_FONT('continuous');
#2072 = MECHANICAL_DESIGN_GEOMETRIC_PRESENTATION_REPRESENTATION('',(
    #2073),#609);
#2073 = STYLED_ITEM('color',(#2074),#600);
#2074 = PRESENTATION_STYLE_ASSIGNMENT((#2075,#2082));
#2075 = SURFACE_STYLE_USAGE(.BOTH.,#2076);
#2076 = SURFACE_SIDE_STYLE('',(#2077,#2080));
#2077 = SURFACE_STYLE_FILL_AREA(#2078);
#2078 = FILL_AREA_STYLE('',(#2079));
#2079 = FILL_AREA_STYLE_COLOUR('',#2022);
#2080 = SURFACE_STYLE_RENDERING_WITH_PROPERTIES(.NORMAL_SHADING.,#2022,(
    #2081));
#2081 = SURFACE_STYLE_TRANSPARENT(0.749019622803);
#2082 = CURVE_STYLE('',#2083,POSITIVE_LENGTH_MEASURE(0.1),#2027);
#2083 = DRAUGHTING_PRE_DEFINED_CURVE_FONT('continuous');
#2084 = MECHANICAL_DESIGN_GEOMETRIC_PRESENTATION_REPRESENTATION('',(
    #2085),#518);
#2085 = STYLED_ITEM('color',(#2086),#93);
#2086 = PRESENTATION_STYLE_ASSIGNMENT((#2087,#2092));
#2087 = SURFACE_STYLE_USAGE(.BOTH.,#2088);
#2088 = SURFACE_SIDE_STYLE('',(#2089));
#2089 = SURFACE_STYLE_FILL_AREA(#2090);
#2090 = FILL_AREA_STYLE('',(#2091));
#2091 = FILL_AREA_STYLE_COLOUR('',#2036);
#2092 = CURVE_STYLE('',#2093,POSITIVE_LENGTH_MEASURE(0.1),#2039);
#2093 = DRAUGHTING_PRE_DEFINED_CURVE_FONT('continuous');
#2094 = MECHANICAL_DESIGN_GEOMETRIC_PRESENTATION_REPRESENTATION('',(
    #2095),#1083);
#2095 = STYLED_ITEM('color',(#2096),#748);
#2096 = PRESENTATION_STYLE_ASSIGNMENT((#2097,#2102));
#2097 = SURFACE_STYLE_USAGE(.BOTH.,#2098);
#2098 = SURFACE_SIDE_STYLE('',(#2099));
#2099 = SURFACE_STYLE_FILL_AREA(#2100);
#2100 = FILL_AREA_STYLE('',(#2101));
#2101 = FILL_AREA_STYLE_COLOUR('',#2036);
#2102 = CURVE_STYLE('',#2103,POSITIVE_LENGTH_MEASURE(0.1),#2039);
#2103 = DRAUGHTING_PRE_DEFINED_CURVE_FONT('continuous');
#2104 = MECHANICAL_DESIGN_GEOMETRIC_PRESENTATION_REPRESENTATION('',(
    #2105),#1111);
#2105 = STYLED_ITEM('color',(#2106),#1102);
#2106 = PRESENTATION_STYLE_ASSIGNMENT((#2107,#2114));
#2107 = SURFACE_STYLE_USAGE(.BOTH.,#2108);
#2108 = SURFACE_SIDE_STYLE('',(#2109,#2112));
#2109 = SURFACE_STYLE_FILL_AREA(#2110);
#2110 = FILL_AREA_STYLE('',(#2111));
#2111 = FILL_AREA_STYLE_COLOUR('',#2022);
#2112 = SURFACE_STYLE_RENDERING_WITH_PROPERTIES(.NORMAL_SHADING.,#2022,(
    #2113));
#2113 = SURFACE_STYLE_TRANSPARENT(0.749019622803);
#2114 = CURVE_STYLE('',#2115,POSITIVE_LENGTH_MEASURE(0.1),#2027);
#2115 = DRAUGHTING_PRE_DEFINED_CURVE_FONT('continuous');
ENDSEC;
END-ISO-10303-21;
