ISO-10303-21;
HEADER;
FILE_DESCRIPTION(('FreeCAD Model'),'2;1');
FILE_NAME('Open CASCADE Shape Model','2023-12-26T08:27:05',(
    'kicad StepUp'),('ksu MCAD'),'Open CASCADE STEP processor 7.6',
  'FreeCAD','Unknown');
FILE_SCHEMA(('AUTOMOTIVE_DESIGN { 1 0 10303 214 1 1 1 1 }'));
ENDSEC;
DATA;
#1 = APPLICATION_PROTOCOL_DEFINITION('international standard',
  'automotive_design',2000,#2);
#2 = APPLICATION_CONTEXT(
  'core data for automotive mechanical design processes');
#3 = SHAPE_DEFINITION_REPRESENTATION(#4,#10);
#4 = PRODUCT_DEFINITION_SHAPE('','',#5);
#5 = PRODUCT_DEFINITION('design','',#6,#9);
#6 = PRODUCT_DEFINITION_FORMATION('','',#7);
#7 = PRODUCT('Body','Body','',(#8));
#8 = PRODUCT_CONTEXT('',#2,'mechanical');
#9 = PRODUCT_DEFINITION_CONTEXT('part definition',#2,'design');
#10 = ADVANCED_BREP_SHAPE_REPRESENTATION('',(#11,#15),#442);
#11 = AXIS2_PLACEMENT_3D('',#12,#13,#14);
#12 = CARTESIAN_POINT('',(0.,0.,0.));
#13 = DIRECTION('',(0.,0.,1.));
#14 = DIRECTION('',(1.,0.,-0.));
#15 = MANIFOLD_SOLID_BREP('',#16);
#16 = CLOSED_SHELL('',(#17,#68,#110,#128,#160,#178,#203,#245,#285,#310,
    #343,#378,#396,#408,#433));
#17 = ADVANCED_FACE('',(#18),#63,.F.);
#18 = FACE_BOUND('',#19,.F.);
#19 = EDGE_LOOP('',(#20,#31,#40,#48,#57));
#20 = ORIENTED_EDGE('',*,*,#21,.T.);
#21 = EDGE_CURVE('',#22,#24,#26,.T.);
#22 = VERTEX_POINT('',#23);
#23 = CARTESIAN_POINT('',(-0.94702680195,-2.05200882951,0.));
#24 = VERTEX_POINT('',#25);
#25 = CARTESIAN_POINT('',(2.26,0.,0.));
#26 = CIRCLE('',#27,2.26);
#27 = AXIS2_PLACEMENT_3D('',#28,#29,#30);
#28 = CARTESIAN_POINT('',(0.,0.,0.));
#29 = DIRECTION('',(0.,0.,1.));
#30 = DIRECTION('',(1.,0.,0.));
#31 = ORIENTED_EDGE('',*,*,#32,.T.);
#32 = EDGE_CURVE('',#24,#33,#35,.T.);
#33 = VERTEX_POINT('',#34);
#34 = CARTESIAN_POINT('',(-1.846846648388,-1.30259642919,0.));
#35 = CIRCLE('',#36,2.26);
#36 = AXIS2_PLACEMENT_3D('',#37,#38,#39);
#37 = CARTESIAN_POINT('',(0.,0.,0.));
#38 = DIRECTION('',(0.,0.,1.));
#39 = DIRECTION('',(1.,0.,0.));
#40 = ORIENTED_EDGE('',*,*,#41,.F.);
#41 = EDGE_CURVE('',#42,#33,#44,.T.);
#42 = VERTEX_POINT('',#43);
#43 = CARTESIAN_POINT('',(-0.449909923219,0.37470620016,0.));
#44 = LINE('',#45,#46);
#45 = CARTESIAN_POINT('',(-0.449909923219,0.37470620016,0.));
#46 = VECTOR('',#47,1.);
#47 = DIRECTION('',(-0.639963899371,-0.768404976234,0.));
#48 = ORIENTED_EDGE('',*,*,#49,.F.);
#49 = EDGE_CURVE('',#50,#42,#52,.T.);
#50 = VERTEX_POINT('',#51);
#51 = CARTESIAN_POINT('',(0.449909923219,-0.37470620016,0.));
#52 = CIRCLE('',#53,0.585511464832);
#53 = AXIS2_PLACEMENT_3D('',#54,#55,#56);
#54 = CARTESIAN_POINT('',(0.,0.,0.));
#55 = DIRECTION('',(0.,0.,1.));
#56 = DIRECTION('',(1.,0.,0.));
#57 = ORIENTED_EDGE('',*,*,#58,.F.);
#58 = EDGE_CURVE('',#22,#50,#59,.T.);
#59 = LINE('',#60,#61);
#60 = CARTESIAN_POINT('',(-1.582668001526,-2.815223537925,0.));
#61 = VECTOR('',#62,1.);
#62 = DIRECTION('',(0.639963899371,0.768404976234,0.));
#63 = PLANE('',#64);
#64 = AXIS2_PLACEMENT_3D('',#65,#66,#67);
#65 = CARTESIAN_POINT('',(-1.512655013871E-16,-1.662397484222E-17,0.));
#66 = DIRECTION('',(0.,0.,1.));
#67 = DIRECTION('',(1.,0.,0.));
#68 = ADVANCED_FACE('',(#69),#105,.F.);
#69 = FACE_BOUND('',#70,.F.);
#70 = EDGE_LOOP('',(#71,#82,#91,#97,#98,#99));
#71 = ORIENTED_EDGE('',*,*,#72,.T.);
#72 = EDGE_CURVE('',#73,#75,#77,.T.);
#73 = VERTEX_POINT('',#74);
#74 = CARTESIAN_POINT('',(-1.184390023788,-2.337010969498,0.));
#75 = VERTEX_POINT('',#76);
#76 = CARTESIAN_POINT('',(2.62,0.,0.));
#77 = CIRCLE('',#78,2.62);
#78 = AXIS2_PLACEMENT_3D('',#79,#80,#81);
#79 = CARTESIAN_POINT('',(0.,0.,0.));
#80 = DIRECTION('',(0.,0.,1.));
#81 = DIRECTION('',(1.,0.,0.));
#82 = ORIENTED_EDGE('',*,*,#83,.T.);
#83 = EDGE_CURVE('',#75,#84,#86,.T.);
#84 = VERTEX_POINT('',#85);
#85 = CARTESIAN_POINT('',(-2.084209870226,-1.587598569177,0.));
#86 = CIRCLE('',#87,2.62);
#87 = AXIS2_PLACEMENT_3D('',#88,#89,#90);
#88 = CARTESIAN_POINT('',(0.,0.,0.));
#89 = DIRECTION('',(0.,0.,1.));
#90 = DIRECTION('',(1.,0.,0.));
#91 = ORIENTED_EDGE('',*,*,#92,.F.);
#92 = EDGE_CURVE('',#33,#84,#93,.T.);
#93 = LINE('',#94,#95);
#94 = CARTESIAN_POINT('',(-0.449909923219,0.37470620016,0.));
#95 = VECTOR('',#96,1.);
#96 = DIRECTION('',(-0.639963899371,-0.768404976234,0.));
#97 = ORIENTED_EDGE('',*,*,#32,.F.);
#98 = ORIENTED_EDGE('',*,*,#21,.F.);
#99 = ORIENTED_EDGE('',*,*,#100,.F.);
#100 = EDGE_CURVE('',#73,#22,#101,.T.);
#101 = LINE('',#102,#103);
#102 = CARTESIAN_POINT('',(-1.582668001526,-2.815223537925,0.));
#103 = VECTOR('',#104,1.);
#104 = DIRECTION('',(0.639963899371,0.768404976234,0.));
#105 = PLANE('',#106);
#106 = AXIS2_PLACEMENT_3D('',#107,#108,#109);
#107 = CARTESIAN_POINT('',(-1.304809286774E-16,2.352844155189E-17,0.));
#108 = DIRECTION('',(0.,0.,1.));
#109 = DIRECTION('',(1.,0.,0.));
#110 = ADVANCED_FACE('',(#111),#123,.F.);
#111 = FACE_BOUND('',#112,.F.);
#112 = EDGE_LOOP('',(#113,#114,#121,#122));
#113 = ORIENTED_EDGE('',*,*,#41,.T.);
#114 = ORIENTED_EDGE('',*,*,#115,.T.);
#115 = EDGE_CURVE('',#33,#22,#116,.T.);
#116 = CIRCLE('',#117,2.26);
#117 = AXIS2_PLACEMENT_3D('',#118,#119,#120);
#118 = CARTESIAN_POINT('',(0.,0.,0.));
#119 = DIRECTION('',(0.,0.,1.));
#120 = DIRECTION('',(1.,0.,0.));
#121 = ORIENTED_EDGE('',*,*,#58,.T.);
#122 = ORIENTED_EDGE('',*,*,#49,.T.);
#123 = PLANE('',#124);
#124 = AXIS2_PLACEMENT_3D('',#125,#126,#127);
#125 = CARTESIAN_POINT('',(-1.512655013871E-16,-1.662397484222E-17,0.));
#126 = DIRECTION('',(0.,0.,1.));
#127 = DIRECTION('',(1.,0.,0.));
#128 = ADVANCED_FACE('',(#129),#155,.T.);
#129 = FACE_BOUND('',#130,.F.);
#130 = EDGE_LOOP('',(#131,#139,#140,#148));
#131 = ORIENTED_EDGE('',*,*,#132,.F.);
#132 = EDGE_CURVE('',#75,#133,#135,.T.);
#133 = VERTEX_POINT('',#134);
#134 = CARTESIAN_POINT('',(2.62,0.,0.9));
#135 = LINE('',#136,#137);
#136 = CARTESIAN_POINT('',(2.62,0.,0.));
#137 = VECTOR('',#138,1.);
#138 = DIRECTION('',(0.,0.,1.));
#139 = ORIENTED_EDGE('',*,*,#72,.F.);
#140 = ORIENTED_EDGE('',*,*,#141,.F.);
#141 = EDGE_CURVE('',#142,#73,#144,.T.);
#142 = VERTEX_POINT('',#143);
#143 = CARTESIAN_POINT('',(-1.184390023788,-2.337010969498,0.9));
#144 = LINE('',#145,#146);
#145 = CARTESIAN_POINT('',(-1.184390023788,-2.337010969498,0.));
#146 = VECTOR('',#147,1.);
#147 = DIRECTION('',(-0.,-0.,-1.));
#148 = ORIENTED_EDGE('',*,*,#149,.T.);
#149 = EDGE_CURVE('',#142,#133,#150,.T.);
#150 = CIRCLE('',#151,2.62);
#151 = AXIS2_PLACEMENT_3D('',#152,#153,#154);
#152 = CARTESIAN_POINT('',(0.,0.,0.9));
#153 = DIRECTION('',(0.,0.,1.));
#154 = DIRECTION('',(1.,0.,0.));
#155 = CYLINDRICAL_SURFACE('',#156,2.62);
#156 = AXIS2_PLACEMENT_3D('',#157,#158,#159);
#157 = CARTESIAN_POINT('',(0.,0.,0.));
#158 = DIRECTION('',(-0.,-0.,-1.));
#159 = DIRECTION('',(1.,0.,0.));
#160 = ADVANCED_FACE('',(#161),#173,.F.);
#161 = FACE_BOUND('',#162,.F.);
#162 = EDGE_LOOP('',(#163,#164,#171,#172));
#163 = ORIENTED_EDGE('',*,*,#92,.T.);
#164 = ORIENTED_EDGE('',*,*,#165,.T.);
#165 = EDGE_CURVE('',#84,#73,#166,.T.);
#166 = CIRCLE('',#167,2.62);
#167 = AXIS2_PLACEMENT_3D('',#168,#169,#170);
#168 = CARTESIAN_POINT('',(0.,0.,0.));
#169 = DIRECTION('',(0.,0.,1.));
#170 = DIRECTION('',(1.,0.,0.));
#171 = ORIENTED_EDGE('',*,*,#100,.T.);
#172 = ORIENTED_EDGE('',*,*,#115,.F.);
#173 = PLANE('',#174);
#174 = AXIS2_PLACEMENT_3D('',#175,#176,#177);
#175 = CARTESIAN_POINT('',(-1.304809286774E-16,2.352844155189E-17,0.));
#176 = DIRECTION('',(0.,0.,1.));
#177 = DIRECTION('',(1.,0.,0.));
#178 = ADVANCED_FACE('',(#179),#198,.T.);
#179 = FACE_BOUND('',#180,.F.);
#180 = EDGE_LOOP('',(#181,#182,#183,#192));
#181 = ORIENTED_EDGE('',*,*,#83,.F.);
#182 = ORIENTED_EDGE('',*,*,#132,.T.);
#183 = ORIENTED_EDGE('',*,*,#184,.T.);
#184 = EDGE_CURVE('',#133,#185,#187,.T.);
#185 = VERTEX_POINT('',#186);
#186 = CARTESIAN_POINT('',(-2.084209870226,-1.587598569177,0.9));
#187 = CIRCLE('',#188,2.62);
#188 = AXIS2_PLACEMENT_3D('',#189,#190,#191);
#189 = CARTESIAN_POINT('',(0.,0.,0.9));
#190 = DIRECTION('',(0.,0.,1.));
#191 = DIRECTION('',(1.,0.,0.));
#192 = ORIENTED_EDGE('',*,*,#193,.T.);
#193 = EDGE_CURVE('',#185,#84,#194,.T.);
#194 = LINE('',#195,#196);
#195 = CARTESIAN_POINT('',(-2.084209870226,-1.587598569177,0.));
#196 = VECTOR('',#197,1.);
#197 = DIRECTION('',(-0.,-0.,-1.));
#198 = CYLINDRICAL_SURFACE('',#199,2.62);
#199 = AXIS2_PLACEMENT_3D('',#200,#201,#202);
#200 = CARTESIAN_POINT('',(0.,0.,0.));
#201 = DIRECTION('',(-0.,-0.,-1.));
#202 = DIRECTION('',(1.,0.,0.));
#203 = ADVANCED_FACE('',(#204),#240,.T.);
#204 = FACE_BOUND('',#205,.T.);
#205 = EDGE_LOOP('',(#206,#207,#208,#216,#225,#234));
#206 = ORIENTED_EDGE('',*,*,#149,.T.);
#207 = ORIENTED_EDGE('',*,*,#184,.T.);
#208 = ORIENTED_EDGE('',*,*,#209,.T.);
#209 = EDGE_CURVE('',#185,#210,#212,.T.);
#210 = VERTEX_POINT('',#211);
#211 = CARTESIAN_POINT('',(-1.846846648388,-1.30259642919,0.9));
#212 = LINE('',#213,#214);
#213 = CARTESIAN_POINT('',(-0.449909923219,0.37470620016,0.9));
#214 = VECTOR('',#215,1.);
#215 = DIRECTION('',(0.639963899371,0.768404976234,0.));
#216 = ORIENTED_EDGE('',*,*,#217,.T.);
#217 = EDGE_CURVE('',#210,#218,#220,.T.);
#218 = VERTEX_POINT('',#219);
#219 = CARTESIAN_POINT('',(2.26,0.,0.9));
#220 = CIRCLE('',#221,2.26);
#221 = AXIS2_PLACEMENT_3D('',#222,#223,#224);
#222 = CARTESIAN_POINT('',(0.,0.,0.9));
#223 = DIRECTION('',(0.,0.,-1.));
#224 = DIRECTION('',(1.,0.,0.));
#225 = ORIENTED_EDGE('',*,*,#226,.T.);
#226 = EDGE_CURVE('',#218,#227,#229,.T.);
#227 = VERTEX_POINT('',#228);
#228 = CARTESIAN_POINT('',(-0.94702680195,-2.05200882951,0.9));
#229 = CIRCLE('',#230,2.26);
#230 = AXIS2_PLACEMENT_3D('',#231,#232,#233);
#231 = CARTESIAN_POINT('',(0.,0.,0.9));
#232 = DIRECTION('',(0.,0.,-1.));
#233 = DIRECTION('',(1.,0.,0.));
#234 = ORIENTED_EDGE('',*,*,#235,.T.);
#235 = EDGE_CURVE('',#227,#142,#236,.T.);
#236 = LINE('',#237,#238);
#237 = CARTESIAN_POINT('',(-0.566379039153,-1.594964869043,0.9));
#238 = VECTOR('',#239,1.);
#239 = DIRECTION('',(-0.639963899371,-0.768404976234,0.));
#240 = PLANE('',#241);
#241 = AXIS2_PLACEMENT_3D('',#242,#243,#244);
#242 = CARTESIAN_POINT('',(-1.304809286774E-16,2.352844155189E-17,0.9));
#243 = DIRECTION('',(0.,0.,1.));
#244 = DIRECTION('',(1.,0.,0.));
#245 = ADVANCED_FACE('',(#246),#280,.F.);
#246 = FACE_BOUND('',#247,.F.);
#247 = EDGE_LOOP('',(#248,#256,#264,#272,#278,#279));
#248 = ORIENTED_EDGE('',*,*,#249,.F.);
#249 = EDGE_CURVE('',#250,#73,#252,.T.);
#250 = VERTEX_POINT('',#251);
#251 = CARTESIAN_POINT('',(-1.582668001526,-2.815223537925,0.));
#252 = LINE('',#253,#254);
#253 = CARTESIAN_POINT('',(-1.582668001526,-2.815223537925,0.));
#254 = VECTOR('',#255,1.);
#255 = DIRECTION('',(0.639963899371,0.768404976234,0.));
#256 = ORIENTED_EDGE('',*,*,#257,.T.);
#257 = EDGE_CURVE('',#250,#258,#260,.T.);
#258 = VERTEX_POINT('',#259);
#259 = CARTESIAN_POINT('',(-1.582668001526,-2.815223537925,1.));
#260 = LINE('',#261,#262);
#261 = CARTESIAN_POINT('',(-1.582668001526,-2.815223537925,0.));
#262 = VECTOR('',#263,1.);
#263 = DIRECTION('',(0.,0.,1.));
#264 = ORIENTED_EDGE('',*,*,#265,.T.);
#265 = EDGE_CURVE('',#258,#266,#268,.T.);
#266 = VERTEX_POINT('',#267);
#267 = CARTESIAN_POINT('',(-0.94702680195,-2.05200882951,1.));
#268 = LINE('',#269,#270);
#269 = CARTESIAN_POINT('',(-1.582668001526,-2.815223537925,1.));
#270 = VECTOR('',#271,1.);
#271 = DIRECTION('',(0.639963899371,0.768404976234,0.));
#272 = ORIENTED_EDGE('',*,*,#273,.T.);
#273 = EDGE_CURVE('',#266,#227,#274,.T.);
#274 = LINE('',#275,#276);
#275 = CARTESIAN_POINT('',(-0.94702680195,-2.05200882951,0.));
#276 = VECTOR('',#277,1.);
#277 = DIRECTION('',(-0.,-0.,-1.));
#278 = ORIENTED_EDGE('',*,*,#235,.T.);
#279 = ORIENTED_EDGE('',*,*,#141,.T.);
#280 = PLANE('',#281);
#281 = AXIS2_PLACEMENT_3D('',#282,#283,#284);
#282 = CARTESIAN_POINT('',(-1.582668001526,-2.815223537925,0.));
#283 = DIRECTION('',(-0.768404976234,0.639963899371,0.));
#284 = DIRECTION('',(0.639963899371,0.768404976234,0.));
#285 = ADVANCED_FACE('',(#286),#305,.F.);
#286 = FACE_BOUND('',#287,.F.);
#287 = EDGE_LOOP('',(#288,#289,#290,#298));
#288 = ORIENTED_EDGE('',*,*,#249,.T.);
#289 = ORIENTED_EDGE('',*,*,#165,.F.);
#290 = ORIENTED_EDGE('',*,*,#291,.T.);
#291 = EDGE_CURVE('',#84,#292,#294,.T.);
#292 = VERTEX_POINT('',#293);
#293 = CARTESIAN_POINT('',(-2.482487847965,-2.065811137604,0.));
#294 = LINE('',#295,#296);
#295 = CARTESIAN_POINT('',(-0.449909923219,0.37470620016,0.));
#296 = VECTOR('',#297,1.);
#297 = DIRECTION('',(-0.639963899371,-0.768404976234,0.));
#298 = ORIENTED_EDGE('',*,*,#299,.T.);
#299 = EDGE_CURVE('',#292,#250,#300,.T.);
#300 = CIRCLE('',#301,0.585511464832);
#301 = AXIS2_PLACEMENT_3D('',#302,#303,#304);
#302 = CARTESIAN_POINT('',(-2.032577924745,-2.440517337764,0.));
#303 = DIRECTION('',(0.,0.,1.));
#304 = DIRECTION('',(1.,0.,0.));
#305 = PLANE('',#306);
#306 = AXIS2_PLACEMENT_3D('',#307,#308,#309);
#307 = CARTESIAN_POINT('',(-1.016288962373,-1.220258668882,0.));
#308 = DIRECTION('',(0.,0.,1.));
#309 = DIRECTION('',(1.,0.,0.));
#310 = ADVANCED_FACE('',(#311),#338,.F.);
#311 = FACE_BOUND('',#312,.F.);
#312 = EDGE_LOOP('',(#313,#321,#329,#335,#336,#337));
#313 = ORIENTED_EDGE('',*,*,#314,.F.);
#314 = EDGE_CURVE('',#315,#210,#317,.T.);
#315 = VERTEX_POINT('',#316);
#316 = CARTESIAN_POINT('',(-1.846846648388,-1.30259642919,1.));
#317 = LINE('',#318,#319);
#318 = CARTESIAN_POINT('',(-1.846846648388,-1.30259642919,0.));
#319 = VECTOR('',#320,1.);
#320 = DIRECTION('',(-0.,-0.,-1.));
#321 = ORIENTED_EDGE('',*,*,#322,.T.);
#322 = EDGE_CURVE('',#315,#323,#325,.T.);
#323 = VERTEX_POINT('',#324);
#324 = CARTESIAN_POINT('',(-2.482487847965,-2.065811137604,1.));
#325 = LINE('',#326,#327);
#326 = CARTESIAN_POINT('',(-0.449909923219,0.37470620016,1.));
#327 = VECTOR('',#328,1.);
#328 = DIRECTION('',(-0.639963899371,-0.768404976234,0.));
#329 = ORIENTED_EDGE('',*,*,#330,.F.);
#330 = EDGE_CURVE('',#292,#323,#331,.T.);
#331 = LINE('',#332,#333);
#332 = CARTESIAN_POINT('',(-2.482487847965,-2.065811137604,0.));
#333 = VECTOR('',#334,1.);
#334 = DIRECTION('',(0.,0.,1.));
#335 = ORIENTED_EDGE('',*,*,#291,.F.);
#336 = ORIENTED_EDGE('',*,*,#193,.F.);
#337 = ORIENTED_EDGE('',*,*,#209,.T.);
#338 = PLANE('',#339);
#339 = AXIS2_PLACEMENT_3D('',#340,#341,#342);
#340 = CARTESIAN_POINT('',(-0.449909923219,0.37470620016,0.));
#341 = DIRECTION('',(0.768404976234,-0.639963899371,0.));
#342 = DIRECTION('',(-0.639963899371,-0.768404976234,0.));
#343 = ADVANCED_FACE('',(#344),#373,.T.);
#344 = FACE_BOUND('',#345,.F.);
#345 = EDGE_LOOP('',(#346,#354,#355,#356,#363,#364,#365,#366));
#346 = ORIENTED_EDGE('',*,*,#347,.F.);
#347 = EDGE_CURVE('',#218,#348,#350,.T.);
#348 = VERTEX_POINT('',#349);
#349 = CARTESIAN_POINT('',(2.26,0.,3.61));
#350 = LINE('',#351,#352);
#351 = CARTESIAN_POINT('',(2.26,0.,0.));
#352 = VECTOR('',#353,1.);
#353 = DIRECTION('',(0.,0.,1.));
#354 = ORIENTED_EDGE('',*,*,#226,.T.);
#355 = ORIENTED_EDGE('',*,*,#273,.F.);
#356 = ORIENTED_EDGE('',*,*,#357,.T.);
#357 = EDGE_CURVE('',#266,#315,#358,.T.);
#358 = CIRCLE('',#359,2.26);
#359 = AXIS2_PLACEMENT_3D('',#360,#361,#362);
#360 = CARTESIAN_POINT('',(0.,0.,1.));
#361 = DIRECTION('',(0.,0.,-1.));
#362 = DIRECTION('',(1.,0.,0.));
#363 = ORIENTED_EDGE('',*,*,#314,.T.);
#364 = ORIENTED_EDGE('',*,*,#217,.T.);
#365 = ORIENTED_EDGE('',*,*,#347,.T.);
#366 = ORIENTED_EDGE('',*,*,#367,.T.);
#367 = EDGE_CURVE('',#348,#348,#368,.T.);
#368 = CIRCLE('',#369,2.26);
#369 = AXIS2_PLACEMENT_3D('',#370,#371,#372);
#370 = CARTESIAN_POINT('',(0.,0.,3.61));
#371 = DIRECTION('',(0.,0.,1.));
#372 = DIRECTION('',(1.,0.,0.));
#373 = CYLINDRICAL_SURFACE('',#374,2.26);
#374 = AXIS2_PLACEMENT_3D('',#375,#376,#377);
#375 = CARTESIAN_POINT('',(0.,0.,0.));
#376 = DIRECTION('',(-0.,-0.,-1.));
#377 = DIRECTION('',(1.,0.,0.));
#378 = ADVANCED_FACE('',(#379),#391,.T.);
#379 = FACE_BOUND('',#380,.T.);
#380 = EDGE_LOOP('',(#381,#382,#383,#384));
#381 = ORIENTED_EDGE('',*,*,#265,.T.);
#382 = ORIENTED_EDGE('',*,*,#357,.T.);
#383 = ORIENTED_EDGE('',*,*,#322,.T.);
#384 = ORIENTED_EDGE('',*,*,#385,.T.);
#385 = EDGE_CURVE('',#323,#258,#386,.T.);
#386 = CIRCLE('',#387,0.585511464832);
#387 = AXIS2_PLACEMENT_3D('',#388,#389,#390);
#388 = CARTESIAN_POINT('',(-2.032577924745,-2.440517337764,1.));
#389 = DIRECTION('',(0.,0.,1.));
#390 = DIRECTION('',(1.,0.,0.));
#391 = PLANE('',#392);
#392 = AXIS2_PLACEMENT_3D('',#393,#394,#395);
#393 = CARTESIAN_POINT('',(-1.016288962373,-1.220258668882,1.));
#394 = DIRECTION('',(0.,0.,1.));
#395 = DIRECTION('',(1.,0.,0.));
#396 = ADVANCED_FACE('',(#397),#403,.T.);
#397 = FACE_BOUND('',#398,.F.);
#398 = EDGE_LOOP('',(#399,#400,#401,#402));
#399 = ORIENTED_EDGE('',*,*,#330,.T.);
#400 = ORIENTED_EDGE('',*,*,#385,.T.);
#401 = ORIENTED_EDGE('',*,*,#257,.F.);
#402 = ORIENTED_EDGE('',*,*,#299,.F.);
#403 = CYLINDRICAL_SURFACE('',#404,0.585511464832);
#404 = AXIS2_PLACEMENT_3D('',#405,#406,#407);
#405 = CARTESIAN_POINT('',(-2.032577924745,-2.440517337764,0.));
#406 = DIRECTION('',(-0.,-0.,-1.));
#407 = DIRECTION('',(1.,0.,0.));
#408 = ADVANCED_FACE('',(#409),#428,.T.);
#409 = FACE_BOUND('',#410,.T.);
#410 = EDGE_LOOP('',(#411,#419,#420,#421));
#411 = ORIENTED_EDGE('',*,*,#412,.F.);
#412 = EDGE_CURVE('',#348,#413,#415,.T.);
#413 = VERTEX_POINT('',#414);
#414 = CARTESIAN_POINT('',(1.96,0.,3.91));
#415 = LINE('',#416,#417);
#416 = CARTESIAN_POINT('',(2.26,0.,3.61));
#417 = VECTOR('',#418,1.);
#418 = DIRECTION('',(-0.707106781187,0.,0.707106781187));
#419 = ORIENTED_EDGE('',*,*,#367,.T.);
#420 = ORIENTED_EDGE('',*,*,#412,.T.);
#421 = ORIENTED_EDGE('',*,*,#422,.F.);
#422 = EDGE_CURVE('',#413,#413,#423,.T.);
#423 = CIRCLE('',#424,1.96);
#424 = AXIS2_PLACEMENT_3D('',#425,#426,#427);
#425 = CARTESIAN_POINT('',(0.,0.,3.91));
#426 = DIRECTION('',(0.,0.,1.));
#427 = DIRECTION('',(1.,0.,0.));
#428 = CONICAL_SURFACE('',#429,2.26,0.785398163397);
#429 = AXIS2_PLACEMENT_3D('',#430,#431,#432);
#430 = CARTESIAN_POINT('',(0.,0.,3.61));
#431 = DIRECTION('',(-0.,-0.,-1.));
#432 = DIRECTION('',(1.,0.,0.));
#433 = ADVANCED_FACE('',(#434),#437,.T.);
#434 = FACE_BOUND('',#435,.T.);
#435 = EDGE_LOOP('',(#436));
#436 = ORIENTED_EDGE('',*,*,#422,.T.);
#437 = PLANE('',#438);
#438 = AXIS2_PLACEMENT_3D('',#439,#440,#441);
#439 = CARTESIAN_POINT('',(-1.512655013871E-16,-1.662397484222E-17,3.91)
  );
#440 = DIRECTION('',(0.,0.,1.));
#441 = DIRECTION('',(1.,0.,0.));
#442 = ( GEOMETRIC_REPRESENTATION_CONTEXT(3) 
GLOBAL_UNCERTAINTY_ASSIGNED_CONTEXT((#446)) GLOBAL_UNIT_ASSIGNED_CONTEXT
((#443,#444,#445)) REPRESENTATION_CONTEXT('Context #1',
  '3D Context with UNIT and UNCERTAINTY') );
#443 = ( LENGTH_UNIT() NAMED_UNIT(*) SI_UNIT(.MILLI.,.METRE.) );
#444 = ( NAMED_UNIT(*) PLANE_ANGLE_UNIT() SI_UNIT($,.RADIAN.) );
#445 = ( NAMED_UNIT(*) SI_UNIT($,.STERADIAN.) SOLID_ANGLE_UNIT() );
#446 = UNCERTAINTY_MEASURE_WITH_UNIT(LENGTH_MEASURE(1.E-07),#443,
  'distance_accuracy_value','confusion accuracy');
#447 = PRODUCT_RELATED_PRODUCT_CATEGORY('part',$,(#7));
#448 = MECHANICAL_DESIGN_GEOMETRIC_PRESENTATION_REPRESENTATION('',(#449)
  ,#442);
#449 = STYLED_ITEM('color',(#450),#15);
#450 = PRESENTATION_STYLE_ASSIGNMENT((#451,#457));
#451 = SURFACE_STYLE_USAGE(.BOTH.,#452);
#452 = SURFACE_SIDE_STYLE('',(#453));
#453 = SURFACE_STYLE_FILL_AREA(#454);
#454 = FILL_AREA_STYLE('',(#455));
#455 = FILL_AREA_STYLE_COLOUR('',#456);
#456 = COLOUR_RGB('',0.800000010877,0.800000010877,0.800000010877);
#457 = CURVE_STYLE('',#458,POSITIVE_LENGTH_MEASURE(0.1),#459);
#458 = DRAUGHTING_PRE_DEFINED_CURVE_FONT('continuous');
#459 = COLOUR_RGB('',9.803921802644E-02,9.803921802644E-02,
  9.803921802644E-02);
ENDSEC;
END-ISO-10303-21;
