#VRML V2.0 utf8
#kicad StepUp wrl exported

Shape { geometry IndexedFaceSet 
{ creaseAngle 1.00 coordIndex [0,1,2,-1,3,0,2,-1]
coord Coordinate { point [-1.47637 2.95275 0,-1.47637 2.95275 4.3307,1.37795 2.95275 4.3307,1.37795 2.95275 0]
}}
appearance Appearance{material Material{diffuseColor 0.8 0.8 0.8
transparency 0}}}
Shape { geometry IndexedFaceSet 
{ creaseAngle 1.00 coordIndex [0,1,2,-1,3,1,0,-1]
coord Coordinate { point [-1.47637 2.95275 4.3307,-1.47637 -2.95275 0,-1.47637 -2.95275 4.3307,-1.47637 2.95275 0]
}}
appearance Appearance{material Material{diffuseColor 0.8 0.8 0.8
transparency 0}}}
Shape { geometry IndexedFaceSet 
{ creaseAngle 1.00 coordIndex [0,1,2,-1,3,1,0,-1]
coord Coordinate { point [1.37795 -2.95275 4.3307,1.37795 2.95275 0,1.37795 2.95275 4.3307,1.37795 -2.95275 0]
}}
appearance Appearance{material Material{diffuseColor 0.8 0.8 0.8
transparency 0}}}
Shape { geometry IndexedFaceSet 
{ creaseAngle 1.00 coordIndex [0,1,2,-1,3,4,2,-1,2,4,0,-1,3,5,4,-1,0,6,1,-1,1,7,5,-1,6,7,1,-1,5,7,4,-1,6,8,9,-1,9,8,10,-1,0,8,6,-1,8,11,10,-1,9,12,13,-1,10,12,9,-1,13,14,7,-1,11,14,15,-1,15,14,12,-1,7,14,4,-1,8,14,11,-1,12,14,13,-1]
coord Coordinate { point [-1.47637 -2.95275 0,-0.3937 -1.80208 0,-0.3937 -2.27452 0,0.3937 -2.27452 0,1.37795 -2.95275 0,0.3937 -1.80208 0,-0.3937 -0.19685 0,0.3937 -0.19685 0,-1.47637 2.95275 0,-0.3937 0.19685 0,-0.3937 1.74784 0,-0.3937 2.14154 0,0.3937 1.74784 0,0.3937 0.19685 0,1.37795 2.95275 0,0.3937 2.14154 0]
}}
appearance Appearance{material Material{diffuseColor 0.8 0.8 0.8
transparency 0}}}
Shape { geometry IndexedFaceSet 
{ creaseAngle 1.00 coordIndex [0,1,2,-1,0,2,3,-1]
coord Coordinate { point [1.37795 2.95275 4.3307,-1.47637 2.95275 4.3307,-1.47637 -2.95275 4.3307,1.37795 -2.95275 4.3307]
}}
appearance Appearance{material Material{diffuseColor 0.8 0.8 0.8
transparency 0}}}
Shape { geometry IndexedFaceSet 
{ creaseAngle 1.00 coordIndex [0,1,2,-1,3,2,1,-1,4,1,0,-1,5,3,1,-1,6,1,4,-1,7,5,1,-1,8,1,6,-1,9,7,1,-1,10,1,8,-1,11,9,1,-1,12,1,10,-1,13,11,1,-1,14,1,12,-1,15,13,1,-1,16,1,14,-1,17,15,1,-1,18,1,16,-1,19,17,1,-1,20,1,18,-1,21,19,1,-1,22,1,20,-1,23,21,1,-1,24,1,22,-1,25,23,1,-1,26,1,24,-1,27,25,1,-1,28,1,26,-1,29,27,1,-1,30,1,28,-1,31,29,1,-1,32,31,1,-1,33,34,32,-1,33,35,34,-1,33,36,35,-1,33,37,36,-1,33,38,37,-1,33,39,38,-1,33,40,39,-1,33,41,40,-1,33,42,41,-1,33,43,42,-1,33,44,43,-1,33,45,44,-1,33,46,45,-1,33,47,46,-1,33,32,1,-1,48,47,33,-1,49,48,33,-1,50,49,33,-1,51,50,33,-1,52,51,33,-1,53,52,33,-1,54,53,33,-1,55,54,33,-1,56,55,33,-1,57,56,33,-1,58,57,33,-1,59,58,33,-1,60,59,33,-1,61,60,33,-1,62,61,33,-1,63,62,33,-1,64,63,33,-1,65,66,67,-1,65,68,66,-1,65,69,68,-1,65,70,69,-1,65,71,70,-1,65,72,71,-1,65,73,72,-1,65,74,73,-1,65,75,74,-1,65,76,75,-1,65,77,76,-1,65,78,77,-1,65,79,78,-1,65,80,79,-1,65,81,80,-1,65,82,81,-1,65,83,82,-1,65,84,83,-1,65,85,84,-1,65,86,85,-1,65,87,86,-1,65,88,87,-1,65,89,88,-1,65,90,89,-1,65,91,90,-1,65,92,91,-1,65,93,92,-1,65,94,95,-1,65,67,94,-1,96,65,95,-1,96,97,98,-1,96,99,97,-1,96,100,99,-1,96,101,100,-1,96,102,101,-1,96,103,102,-1,96,104,103,-1,96,105,104,-1,96,106,105,-1,96,107,106,-1,96,108,107,-1,96,109,108,-1,96,110,109,-1,96,111,110,-1,96,112,111,-1,96,113,112,-1,96,114,113,-1,96,115,114,-1,96,116,115,-1,96,117,116,-1,96,118,117,-1,96,119,118,-1,96,120,119,-1,96,121,120,-1,96,122,121,-1,96,123,122,-1,96,124,123,-1,96,125,124,-1,96,95,125,-1,65,1,126,-1,126,1,30,-1,65,126,127,-1,65,127,128,-1,65,128,93,-1,33,96,64,-1,64,96,129,-1,129,96,98,-1]
coord Coordinate { point [0.865808 -2.95275 3.55925,1.37795 -2.95275 4.3307,0.824688 -2.95275 3.60141,0.781517 -2.95275 3.64147,0.904775 -2.95275 3.5151,0.736404 -2.95275 3.67932,0.941493 -2.95275 3.46905,0.68946 -2.95275 3.71488,0.975871 -2.95275 3.42124,0.640801 -2.95275 3.74805,1.00782 -2.95275 3.37177,0.59055 -2.95275 3.77876,1.03727 -2.95275 3.32077,0.53883 -2.95275 3.80693,1.06413 -2.95275 3.26836,0.485771 -2.95275 3.83248,1.08836 -2.95275 3.21468,0.431504 -2.95275 3.85535,1.10987 -2.95275 3.15986,0.376165 -2.95275 3.8755,1.12863 -2.95275 3.10404,0.31989 -2.95275 3.89286,1.14458 -2.95275 3.04735,0.262819 -2.95275 3.90739,1.15768 -2.95275 2.98993,0.205096 -2.95275 3.91906,1.16791 -2.95275 2.93193,0.146862 -2.95275 3.92783,1.17523 -2.95275 2.8735,0.0882637 -2.95275 3.9337,1.17963 -2.95275 2.81477,0.0294456 -2.95275 3.93663,-0.0294456 -2.95275 3.93663,-1.47637 -2.95275 4.3307,-0.0882637 -2.95275 3.9337,-0.146862 -2.95275 3.92783,-0.205096 -2.95275 3.91906,-0.262819 -2.95275 3.90739,-0.31989 -2.95275 3.89286,-0.376165 -2.95275 3.8755,-0.431504 -2.95275 3.85535,-0.485771 -2.95275 3.83248,-0.53883 -2.95275 3.80693,-0.59055 -2.95275 3.77876,-0.640801 -2.95275 3.74805,-0.68946 -2.95275 3.71488,-0.736404 -2.95275 3.67932,-0.781517 -2.95275 3.64147,-0.824688 -2.95275 3.60141,-0.865808 -2.95275 3.55925,-0.904775 -2.95275 3.5151,-0.941493 -2.95275 3.46905,-0.975871 -2.95275 3.42124,-1.00782 -2.95275 3.37177,-1.03727 -2.95275 3.32077,-1.06413 -2.95275 3.26836,-1.08836 -2.95275 3.21468,-1.10987 -2.95275 3.15986,-1.12863 -2.95275 3.10404,-1.14458 -2.95275 3.04735,-1.15768 -2.95275 2.98993,-1.16791 -2.95275 2.93193,-1.17523 -2.95275 2.8735,-1.17963 -2.95275 2.81477,-1.1811 -2.95275 2.7559,1.37795 -2.95275 0,0.146862 -2.95275 1.58397,0.0882637 -2.95275 1.5781,0.205096 -2.95275 1.59274,0.262819 -2.95275 1.60441,0.31989 -2.95275 1.61894,0.376165 -2.95275 1.6363,0.431504 -2.95275 1.65645,0.485771 -2.95275 1.67932,0.53883 -2.95275 1.70487,0.59055 -2.95275 1.73304,0.640801 -2.95275 1.76375,0.68946 -2.95275 1.79692,0.736404 -2.95275 1.83248,0.781517 -2.95275 1.87033,0.824688 -2.95275 1.91039,0.865808 -2.95275 1.95255,0.904775 -2.95275 1.9967,0.941493 -2.95275 2.04275,0.975871 -2.95275 2.09056,1.00782 -2.95275 2.14003,1.03727 -2.95275 2.19103,1.06413 -2.95275 2.24344,1.08836 -2.95275 2.29712,1.10987 -2.95275 2.35194,1.12863 -2.95275 2.40776,1.14458 -2.95275 2.46445,1.15768 -2.95275 2.52187,1.16791 -2.95275 2.57987,0.0294456 -2.95275 1.57517,-0.0294456 -2.95275 1.57517,-1.47637 -2.95275 0,-1.16791 -2.95275 2.57987,-1.17523 -2.95275 2.6383,-1.15768 -2.95275 2.52187,-1.14458 -2.95275 2.46445,-1.12863 -2.95275 2.40776,-1.10987 -2.95275 2.35194,-1.08836 -2.95275 2.29712,-1.06413 -2.95275 2.24344,-1.03727 -2.95275 2.19103,-1.00782 -2.95275 2.14003,-0.975871 -2.95275 2.09056,-0.941493 -2.95275 2.04275,-0.904775 -2.95275 1.9967,-0.865808 -2.95275 1.95255,-0.824688 -2.95275 1.91039,-0.781517 -2.95275 1.87033,-0.736404 -2.95275 1.83248,-0.68946 -2.95275 1.79692,-0.640801 -2.95275 1.76375,-0.59055 -2.95275 1.73304,-0.53883 -2.95275 1.70487,-0.485771 -2.95275 1.67932,-0.431504 -2.95275 1.65645,-0.376165 -2.95275 1.6363,-0.31989 -2.95275 1.61894,-0.262819 -2.95275 1.60441,-0.205096 -2.95275 1.59274,-0.146862 -2.95275 1.58397,-0.0882637 -2.95275 1.5781,1.1811 -2.95275 2.7559,1.17963 -2.95275 2.69703,1.17523 -2.95275 2.6383,-1.17963 -2.95275 2.69703]
}}
appearance Appearance{material Material{diffuseColor 0.8 0.8 0.8
transparency 0}}}
Shape { geometry IndexedFaceSet 
{ creaseAngle 1.00 coordIndex [0,1,2,-1,2,1,3,-1]
coord Coordinate { point [0.3937 -1.80208 0,0.3937 -2.27452 0,0.3937 -1.80208 -0.7874,0.3937 -2.27452 -0.7874]
}}
appearance Appearance{material Material{diffuseColor 0.8 0.8 0.8
transparency 0}}}
Shape { geometry IndexedFaceSet 
{ creaseAngle 1.00 coordIndex [0,1,2,-1,2,1,3,-1]
coord Coordinate { point [-0.3937 -1.80208 0,0.3937 -1.80208 0,-0.3937 -1.80208 -0.7874,0.3937 -1.80208 -0.7874]
}}
appearance Appearance{material Material{diffuseColor 0.8 0.8 0.8
transparency 0}}}
Shape { geometry IndexedFaceSet 
{ creaseAngle 1.00 coordIndex [0,1,2,-1,2,1,3,-1]
coord Coordinate { point [0.3937 -2.27452 0,-0.3937 -2.27452 0,0.3937 -2.27452 -0.7874,-0.3937 -2.27452 -0.7874]
}}
appearance Appearance{material Material{diffuseColor 0.8 0.8 0.8
transparency 0}}}
Shape { geometry IndexedFaceSet 
{ creaseAngle 1.00 coordIndex [0,1,2,-1,2,1,3,-1]
coord Coordinate { point [-0.3937 -2.27452 0,-0.3937 -1.80208 0,-0.3937 -2.27452 -0.7874,-0.3937 -1.80208 -0.7874]
}}
appearance Appearance{material Material{diffuseColor 0.8 0.8 0.8
transparency 0}}}
Shape { geometry IndexedFaceSet 
{ creaseAngle 1.00 coordIndex [0,1,2,-1,0,2,3,-1]
coord Coordinate { point [0.3937 -0.19685 0,-0.3937 -0.19685 0,-0.3937 -0.19685 -0.7874,0.3937 -0.19685 -0.7874]
}}
appearance Appearance{material Material{diffuseColor 0.8 0.8 0.8
transparency 0}}}
Shape { geometry IndexedFaceSet 
{ creaseAngle 1.00 coordIndex [0,1,2,-1,0,2,3,-1]
coord Coordinate { point [-0.3937 -0.19685 0,-0.3937 0.19685 0,-0.3937 0.19685 -0.7874,-0.3937 -0.19685 -0.7874]
}}
appearance Appearance{material Material{diffuseColor 0.8 0.8 0.8
transparency 0}}}
Shape { geometry IndexedFaceSet 
{ creaseAngle 1.00 coordIndex [0,1,2,-1,0,2,3,-1]
coord Coordinate { point [0.3937 0.19685 0,0.3937 -0.19685 0,0.3937 -0.19685 -0.7874,0.3937 0.19685 -0.7874]
}}
appearance Appearance{material Material{diffuseColor 0.8 0.8 0.8
transparency 0}}}
Shape { geometry IndexedFaceSet 
{ creaseAngle 1.00 coordIndex [0,1,2,-1,0,2,3,-1]
coord Coordinate { point [-0.3937 0.19685 0,0.3937 0.19685 0,0.3937 0.19685 -0.7874,-0.3937 0.19685 -0.7874]
}}
appearance Appearance{material Material{diffuseColor 0.8 0.8 0.8
transparency 0}}}
Shape { geometry IndexedFaceSet 
{ creaseAngle 1.00 coordIndex [0,1,2,-1,0,2,3,-1]
coord Coordinate { point [0.3937 1.74784 0,-0.3937 1.74784 0,-0.3937 1.74784 -0.7874,0.3937 1.74784 -0.7874]
}}
appearance Appearance{material Material{diffuseColor 0.8 0.8 0.8
transparency 0}}}
Shape { geometry IndexedFaceSet 
{ creaseAngle 1.00 coordIndex [0,1,2,-1,0,2,3,-1]
coord Coordinate { point [0.3937 2.14154 0,0.3937 1.74784 0,0.3937 1.74784 -0.7874,0.3937 2.14154 -0.7874]
}}
appearance Appearance{material Material{diffuseColor 0.8 0.8 0.8
transparency 0}}}
Shape { geometry IndexedFaceSet 
{ creaseAngle 1.00 coordIndex [0,1,2,-1,0,2,3,-1]
coord Coordinate { point [-0.3937 2.14154 0,0.3937 2.14154 0,0.3937 2.14154 -0.7874,-0.3937 2.14154 -0.7874]
}}
appearance Appearance{material Material{diffuseColor 0.8 0.8 0.8
transparency 0}}}
Shape { geometry IndexedFaceSet 
{ creaseAngle 1.00 coordIndex [0,1,2,-1,0,2,3,-1]
coord Coordinate { point [-0.3937 1.74784 0,-0.3937 2.14154 0,-0.3937 2.14154 -0.7874,-0.3937 1.74784 -0.7874]
}}
appearance Appearance{material Material{diffuseColor 0.8 0.8 0.8
transparency 0}}}
Shape { geometry IndexedFaceSet 
{ creaseAngle 1.00 coordIndex [0,1,2,-1,2,1,3,-1,3,4,5,-1,1,4,3,-1,5,6,7,-1,4,6,5,-1,7,8,9,-1,6,8,7,-1,9,10,11,-1,8,10,9,-1,11,12,13,-1,10,12,11,-1,13,14,15,-1,12,14,13,-1,15,16,17,-1,14,16,15,-1,17,18,19,-1,16,18,17,-1,19,20,21,-1,18,20,19,-1,20,22,21,-1,21,22,23,-1,22,24,23,-1,23,24,25,-1,24,26,25,-1,25,26,27,-1,26,28,27,-1,27,28,29,-1,29,30,31,-1,28,30,29,-1,31,32,33,-1,30,32,31,-1,33,34,35,-1,32,34,33,-1,35,36,37,-1,34,36,35,-1,37,38,39,-1,39,38,40,-1,36,38,37,-1,40,41,42,-1,38,41,40,-1,41,43,42,-1,42,44,45,-1,43,44,42,-1,45,46,47,-1,44,46,45,-1,47,48,49,-1,46,48,47,-1,49,50,51,-1,48,50,49,-1,51,52,53,-1,50,52,51,-1,53,54,55,-1,52,54,53,-1,55,56,57,-1,54,56,55,-1,57,58,59,-1,56,58,57,-1,59,60,61,-1,58,60,59,-1,61,62,63,-1,60,62,61,-1,63,64,65,-1,65,64,66,-1,62,64,63,-1,64,67,66,-1,66,68,69,-1,67,68,66,-1,69,70,71,-1,68,70,69,-1,71,72,73,-1,70,72,71,-1,73,74,75,-1,72,74,73,-1,74,76,75,-1,75,76,77,-1,76,78,77,-1,77,78,79,-1,78,80,79,-1,79,80,81,-1,80,82,81,-1,81,82,83,-1,83,82,84,-1,82,85,84,-1,85,86,84,-1,84,86,87,-1,86,88,87,-1,87,88,89,-1,88,90,89,-1,89,90,91,-1,90,92,91,-1,91,92,93,-1,92,94,93,-1,93,94,95,-1,95,96,97,-1,94,96,95,-1,97,98,99,-1,96,98,97,-1,99,100,101,-1,98,100,99,-1,101,102,103,-1,100,102,101,-1,103,104,105,-1,102,104,103,-1,105,106,107,-1,104,106,105,-1,107,108,109,-1,106,108,107,-1,109,110,111,-1,108,110,109,-1,111,112,113,-1,110,112,111,-1,113,114,115,-1,112,114,113,-1,115,116,117,-1,114,116,115,-1,117,118,119,-1,116,118,117,-1,119,120,121,-1,118,120,119,-1,121,122,123,-1,120,122,121,-1,122,124,123,-1,123,124,125,-1,124,126,125,-1,125,126,127,-1,126,128,127,-1,127,128,129,-1,128,130,129,-1,129,130,131,-1,130,132,131,-1,131,132,133,-1,132,134,133,-1,133,134,135,-1,134,136,135,-1,135,136,137,-1,136,138,137,-1,137,138,139,-1,138,140,139,-1,139,140,141,-1,140,142,141,-1,141,142,143,-1,142,144,143,-1,143,144,145,-1,144,146,145,-1,145,146,147,-1,147,146,148,-1,146,149,148,-1,149,150,148,-1,148,150,151,-1,150,152,151,-1,151,152,153,-1,152,154,153,-1,153,154,155,-1,154,156,155,-1,155,156,157,-1,156,158,157,-1,157,158,159,-1,158,160,159,-1,159,160,161,-1,160,162,161,-1,161,162,163,-1,162,164,163,-1,163,164,165,-1,165,166,167,-1,164,166,165,-1,167,168,169,-1,166,168,167,-1,169,170,171,-1,168,170,169,-1,171,172,173,-1,170,172,171,-1,173,174,175,-1,172,174,173,-1,174,176,175,-1,175,176,177,-1,176,178,177,-1,177,178,179,-1,178,180,179,-1,179,180,181,-1,180,182,181,-1,181,182,183,-1,182,184,183,-1,183,184,185,-1,184,186,185,-1,185,186,187,-1,186,188,187,-1,187,188,189,-1,188,190,189,-1,189,190,191,-1,190,192,191,-1,191,192,193,-1,192,194,193,-1,193,194,195,-1,194,196,195,-1,195,196,197,-1,196,198,197,-1,197,198,199,-1,199,200,201,-1,198,200,199,-1,201,202,203,-1,200,202,201,-1,203,204,205,-1,202,204,203,-1,205,206,207,-1,204,206,205,-1,207,208,209,-1,206,208,207,-1,209,210,211,-1,208,210,209,-1,211,212,213,-1,210,212,211,-1,213,214,215,-1,212,214,213,-1,215,216,217,-1,214,216,215,-1,217,218,219,-1,216,218,217,-1,219,220,221,-1,218,220,219,-1,221,222,223,-1,220,222,221,-1,223,224,225,-1,222,224,223,-1,224,226,225,-1,225,226,227,-1,226,228,227,-1,227,228,229,-1,228,230,229,-1,229,230,231,-1,230,232,231,-1,231,232,233,-1,233,234,235,-1,232,234,233,-1,235,236,237,-1,234,236,235,-1,237,238,239,-1,236,238,237,-1,239,240,241,-1,238,240,239,-1,241,242,243,-1,240,242,241,-1,243,244,245,-1,242,244,243,-1,245,246,247,-1,244,246,245,-1,247,248,249,-1,246,248,247,-1,249,250,251,-1,248,250,249,-1,251,0,2,-1,250,0,251,-1]
coord Coordinate { point [1.1811 -2.95275 2.7559,1.17963 -2.95275 2.81477,1.1811 -3.1496 2.7559,1.17963 -3.1496 2.81477,1.17523 -2.95275 2.8735,1.17523 -3.1496 2.8735,1.16791 -2.95275 2.93193,1.16791 -3.1496 2.93193,1.15768 -2.95275 2.98993,1.15768 -3.1496 2.98993,1.14458 -2.95275 3.04735,1.14458 -3.1496 3.04735,1.12863 -2.95275 3.10404,1.12863 -3.1496 3.10404,1.10987 -2.95275 3.15986,1.10987 -3.1496 3.15986,1.08836 -2.95275 3.21468,1.08836 -3.1496 3.21468,1.06413 -2.95275 3.26836,1.06413 -3.1496 3.26836,1.03727 -2.95275 3.32077,1.03727 -3.1496 3.32077,1.00782 -2.95275 3.37177,1.00782 -3.1496 3.37177,0.975871 -2.95275 3.42124,0.975871 -3.1496 3.42124,0.941493 -2.95275 3.46905,0.941493 -3.1496 3.46905,0.904775 -2.95275 3.5151,0.904775 -3.1496 3.5151,0.865808 -2.95275 3.55925,0.865808 -3.1496 3.55925,0.824688 -2.95275 3.60141,0.824688 -3.1496 3.60141,0.781517 -2.95275 3.64147,0.781517 -3.1496 3.64147,0.736404 -2.95275 3.67932,0.736404 -3.1496 3.67932,0.68946 -2.95275 3.71488,0.68946 -3.1496 3.71488,0.640801 -3.1496 3.74805,0.640801 -2.95275 3.74805,0.59055 -3.1496 3.77876,0.59055 -2.95275 3.77876,0.53883 -2.95275 3.80693,0.53883 -3.1496 3.80693,0.485771 -2.95275 3.83248,0.485771 -3.1496 3.83248,0.431504 -2.95275 3.85535,0.431504 -3.1496 3.85535,0.376165 -2.95275 3.8755,0.376165 -3.1496 3.8755,0.31989 -2.95275 3.89286,0.31989 -3.1496 3.89286,0.262819 -2.95275 3.90739,0.262819 -3.1496 3.90739,0.205096 -2.95275 3.91906,0.205096 -3.1496 3.91906,0.146862 -2.95275 3.92783,0.146862 -3.1496 3.92783,0.0882637 -2.95275 3.9337,0.0882637 -3.1496 3.9337,0.0294456 -2.95275 3.93663,0.0294456 -3.1496 3.93663,-0.0294456 -2.95275 3.93663,-0.0294456 -3.1496 3.93663,-0.0882637 -3.1496 3.9337,-0.0882637 -2.95275 3.9337,-0.146862 -2.95275 3.92783,-0.146862 -3.1496 3.92783,-0.205096 -2.95275 3.91906,-0.205096 -3.1496 3.91906,-0.262819 -2.95275 3.90739,-0.262819 -3.1496 3.90739,-0.31989 -2.95275 3.89286,-0.31989 -3.1496 3.89286,-0.376165 -2.95275 3.8755,-0.376165 -3.1496 3.8755,-0.431504 -2.95275 3.85535,-0.431504 -3.1496 3.85535,-0.485771 -2.95275 3.83248,-0.485771 -3.1496 3.83248,-0.53883 -2.95275 3.80693,-0.53883 -3.1496 3.80693,-0.59055 -3.1496 3.77876,-0.59055 -2.95275 3.77876,-0.640801 -2.95275 3.74805,-0.640801 -3.1496 3.74805,-0.68946 -2.95275 3.71488,-0.68946 -3.1496 3.71488,-0.736404 -2.95275 3.67932,-0.736404 -3.1496 3.67932,-0.781517 -2.95275 3.64147,-0.781517 -3.1496 3.64147,-0.824688 -2.95275 3.60141,-0.824688 -3.1496 3.60141,-0.865808 -2.95275 3.55925,-0.865808 -3.1496 3.55925,-0.904775 -2.95275 3.5151,-0.904775 -3.1496 3.5151,-0.941493 -2.95275 3.46905,-0.941493 -3.1496 3.46905,-0.975871 -2.95275 3.42124,-0.975871 -3.1496 3.42124,-1.00782 -2.95275 3.37177,-1.00782 -3.1496 3.37177,-1.03727 -2.95275 3.32077,-1.03727 -3.1496 3.32077,-1.06413 -2.95275 3.26836,-1.06413 -3.1496 3.26836,-1.08836 -2.95275 3.21468,-1.08836 -3.1496 3.21468,-1.10987 -2.95275 3.15986,-1.10987 -3.1496 3.15986,-1.12863 -2.95275 3.10404,-1.12863 -3.1496 3.10404,-1.14458 -2.95275 3.04735,-1.14458 -3.1496 3.04735,-1.15768 -2.95275 2.98993,-1.15768 -3.1496 2.98993,-1.16791 -2.95275 2.93193,-1.16791 -3.1496 2.93193,-1.17523 -2.95275 2.8735,-1.17523 -3.1496 2.8735,-1.17963 -2.95275 2.81477,-1.17963 -3.1496 2.81477,-1.1811 -2.95275 2.7559,-1.1811 -3.1496 2.7559,-1.17963 -2.95275 2.69703,-1.17963 -3.1496 2.69703,-1.17523 -2.95275 2.6383,-1.17523 -3.1496 2.6383,-1.16791 -2.95275 2.57987,-1.16791 -3.1496 2.57987,-1.15768 -2.95275 2.52187,-1.15768 -3.1496 2.52187,-1.14458 -2.95275 2.46445,-1.14458 -3.1496 2.46445,-1.12863 -2.95275 2.40776,-1.12863 -3.1496 2.40776,-1.10987 -2.95275 2.35194,-1.10987 -3.1496 2.35194,-1.08836 -2.95275 2.29712,-1.08836 -3.1496 2.29712,-1.06413 -2.95275 2.24344,-1.06413 -3.1496 2.24344,-1.03727 -2.95275 2.19103,-1.03727 -3.1496 2.19103,-1.00782 -3.1496 2.14003,-1.00782 -2.95275 2.14003,-0.975871 -2.95275 2.09056,-0.975871 -3.1496 2.09056,-0.941493 -2.95275 2.04275,-0.941493 -3.1496 2.04275,-0.904775 -2.95275 1.9967,-0.904775 -3.1496 1.9967,-0.865808 -2.95275 1.95255,-0.865808 -3.1496 1.95255,-0.824688 -2.95275 1.91039,-0.824688 -3.1496 1.91039,-0.781517 -2.95275 1.87033,-0.781517 -3.1496 1.87033,-0.736404 -2.95275 1.83248,-0.736404 -3.1496 1.83248,-0.68946 -2.95275 1.79692,-0.68946 -3.1496 1.79692,-0.640801 -2.95275 1.76375,-0.640801 -3.1496 1.76375,-0.59055 -2.95275 1.73304,-0.59055 -3.1496 1.73304,-0.53883 -2.95275 1.70487,-0.53883 -3.1496 1.70487,-0.485771 -2.95275 1.67932,-0.485771 -3.1496 1.67932,-0.431504 -2.95275 1.65645,-0.431504 -3.1496 1.65645,-0.376165 -2.95275 1.6363,-0.376165 -3.1496 1.6363,-0.31989 -2.95275 1.61894,-0.31989 -3.1496 1.61894,-0.262819 -2.95275 1.60441,-0.262819 -3.1496 1.60441,-0.205096 -2.95275 1.59274,-0.205096 -3.1496 1.59274,-0.146862 -2.95275 1.58397,-0.146862 -3.1496 1.58397,-0.0882637 -2.95275 1.5781,-0.0882637 -3.1496 1.5781,-0.0294456 -2.95275 1.57517,-0.0294456 -3.1496 1.57517,0.0294456 -2.95275 1.57517,0.0294456 -3.1496 1.57517,0.0882637 -2.95275 1.5781,0.0882637 -3.1496 1.5781,0.146862 -2.95275 1.58397,0.146862 -3.1496 1.58397,0.205096 -2.95275 1.59274,0.205096 -3.1496 1.59274,0.262819 -2.95275 1.60441,0.262819 -3.1496 1.60441,0.31989 -2.95275 1.61894,0.31989 -3.1496 1.61894,0.376165 -2.95275 1.6363,0.376165 -3.1496 1.6363,0.431504 -2.95275 1.65645,0.431504 -3.1496 1.65645,0.485771 -2.95275 1.67932,0.485771 -3.1496 1.67932,0.53883 -2.95275 1.70487,0.53883 -3.1496 1.70487,0.59055 -2.95275 1.73304,0.59055 -3.1496 1.73304,0.640801 -2.95275 1.76375,0.640801 -3.1496 1.76375,0.68946 -2.95275 1.79692,0.68946 -3.1496 1.79692,0.736404 -2.95275 1.83248,0.736404 -3.1496 1.83248,0.781517 -2.95275 1.87033,0.781517 -3.1496 1.87033,0.824688 -2.95275 1.91039,0.824688 -3.1496 1.91039,0.865808 -2.95275 1.95255,0.865808 -3.1496 1.95255,0.904775 -2.95275 1.9967,0.904775 -3.1496 1.9967,0.941493 -2.95275 2.04275,0.941493 -3.1496 2.04275,0.975871 -2.95275 2.09056,0.975871 -3.1496 2.09056,1.00782 -2.95275 2.14003,1.00782 -3.1496 2.14003,1.03727 -2.95275 2.19103,1.03727 -3.1496 2.19103,1.06413 -2.95275 2.24344,1.06413 -3.1496 2.24344,1.08836 -2.95275 2.29712,1.08836 -3.1496 2.29712,1.10987 -2.95275 2.35194,1.10987 -3.1496 2.35194,1.12863 -2.95275 2.40776,1.12863 -3.1496 2.40776,1.14458 -2.95275 2.46445,1.14458 -3.1496 2.46445,1.15768 -2.95275 2.52187,1.15768 -3.1496 2.52187,1.16791 -2.95275 2.57987,1.16791 -3.1496 2.57987,1.17523 -2.95275 2.6383,1.17523 -3.1496 2.6383,1.17963 -2.95275 2.69703,1.17963 -3.1496 2.69703]
}}
appearance Appearance{material Material{diffuseColor 0.8 0.8 0.8
transparency 0}}}
Shape { geometry IndexedFaceSet 
{ creaseAngle 1.00 coordIndex [0,1,2,-1,2,1,3,-1]
coord Coordinate { point [-0.3937 -1.80208 -0.7874,0.3937 -1.80208 -0.7874,-0.3937 -2.27452 -0.7874,0.3937 -2.27452 -0.7874]
}}
appearance Appearance{material Material{diffuseColor 0.8 0.8 0.8
transparency 0}}}
Shape { geometry IndexedFaceSet 
{ creaseAngle 1.00 coordIndex [0,1,2,-1,3,1,0,-1]
coord Coordinate { point [-0.3937 -0.19685 -0.7874,0.3937 0.19685 -0.7874,0.3937 -0.19685 -0.7874,-0.3937 0.19685 -0.7874]
}}
appearance Appearance{material Material{diffuseColor 0.8 0.8 0.8
transparency 0}}}
Shape { geometry IndexedFaceSet 
{ creaseAngle 1.00 coordIndex [0,1,2,-1,3,1,0,-1]
coord Coordinate { point [-0.3937 1.74784 -0.7874,0.3937 2.14154 -0.7874,0.3937 1.74784 -0.7874,-0.3937 2.14154 -0.7874]
}}
appearance Appearance{material Material{diffuseColor 0.8 0.8 0.8
transparency 0}}}
Shape { geometry IndexedFaceSet 
{ creaseAngle 1.00 coordIndex [0,1,2,-1,3,1,0,-1,4,5,0,-1,0,5,3,-1,1,6,2,-1,2,6,7,-1,4,8,5,-1,9,8,4,-1,6,10,7,-1,7,10,11,-1,12,13,9,-1,9,13,8,-1,10,14,11,-1,11,14,15,-1,12,16,13,-1,17,16,12,-1,14,18,15,-1,15,18,19,-1,20,21,17,-1,17,21,16,-1,18,22,19,-1,19,22,23,-1,20,24,21,-1,25,24,20,-1,22,26,23,-1,27,26,28,-1,23,26,27,-1,25,29,24,-1,30,29,25,-1,26,31,28,-1,30,32,29,-1,33,32,30,-1,31,34,28,-1,28,34,35,-1,33,36,32,-1,37,36,33,-1,38,39,40,-1,35,39,38,-1,34,39,35,-1,37,41,36,-1,42,41,37,-1,39,43,40,-1,42,44,41,-1,45,44,42,-1,43,46,40,-1,40,46,47,-1,45,48,44,-1,49,48,45,-1,47,50,51,-1,46,50,47,-1,49,52,48,-1,53,52,49,-1,51,54,55,-1,50,54,51,-1,53,56,52,-1,57,56,53,-1,54,58,55,-1,55,58,59,-1,57,60,56,-1,61,60,57,-1,62,60,61,-1,59,63,64,-1,58,63,59,-1,62,65,60,-1,64,66,67,-1,63,66,64,-1,62,68,65,-1,69,68,62,-1,66,70,67,-1,67,70,71,-1,69,72,68,-1,73,72,69,-1,70,74,71,-1,71,74,75,-1,73,76,72,-1,77,76,73,-1,74,78,75,-1,75,78,79,-1,77,80,76,-1,81,80,77,-1,78,82,79,-1,79,82,83,-1,81,84,80,-1,85,84,81,-1,82,86,83,-1,83,86,87,-1,88,89,85,-1,85,89,84,-1,86,90,87,-1,87,90,91,-1,92,93,88,-1,88,93,89,-1,90,94,91,-1,91,94,95,-1,96,97,92,-1,92,97,93,-1,95,98,99,-1,94,98,95,-1,100,101,96,-1,96,101,97,-1,98,102,99,-1,99,102,103,-1,104,105,100,-1,106,105,104,-1,100,105,101,-1,102,107,103,-1,103,107,108,-1,106,109,105,-1,108,110,111,-1,107,110,108,-1,112,113,106,-1,106,113,109,-1,110,114,111,-1,115,114,116,-1,111,114,115,-1,117,118,112,-1,112,118,113,-1,114,119,116,-1,120,121,117,-1,117,121,118,-1,116,122,123,-1,119,122,116,-1,124,125,120,-1,120,125,121,-1,126,127,122,-1,122,127,123,-1,124,128,125,-1,125,128,129,-1,126,130,127,-1,131,130,126,-1,131,132,130,-1,128,133,129,-1,129,133,134,-1,132,135,130,-1,133,136,134,-1,134,136,137,-1,132,138,135,-1,139,138,132,-1,136,140,137,-1,137,140,141,-1,139,142,138,-1,143,142,139,-1,141,144,145,-1,140,144,141,-1,143,146,142,-1,147,146,148,-1,148,146,143,-1,145,149,150,-1,144,149,145,-1,147,151,146,-1,150,152,153,-1,153,152,154,-1,149,152,150,-1,147,155,151,-1,156,155,147,-1,152,157,154,-1,158,159,156,-1,156,159,155,-1,154,160,161,-1,157,160,154,-1,162,163,158,-1,158,163,159,-1,161,164,165,-1,165,164,166,-1,160,164,161,-1,162,167,163,-1,168,167,162,-1,164,169,166,-1,168,170,167,-1,171,170,172,-1,172,170,168,-1,169,173,166,-1,166,173,174,-1,174,173,175,-1,171,176,170,-1,173,177,175,-1,171,178,176,-1,179,178,180,-1,180,178,171,-1,177,181,175,-1,175,181,182,-1,182,181,183,-1,184,185,179,-1,179,185,178,-1,183,186,187,-1,181,186,183,-1,184,188,185,-1,186,189,187,-1,190,191,184,-1,184,191,188,-1,187,192,193,-1,193,192,194,-1,189,192,187,-1,195,196,190,-1,190,196,191,-1,192,197,194,-1,198,199,195,-1,195,199,196,-1,194,200,201,-1,197,200,194,-1,198,202,199,-1,203,202,204,-1,204,202,198,-1,201,205,206,-1,200,205,201,-1,203,207,202,-1,206,208,209,-1,205,208,206,-1,203,210,207,-1,211,210,203,-1,208,212,209,-1,209,212,213,-1,211,214,210,-1,215,214,211,-1,212,216,213,-1,213,216,217,-1,217,216,218,-1,215,219,214,-1,220,219,215,-1,216,221,218,-1,220,222,219,-1,223,222,220,-1,218,224,225,-1,221,224,218,-1,223,226,222,-1,227,226,223,-1,224,228,225,-1,225,228,229,-1,229,228,230,-1,227,231,226,-1,232,231,227,-1,228,233,230,-1,232,234,231,-1,235,234,232,-1,233,236,230,-1,230,236,237,-1,235,238,234,-1,239,238,240,-1,240,238,235,-1,236,241,237,-1,237,241,242,-1,239,243,238,-1,241,244,242,-1,242,244,245,-1,239,246,243,-1,247,246,248,-1,248,246,239,-1,245,249,250,-1,244,249,245,-1,250,251,247,-1,247,251,246,-1,249,251,250,-1]
coord Coordinate { point [-0.824688 -3.1496 1.91039,-0.5267 -3.1496 2.26719,-0.865808 -3.1496 1.95255,-0.501685 -3.1496 2.24155,-0.781517 -3.1496 1.87033,-0.475423 -3.1496 2.21718,-0.550405 -3.1496 2.29406,-0.904775 -3.1496 1.9967,-0.447979 -3.1496 2.19415,-0.736404 -3.1496 1.83248,-0.572742 -3.1496 2.32207,-0.941493 -3.1496 2.04275,-0.68946 -3.1496 1.79692,-0.419421 -3.1496 2.17252,-0.593655 -3.1496 2.35115,-0.975871 -3.1496 2.09056,-0.389821 -3.1496 2.15234,-0.640801 -3.1496 1.76375,-0.613092 -3.1496 2.38125,-1.00782 -3.1496 2.14003,-0.59055 -3.1496 1.73304,-0.359251 -3.1496 2.13366,-0.631004 -3.1496 2.41227,-1.03727 -3.1496 2.19103,-0.327788 -3.1496 2.11652,-0.53883 -3.1496 1.70487,-0.647348 -3.1496 2.44415,-1.06413 -3.1496 2.24344,-1.08836 -3.1496 2.29712,-0.295511 -3.1496 2.10098,-0.485771 -3.1496 1.67932,-0.662083 -3.1496 2.47681,-0.262498 -3.1496 2.08706,-0.431504 -3.1496 1.65645,-0.675171 -3.1496 2.51016,-1.10987 -3.1496 2.35194,-0.228833 -3.1496 2.07481,-0.376165 -3.1496 1.6363,-1.12863 -3.1496 2.40776,-0.686581 -3.1496 2.54412,-1.14458 -3.1496 2.46445,-0.1946 -3.1496 2.06425,-0.31989 -3.1496 1.61894,-0.696284 -3.1496 2.5786,-0.159882 -3.1496 2.05541,-0.262819 -3.1496 1.60441,-0.704256 -3.1496 2.61353,-1.15768 -3.1496 2.52187,-0.124767 -3.1496 2.04831,-0.205096 -3.1496 1.59274,-0.710477 -3.1496 2.64881,-1.16791 -3.1496 2.57987,-0.0893413 -3.1496 2.04297,-0.146862 -3.1496 1.58397,-0.714932 -3.1496 2.68436,-1.17523 -3.1496 2.6383,-0.0536938 -3.1496 2.03941,-0.0882637 -3.1496 1.5781,-0.717609 -3.1496 2.72009,-1.17963 -3.1496 2.69703,-0.0179128 -3.1496 2.03762,-0.0294456 -3.1496 1.57517,0.0294456 -3.1496 1.57517,-0.718502 -3.1496 2.7559,-1.1811 -3.1496 2.7559,0.0179128 -3.1496 2.03762,-0.717609 -3.1496 2.79171,-1.17963 -3.1496 2.81477,0.0536938 -3.1496 2.03941,0.0882637 -3.1496 1.5781,-0.714932 -3.1496 2.82744,-1.17523 -3.1496 2.8735,0.0893413 -3.1496 2.04297,0.146862 -3.1496 1.58397,-0.710477 -3.1496 2.86299,-1.16791 -3.1496 2.93193,0.124767 -3.1496 2.04831,0.205096 -3.1496 1.59274,-0.704256 -3.1496 2.89827,-1.15768 -3.1496 2.98993,0.159882 -3.1496 2.05541,0.262819 -3.1496 1.60441,-0.696284 -3.1496 2.9332,-1.14458 -3.1496 3.04735,0.1946 -3.1496 2.06425,0.31989 -3.1496 1.61894,-0.686581 -3.1496 2.96768,-1.12863 -3.1496 3.10404,0.376165 -3.1496 1.6363,0.228833 -3.1496 2.07481,-0.675171 -3.1496 3.00164,-1.10987 -3.1496 3.15986,0.431504 -3.1496 1.65645,0.262498 -3.1496 2.08706,-0.662083 -3.1496 3.03499,-1.08836 -3.1496 3.21468,0.485771 -3.1496 1.67932,0.295511 -3.1496 2.10098,-0.647348 -3.1496 3.06765,-1.06413 -3.1496 3.26836,0.53883 -3.1496 1.70487,0.327788 -3.1496 2.11652,-0.631004 -3.1496 3.09953,-1.03727 -3.1496 3.32077,0.59055 -3.1496 1.73304,0.359251 -3.1496 2.13366,0.640801 -3.1496 1.76375,-0.613092 -3.1496 3.13055,-1.00782 -3.1496 3.37177,0.389821 -3.1496 2.15234,-0.593655 -3.1496 3.16065,-0.975871 -3.1496 3.42124,0.68946 -3.1496 1.79692,0.419421 -3.1496 2.17252,-0.572742 -3.1496 3.18973,-0.941493 -3.1496 3.46905,-0.904775 -3.1496 3.5151,0.736404 -3.1496 1.83248,0.447979 -3.1496 2.19415,-0.550405 -3.1496 3.21774,0.781517 -3.1496 1.87033,0.475423 -3.1496 2.21718,-0.5267 -3.1496 3.24461,-0.865808 -3.1496 3.55925,0.824688 -3.1496 1.91039,0.501685 -3.1496 2.24155,-0.501685 -3.1496 3.27025,-0.824688 -3.1496 3.60141,0.865808 -3.1496 1.95255,0.5267 -3.1496 2.26719,-0.781517 -3.1496 3.64147,-0.475423 -3.1496 3.29462,-0.447979 -3.1496 3.31765,0.904775 -3.1496 1.9967,0.550405 -3.1496 2.29406,-0.736404 -3.1496 3.67932,0.941493 -3.1496 2.04275,0.572742 -3.1496 2.32207,-0.68946 -3.1496 3.71488,-0.419421 -3.1496 3.33928,0.975871 -3.1496 2.09056,0.593655 -3.1496 2.35115,-0.640801 -3.1496 3.74805,-0.389821 -3.1496 3.35946,1.00782 -3.1496 2.14003,0.613092 -3.1496 2.38125,-0.59055 -3.1496 3.77876,-0.327788 -3.1496 3.39528,-0.359251 -3.1496 3.37814,1.03727 -3.1496 2.19103,0.631004 -3.1496 2.41227,-0.53883 -3.1496 3.80693,1.06413 -3.1496 2.24344,0.647348 -3.1496 2.44415,0.662083 -3.1496 2.47681,-0.485771 -3.1496 3.83248,-0.295511 -3.1496 3.41082,1.08836 -3.1496 2.29712,-0.262498 -3.1496 3.42474,-0.431504 -3.1496 3.85535,1.10987 -3.1496 2.35194,0.675171 -3.1496 2.51016,-0.228833 -3.1496 3.43699,-0.376165 -3.1496 3.8755,1.12863 -3.1496 2.40776,0.686581 -3.1496 2.54412,0.696284 -3.1496 2.5786,-0.31989 -3.1496 3.89286,-0.1946 -3.1496 3.44755,1.14458 -3.1496 2.46445,-0.262819 -3.1496 3.90739,-0.124767 -3.1496 3.46349,-0.159882 -3.1496 3.45639,1.15768 -3.1496 2.52187,0.704256 -3.1496 2.61353,0.710477 -3.1496 2.64881,-0.205096 -3.1496 3.91906,1.16791 -3.1496 2.57987,-0.146862 -3.1496 3.92783,-0.0536938 -3.1496 3.47239,-0.0893413 -3.1496 3.46883,1.17523 -3.1496 2.6383,0.714932 -3.1496 2.68436,0.717609 -3.1496 2.72009,-0.0179128 -3.1496 3.47418,-0.0882637 -3.1496 3.9337,1.17963 -3.1496 2.69703,0.718503 -3.1496 2.7559,-0.0294456 -3.1496 3.93663,1.1811 -3.1496 2.7559,0.0179128 -3.1496 3.47418,0.0294456 -3.1496 3.93663,1.17963 -3.1496 2.81477,0.717609 -3.1496 2.79171,0.714932 -3.1496 2.82744,0.0536938 -3.1496 3.47239,0.0882637 -3.1496 3.9337,1.17523 -3.1496 2.8735,0.0893413 -3.1496 3.46883,0.146862 -3.1496 3.92783,1.16791 -3.1496 2.93193,0.710477 -3.1496 2.86299,0.205096 -3.1496 3.91906,0.159882 -3.1496 3.45639,0.124767 -3.1496 3.46349,1.15768 -3.1496 2.98993,0.704256 -3.1496 2.89827,0.262819 -3.1496 3.90739,1.14458 -3.1496 3.04735,0.696284 -3.1496 2.9332,0.31989 -3.1496 3.89286,0.1946 -3.1496 3.44755,1.12863 -3.1496 3.10404,0.686581 -3.1496 2.96768,0.376165 -3.1496 3.8755,0.228833 -3.1496 3.43699,1.10987 -3.1496 3.15986,0.675171 -3.1496 3.00164,0.662083 -3.1496 3.03499,0.431504 -3.1496 3.85535,0.262498 -3.1496 3.42474,1.08836 -3.1496 3.21468,0.485771 -3.1496 3.83248,0.295511 -3.1496 3.41082,1.06413 -3.1496 3.26836,0.647348 -3.1496 3.06765,0.53883 -3.1496 3.80693,0.327788 -3.1496 3.39528,1.03727 -3.1496 3.32077,0.631004 -3.1496 3.09953,0.613092 -3.1496 3.13055,0.59055 -3.1496 3.77876,0.359251 -3.1496 3.37814,1.00782 -3.1496 3.37177,0.640801 -3.1496 3.74805,0.389821 -3.1496 3.35946,0.975871 -3.1496 3.42124,0.593655 -3.1496 3.16065,0.68946 -3.1496 3.71488,0.447979 -3.1496 3.31765,0.419421 -3.1496 3.33928,0.941493 -3.1496 3.46905,0.572742 -3.1496 3.18973,0.736404 -3.1496 3.67932,0.904775 -3.1496 3.5151,0.550405 -3.1496 3.21774,0.781517 -3.1496 3.64147,0.501685 -3.1496 3.27025,0.475423 -3.1496 3.29462,0.865808 -3.1496 3.55925,0.5267 -3.1496 3.24461,0.824688 -3.1496 3.60141]
}}
appearance Appearance{material Material{diffuseColor 0.8 0.8 0.8
transparency 0}}}
Shape { geometry IndexedFaceSet 
{ creaseAngle 1.00 coordIndex [0,1,2,-1,2,1,3,-1,3,4,5,-1,1,4,3,-1,5,6,7,-1,4,6,5,-1,7,8,9,-1,6,8,7,-1,9,10,11,-1,8,10,9,-1,11,12,13,-1,13,12,14,-1,10,12,11,-1,12,15,14,-1,14,16,17,-1,15,16,14,-1,17,18,19,-1,16,18,17,-1,19,20,21,-1,21,20,22,-1,18,20,19,-1,20,23,22,-1,23,24,22,-1,22,24,25,-1,24,26,25,-1,25,26,27,-1,26,28,27,-1,27,28,29,-1,29,30,31,-1,28,30,29,-1,31,32,33,-1,30,32,31,-1,33,34,35,-1,35,34,36,-1,32,34,33,-1,34,37,36,-1,37,38,36,-1,36,38,39,-1,39,40,41,-1,41,40,42,-1,38,40,39,-1,42,43,44,-1,40,43,42,-1,43,45,44,-1,44,46,47,-1,45,46,44,-1,47,48,49,-1,46,48,47,-1,49,50,51,-1,48,50,49,-1,51,52,53,-1,50,52,51,-1,53,54,55,-1,52,54,53,-1,55,56,57,-1,54,56,55,-1,57,58,59,-1,56,58,57,-1,59,60,61,-1,58,60,59,-1,61,62,63,-1,60,62,61,-1,63,64,65,-1,65,64,66,-1,62,64,63,-1,64,67,66,-1,66,68,69,-1,67,68,66,-1,69,70,71,-1,68,70,69,-1,71,72,73,-1,70,72,71,-1,73,74,75,-1,72,74,73,-1,74,76,75,-1,75,76,77,-1,76,78,77,-1,77,78,79,-1,78,80,79,-1,79,80,81,-1,80,82,81,-1,81,82,83,-1,82,84,83,-1,83,84,85,-1,84,86,85,-1,85,86,87,-1,86,88,87,-1,87,88,89,-1,88,90,89,-1,89,90,91,-1,90,92,91,-1,91,92,93,-1,92,94,93,-1,93,94,95,-1,95,96,97,-1,94,96,95,-1,97,98,99,-1,96,98,97,-1,99,100,101,-1,98,100,99,-1,101,102,103,-1,100,102,101,-1,103,104,105,-1,105,104,106,-1,102,104,103,-1,104,107,106,-1,106,108,109,-1,107,108,106,-1,109,110,111,-1,108,110,109,-1,111,112,113,-1,110,112,111,-1,113,114,115,-1,112,114,113,-1,115,116,117,-1,114,116,115,-1,117,118,119,-1,116,118,117,-1,119,120,121,-1,118,120,119,-1,121,122,123,-1,120,122,121,-1,122,124,123,-1,123,124,125,-1,124,126,125,-1,125,126,127,-1,126,128,127,-1,127,128,129,-1,128,130,129,-1,129,130,131,-1,130,132,131,-1,131,132,133,-1,132,134,133,-1,133,134,135,-1,134,136,135,-1,135,136,137,-1,136,138,137,-1,137,138,139,-1,138,140,139,-1,139,140,141,-1,140,142,141,-1,141,142,143,-1,142,144,143,-1,143,144,145,-1,144,146,145,-1,145,146,147,-1,146,148,147,-1,147,148,149,-1,148,150,149,-1,149,150,151,-1,150,152,151,-1,151,152,153,-1,152,154,153,-1,153,154,155,-1,154,156,155,-1,155,156,157,-1,156,158,157,-1,157,158,159,-1,158,160,159,-1,159,160,161,-1,160,162,161,-1,161,162,163,-1,162,164,163,-1,163,164,165,-1,165,166,167,-1,164,166,165,-1,167,168,169,-1,166,168,167,-1,169,170,171,-1,168,170,169,-1,171,172,173,-1,170,172,171,-1,173,174,175,-1,172,174,173,-1,174,176,175,-1,175,176,177,-1,176,178,177,-1,177,178,179,-1,178,180,179,-1,179,180,181,-1,180,182,181,-1,181,182,183,-1,182,184,183,-1,183,184,185,-1,184,186,185,-1,185,186,187,-1,186,188,187,-1,187,188,189,-1,188,190,189,-1,189,190,191,-1,190,192,191,-1,191,192,193,-1,192,194,193,-1,193,194,195,-1,194,196,195,-1,195,196,197,-1,196,198,197,-1,197,198,199,-1,199,200,201,-1,198,200,199,-1,201,202,203,-1,200,202,201,-1,203,204,205,-1,202,204,203,-1,205,206,207,-1,204,206,205,-1,207,208,209,-1,206,208,207,-1,209,210,211,-1,208,210,209,-1,211,212,213,-1,210,212,211,-1,213,214,215,-1,212,214,213,-1,215,216,217,-1,214,216,215,-1,217,218,219,-1,216,218,217,-1,219,220,221,-1,218,220,219,-1,221,222,223,-1,220,222,221,-1,223,224,225,-1,222,224,223,-1,224,226,225,-1,225,226,227,-1,226,228,227,-1,227,228,229,-1,228,230,229,-1,229,230,231,-1,230,232,231,-1,231,232,233,-1,233,234,235,-1,232,234,233,-1,235,236,237,-1,234,236,235,-1,237,238,239,-1,236,238,237,-1,239,240,241,-1,238,240,239,-1,241,242,243,-1,240,242,241,-1,243,244,245,-1,242,244,243,-1,245,246,247,-1,244,246,245,-1,247,248,249,-1,246,248,247,-1,249,250,251,-1,248,250,249,-1,251,0,2,-1,250,0,251,-1]
coord Coordinate { point [0.718503 -3.1496 2.7559,0.717609 -3.1496 2.79171,0.718503 -4.7244 2.7559,0.717609 -4.7244 2.79171,0.714932 -3.1496 2.82744,0.714932 -4.7244 2.82744,0.710477 -3.1496 2.86299,0.710477 -4.7244 2.86299,0.704256 -3.1496 2.89827,0.704256 -4.7244 2.89827,0.696284 -3.1496 2.9332,0.696284 -4.7244 2.9332,0.686581 -3.1496 2.96768,0.686581 -4.7244 2.96768,0.675171 -4.7244 3.00164,0.675171 -3.1496 3.00164,0.662083 -3.1496 3.03499,0.662083 -4.7244 3.03499,0.647348 -3.1496 3.06765,0.647348 -4.7244 3.06765,0.631004 -3.1496 3.09953,0.631004 -4.7244 3.09953,0.613092 -4.7244 3.13055,0.613092 -3.1496 3.13055,0.593655 -3.1496 3.16065,0.593655 -4.7244 3.16065,0.572742 -3.1496 3.18973,0.572742 -4.7244 3.18973,0.550405 -3.1496 3.21774,0.550405 -4.7244 3.21774,0.5267 -3.1496 3.24461,0.5267 -4.7244 3.24461,0.501685 -3.1496 3.27025,0.501685 -4.7244 3.27025,0.475423 -3.1496 3.29462,0.475423 -4.7244 3.29462,0.447979 -4.7244 3.31765,0.447979 -3.1496 3.31765,0.419421 -3.1496 3.33928,0.419421 -4.7244 3.33928,0.389821 -3.1496 3.35946,0.389821 -4.7244 3.35946,0.359251 -4.7244 3.37814,0.359251 -3.1496 3.37814,0.327788 -4.7244 3.39528,0.327788 -3.1496 3.39528,0.295511 -3.1496 3.41082,0.295511 -4.7244 3.41082,0.262498 -3.1496 3.42474,0.262498 -4.7244 3.42474,0.228833 -3.1496 3.43699,0.228833 -4.7244 3.43699,0.1946 -3.1496 3.44755,0.1946 -4.7244 3.44755,0.159882 -3.1496 3.45639,0.159882 -4.7244 3.45639,0.124767 -3.1496 3.46349,0.124767 -4.7244 3.46349,0.0893413 -3.1496 3.46883,0.0893413 -4.7244 3.46883,0.0536938 -3.1496 3.47239,0.0536938 -4.7244 3.47239,0.0179128 -3.1496 3.47418,0.0179128 -4.7244 3.47418,-0.0179128 -3.1496 3.47418,-0.0179128 -4.7244 3.47418,-0.0536938 -4.7244 3.47239,-0.0536938 -3.1496 3.47239,-0.0893413 -3.1496 3.46883,-0.0893413 -4.7244 3.46883,-0.124767 -3.1496 3.46349,-0.124767 -4.7244 3.46349,-0.159882 -3.1496 3.45639,-0.159882 -4.7244 3.45639,-0.1946 -3.1496 3.44755,-0.1946 -4.7244 3.44755,-0.228833 -3.1496 3.43699,-0.228833 -4.7244 3.43699,-0.262498 -3.1496 3.42474,-0.262498 -4.7244 3.42474,-0.295511 -3.1496 3.41082,-0.295511 -4.7244 3.41082,-0.327788 -3.1496 3.39528,-0.327788 -4.7244 3.39528,-0.359251 -3.1496 3.37814,-0.359251 -4.7244 3.37814,-0.389821 -3.1496 3.35946,-0.389821 -4.7244 3.35946,-0.419421 -3.1496 3.33928,-0.419421 -4.7244 3.33928,-0.447979 -3.1496 3.31765,-0.447979 -4.7244 3.31765,-0.475423 -3.1496 3.29462,-0.475423 -4.7244 3.29462,-0.501685 -3.1496 3.27025,-0.501685 -4.7244 3.27025,-0.5267 -3.1496 3.24461,-0.5267 -4.7244 3.24461,-0.550405 -3.1496 3.21774,-0.550405 -4.7244 3.21774,-0.572742 -3.1496 3.18973,-0.572742 -4.7244 3.18973,-0.593655 -3.1496 3.16065,-0.593655 -4.7244 3.16065,-0.613092 -3.1496 3.13055,-0.613092 -4.7244 3.13055,-0.631004 -4.7244 3.09953,-0.631004 -3.1496 3.09953,-0.647348 -3.1496 3.06765,-0.647348 -4.7244 3.06765,-0.662083 -3.1496 3.03499,-0.662083 -4.7244 3.03499,-0.675171 -3.1496 3.00164,-0.675171 -4.7244 3.00164,-0.686581 -3.1496 2.96768,-0.686581 -4.7244 2.96768,-0.696284 -3.1496 2.9332,-0.696284 -4.7244 2.9332,-0.704256 -3.1496 2.89827,-0.704256 -4.7244 2.89827,-0.710477 -3.1496 2.86299,-0.710477 -4.7244 2.86299,-0.714932 -3.1496 2.82744,-0.714932 -4.7244 2.82744,-0.717609 -3.1496 2.79171,-0.717609 -4.7244 2.79171,-0.718502 -3.1496 2.7559,-0.718502 -4.7244 2.7559,-0.717609 -3.1496 2.72009,-0.717609 -4.7244 2.72009,-0.714932 -3.1496 2.68436,-0.714932 -4.7244 2.68436,-0.710477 -3.1496 2.64881,-0.710477 -4.7244 2.64881,-0.704256 -3.1496 2.61353,-0.704256 -4.7244 2.61353,-0.696284 -3.1496 2.5786,-0.696284 -4.7244 2.5786,-0.686581 -3.1496 2.54412,-0.686581 -4.7244 2.54412,-0.675171 -3.1496 2.51016,-0.675171 -4.7244 2.51016,-0.662083 -3.1496 2.47681,-0.662083 -4.7244 2.47681,-0.647348 -3.1496 2.44415,-0.647348 -4.7244 2.44415,-0.631004 -3.1496 2.41227,-0.631004 -4.7244 2.41227,-0.613092 -3.1496 2.38125,-0.613092 -4.7244 2.38125,-0.593655 -3.1496 2.35115,-0.593655 -4.7244 2.35115,-0.572742 -3.1496 2.32207,-0.572742 -4.7244 2.32207,-0.550405 -3.1496 2.29406,-0.550405 -4.7244 2.29406,-0.5267 -3.1496 2.26719,-0.5267 -4.7244 2.26719,-0.501685 -3.1496 2.24155,-0.501685 -4.7244 2.24155,-0.475423 -3.1496 2.21718,-0.475423 -4.7244 2.21718,-0.447979 -3.1496 2.19415,-0.447979 -4.7244 2.19415,-0.419421 -3.1496 2.17252,-0.419421 -4.7244 2.17252,-0.389821 -3.1496 2.15234,-0.389821 -4.7244 2.15234,-0.359251 -3.1496 2.13366,-0.359251 -4.7244 2.13366,-0.327788 -3.1496 2.11652,-0.327788 -4.7244 2.11652,-0.295511 -3.1496 2.10098,-0.295511 -4.7244 2.10098,-0.262498 -3.1496 2.08706,-0.262498 -4.7244 2.08706,-0.228833 -3.1496 2.07481,-0.228833 -4.7244 2.07481,-0.1946 -3.1496 2.06425,-0.1946 -4.7244 2.06425,-0.159882 -3.1496 2.05541,-0.159882 -4.7244 2.05541,-0.124767 -3.1496 2.04831,-0.124767 -4.7244 2.04831,-0.0893413 -3.1496 2.04297,-0.0893413 -4.7244 2.04297,-0.0536938 -3.1496 2.03941,-0.0536938 -4.7244 2.03941,-0.0179128 -3.1496 2.03762,-0.0179128 -4.7244 2.03762,0.0179128 -3.1496 2.03762,0.0179128 -4.7244 2.03762,0.0536938 -3.1496 2.03941,0.0536938 -4.7244 2.03941,0.0893413 -3.1496 2.04297,0.0893413 -4.7244 2.04297,0.124767 -3.1496 2.04831,0.124767 -4.7244 2.04831,0.159882 -3.1496 2.05541,0.159882 -4.7244 2.05541,0.1946 -3.1496 2.06425,0.1946 -4.7244 2.06425,0.228833 -3.1496 2.07481,0.228833 -4.7244 2.07481,0.262498 -3.1496 2.08706,0.262498 -4.7244 2.08706,0.295511 -3.1496 2.10098,0.295511 -4.7244 2.10098,0.327788 -3.1496 2.11652,0.327788 -4.7244 2.11652,0.359251 -3.1496 2.13366,0.359251 -4.7244 2.13366,0.389821 -3.1496 2.15234,0.389821 -4.7244 2.15234,0.419421 -3.1496 2.17252,0.419421 -4.7244 2.17252,0.447979 -3.1496 2.19415,0.447979 -4.7244 2.19415,0.475423 -3.1496 2.21718,0.475423 -4.7244 2.21718,0.501685 -3.1496 2.24155,0.501685 -4.7244 2.24155,0.5267 -3.1496 2.26719,0.5267 -4.7244 2.26719,0.550405 -3.1496 2.29406,0.550405 -4.7244 2.29406,0.572742 -3.1496 2.32207,0.572742 -4.7244 2.32207,0.593655 -3.1496 2.35115,0.593655 -4.7244 2.35115,0.613092 -3.1496 2.38125,0.613092 -4.7244 2.38125,0.631004 -3.1496 2.41227,0.631004 -4.7244 2.41227,0.647348 -3.1496 2.44415,0.647348 -4.7244 2.44415,0.662083 -3.1496 2.47681,0.662083 -4.7244 2.47681,0.675171 -3.1496 2.51016,0.675171 -4.7244 2.51016,0.686581 -3.1496 2.54412,0.686581 -4.7244 2.54412,0.696284 -3.1496 2.5786,0.696284 -4.7244 2.5786,0.704256 -3.1496 2.61353,0.704256 -4.7244 2.61353,0.710477 -3.1496 2.64881,0.710477 -4.7244 2.64881,0.714932 -3.1496 2.68436,0.714932 -4.7244 2.68436,0.717609 -3.1496 2.72009,0.717609 -4.7244 2.72009]
}}
appearance Appearance{material Material{diffuseColor 0.8 0.8 0.8
transparency 0}}}
Shape { geometry IndexedFaceSet 
{ creaseAngle 1.00 coordIndex [0,1,2,-1,1,3,2,-1,2,3,4,-1,0,5,1,-1,6,5,0,-1,4,7,8,-1,3,7,4,-1,6,9,5,-1,10,9,6,-1,8,11,12,-1,7,11,8,-1,10,13,9,-1,14,13,10,-1,12,15,16,-1,11,15,12,-1,17,18,14,-1,14,18,13,-1,16,19,20,-1,15,19,16,-1,21,22,17,-1,23,22,21,-1,17,22,18,-1,20,24,25,-1,19,24,20,-1,23,26,22,-1,27,26,23,-1,25,28,29,-1,24,28,25,-1,27,30,26,-1,31,30,27,-1,28,32,29,-1,29,32,33,-1,31,34,30,-1,35,34,31,-1,32,36,33,-1,33,36,37,-1,35,38,34,-1,39,38,35,-1,36,40,37,-1,37,40,41,-1,39,42,38,-1,43,42,39,-1,40,44,41,-1,41,44,45,-1,46,47,43,-1,43,47,42,-1,44,48,45,-1,45,48,49,-1,46,50,47,-1,51,50,46,-1,48,52,49,-1,49,52,53,-1,51,54,50,-1,55,54,51,-1,52,56,53,-1,53,56,57,-1,55,58,54,-1,59,58,55,-1,56,60,57,-1,57,60,61,-1,59,62,58,-1,63,62,59,-1,61,64,65,-1,60,64,61,-1,63,66,62,-1,67,66,63,-1,65,68,69,-1,64,68,65,-1,67,70,66,-1,67,71,70,-1,69,72,73,-1,68,72,69,-1,71,74,70,-1,71,75,74,-1,73,76,77,-1,72,76,73,-1,75,78,74,-1,75,79,78,-1,77,80,81,-1,76,80,77,-1,79,82,78,-1,79,83,82,-1,81,84,85,-1,80,84,81,-1,83,86,82,-1,83,87,86,-1,85,88,89,-1,84,88,85,-1,87,90,86,-1,87,91,90,-1,88,92,89,-1,89,92,93,-1,91,94,90,-1,91,95,94,-1,92,96,93,-1,93,96,97,-1,95,98,94,-1,95,99,98,-1,96,100,97,-1,100,101,97,-1,99,102,98,-1,99,103,102,-1,100,104,101,-1,104,105,101,-1,103,106,102,-1,103,107,106,-1,104,108,105,-1,108,109,105,-1,107,110,106,-1,107,111,110,-1,108,112,109,-1,112,113,109,-1,111,114,110,-1,111,115,114,-1,112,116,113,-1,116,117,113,-1,115,118,114,-1,115,119,118,-1,116,120,117,-1,120,121,117,-1,119,122,118,-1,119,123,122,-1,120,124,121,-1,124,125,121,-1,123,126,122,-1,123,127,126,-1,124,128,125,-1,128,129,125,-1,127,130,126,-1,127,131,130,-1,128,132,129,-1,132,133,129,-1,131,134,130,-1,131,135,134,-1,132,136,133,-1,136,137,133,-1,135,138,134,-1,135,139,138,-1,136,140,137,-1,140,141,137,-1,139,142,138,-1,139,143,142,-1,140,144,141,-1,144,145,141,-1,143,146,142,-1,143,147,146,-1,144,148,145,-1,149,148,144,-1,147,150,146,-1,147,151,150,-1,151,152,150,-1,149,153,148,-1,154,153,149,-1,151,155,152,-1,155,156,152,-1,154,157,153,-1,158,157,154,-1,155,159,156,-1,159,160,156,-1,161,162,158,-1,158,162,157,-1,159,163,160,-1,163,164,160,-1,165,166,161,-1,161,166,162,-1,163,167,164,-1,167,168,164,-1,169,170,165,-1,165,170,166,-1,167,171,168,-1,171,172,168,-1,169,173,170,-1,174,173,169,-1,171,175,172,-1,175,176,172,-1,177,178,174,-1,174,178,173,-1,175,179,176,-1,179,180,176,-1,177,181,178,-1,182,181,177,-1,179,183,180,-1,183,184,180,-1,182,185,181,-1,186,185,182,-1,183,187,184,-1,186,188,185,-1,189,188,186,-1,187,190,184,-1,184,190,191,-1,189,192,188,-1,193,192,189,-1,191,194,195,-1,190,194,191,-1,193,196,192,-1,197,196,193,-1,195,198,199,-1,194,198,195,-1,197,200,196,-1,201,200,197,-1,199,202,203,-1,198,202,199,-1,201,204,200,-1,205,204,201,-1,203,206,207,-1,202,206,203,-1,208,209,205,-1,205,209,204,-1,206,210,207,-1,207,210,211,-1,212,213,208,-1,208,213,209,-1,211,214,215,-1,210,214,211,-1,216,217,212,-1,212,217,213,-1,215,218,219,-1,214,218,215,-1,220,221,216,-1,216,221,217,-1,219,222,223,-1,218,222,219,-1,224,225,220,-1,220,225,221,-1,223,226,227,-1,222,226,223,-1,228,229,224,-1,224,229,225,-1,227,230,231,-1,226,230,227,-1,232,233,228,-1,228,233,229,-1,230,234,231,-1,231,234,235,-1,232,236,233,-1,237,236,232,-1,234,238,235,-1,235,238,239,-1,237,240,236,-1,241,240,237,-1,239,242,243,-1,238,242,239,-1,241,244,240,-1,245,244,241,-1,242,246,243,-1,243,246,247,-1,245,248,244,-1,247,248,245,-1,246,248,247,-1]
coord Coordinate { point [-0.501685 -4.7244 2.24155,-0.484058 -4.7244 2.26562,-0.5267 -4.7244 2.26719,-0.508461 -4.7244 2.29098,-0.550405 -4.7244 2.29406,-0.458393 -4.7244 2.24154,-0.475423 -4.7244 2.21718,-0.531537 -4.7244 2.31754,-0.572742 -4.7244 2.32207,-0.431531 -4.7244 2.21881,-0.447979 -4.7244 2.19415,-0.553226 -4.7244 2.34526,-0.593655 -4.7244 2.35115,-0.403544 -4.7244 2.19747,-0.419421 -4.7244 2.17252,-0.573472 -4.7244 2.37404,-0.613092 -4.7244 2.38125,-0.389821 -4.7244 2.15234,-0.374504 -4.7244 2.1776,-0.592222 -4.7244 2.40382,-0.631004 -4.7244 2.41227,-0.359251 -4.7244 2.13366,-0.344487 -4.7244 2.15923,-0.327788 -4.7244 2.11652,-0.609427 -4.7244 2.43452,-0.647348 -4.7244 2.44415,-0.313572 -4.7244 2.14242,-0.295511 -4.7244 2.10098,-0.625042 -4.7244 2.46606,-0.662083 -4.7244 2.47681,-0.281838 -4.7244 2.12721,-0.262498 -4.7244 2.08706,-0.639026 -4.7244 2.49835,-0.675171 -4.7244 2.51016,-0.249369 -4.7244 2.11364,-0.228833 -4.7244 2.07481,-0.651343 -4.7244 2.53131,-0.686581 -4.7244 2.54412,-0.216249 -4.7244 2.10174,-0.1946 -4.7244 2.06425,-0.661961 -4.7244 2.56487,-0.696284 -4.7244 2.5786,-0.182566 -4.7244 2.09155,-0.159882 -4.7244 2.05541,-0.670852 -4.7244 2.59891,-0.704256 -4.7244 2.61353,-0.124767 -4.7244 2.04831,-0.148406 -4.7244 2.0831,-0.677992 -4.7244 2.63337,-0.710477 -4.7244 2.64881,-0.113858 -4.7244 2.0764,-0.0893413 -4.7244 2.04297,-0.683364 -4.7244 2.66815,-0.714932 -4.7244 2.68436,-0.079014 -4.7244 2.07147,-0.0536938 -4.7244 2.03941,-0.686953 -4.7244 2.70316,-0.717609 -4.7244 2.72009,-0.0439636 -4.7244 2.06833,-0.0179128 -4.7244 2.03762,-0.68875 -4.7244 2.7383,-0.718502 -4.7244 2.7559,-0.00879846 -4.7244 2.06698,0.0179128 -4.7244 2.03762,-0.68875 -4.7244 2.7735,-0.717609 -4.7244 2.79171,0.0263896 -4.7244 2.06743,0.0536938 -4.7244 2.03941,-0.686953 -4.7244 2.80864,-0.714932 -4.7244 2.82744,0.0615089 -4.7244 2.06968,0.0893413 -4.7244 2.04297,-0.683364 -4.7244 2.84365,-0.710477 -4.7244 2.86299,0.0964676 -4.7244 2.07371,0.124767 -4.7244 2.04831,-0.677992 -4.7244 2.87843,-0.704256 -4.7244 2.89827,0.131175 -4.7244 2.07953,0.159882 -4.7244 2.05541,-0.670852 -4.7244 2.91289,-0.696284 -4.7244 2.9332,0.16554 -4.7244 2.08711,0.1946 -4.7244 2.06425,-0.661961 -4.7244 2.94693,-0.686581 -4.7244 2.96768,0.199473 -4.7244 2.09643,0.228833 -4.7244 2.07481,-0.651343 -4.7244 2.98049,-0.675171 -4.7244 3.00164,0.232885 -4.7244 2.10748,0.262498 -4.7244 2.08706,-0.639026 -4.7244 3.01345,-0.662083 -4.7244 3.03499,0.26569 -4.7244 2.12022,0.295511 -4.7244 2.10098,-0.625042 -4.7244 3.04574,-0.647348 -4.7244 3.06765,0.297802 -4.7244 2.13461,0.327788 -4.7244 2.11652,-0.609427 -4.7244 3.07728,-0.631004 -4.7244 3.09953,0.329137 -4.7244 2.15063,0.359251 -4.7244 2.13366,-0.592222 -4.7244 3.10798,-0.613092 -4.7244 3.13055,0.359613 -4.7244 2.16822,0.389821 -4.7244 2.15234,-0.573472 -4.7244 3.13776,-0.593655 -4.7244 3.16065,0.389151 -4.7244 2.18735,0.419421 -4.7244 2.17252,-0.553226 -4.7244 3.16654,-0.572742 -4.7244 3.18973,0.417674 -4.7244 2.20796,0.447979 -4.7244 2.19415,-0.531537 -4.7244 3.19426,-0.550405 -4.7244 3.21774,0.445107 -4.7244 2.23,0.475423 -4.7244 2.21718,-0.508461 -4.7244 3.22082,-0.5267 -4.7244 3.24461,0.471379 -4.7244 2.25342,0.501685 -4.7244 2.24155,-0.484058 -4.7244 3.24618,-0.501685 -4.7244 3.27025,0.496421 -4.7244 2.27814,0.5267 -4.7244 2.26719,-0.458393 -4.7244 3.27026,-0.475423 -4.7244 3.29462,0.520168 -4.7244 2.30411,0.550405 -4.7244 2.29406,-0.431531 -4.7244 3.29299,-0.447979 -4.7244 3.31765,0.542558 -4.7244 2.33126,0.572742 -4.7244 2.32207,-0.403544 -4.7244 3.31433,-0.419421 -4.7244 3.33928,0.563533 -4.7244 2.35952,0.593655 -4.7244 2.35115,-0.374504 -4.7244 3.3342,-0.389821 -4.7244 3.35946,0.583037 -4.7244 2.38881,0.613092 -4.7244 2.38125,-0.344487 -4.7244 3.35257,-0.359251 -4.7244 3.37814,0.60102 -4.7244 2.41906,0.631004 -4.7244 2.41227,-0.327788 -4.7244 3.39528,-0.313572 -4.7244 3.36938,0.617436 -4.7244 2.45019,0.647348 -4.7244 2.44415,0.63224 -4.7244 2.48211,-0.295511 -4.7244 3.41082,-0.281838 -4.7244 3.38459,0.662083 -4.7244 2.47681,0.645395 -4.7244 2.51475,-0.262498 -4.7244 3.42474,-0.249369 -4.7244 3.39816,0.675171 -4.7244 2.51016,0.656866 -4.7244 2.54802,-0.216249 -4.7244 3.41006,-0.228833 -4.7244 3.43699,0.686581 -4.7244 2.54412,0.666624 -4.7244 2.58183,-0.182566 -4.7244 3.42025,-0.1946 -4.7244 3.44755,0.696284 -4.7244 2.5786,0.674642 -4.7244 2.6161,-0.148406 -4.7244 3.4287,-0.159882 -4.7244 3.45639,0.704256 -4.7244 2.61353,0.680901 -4.7244 2.65073,-0.124767 -4.7244 3.46349,-0.113858 -4.7244 3.4354,0.710477 -4.7244 2.64881,0.685382 -4.7244 2.68563,-0.079014 -4.7244 3.44033,-0.0893413 -4.7244 3.46883,0.714932 -4.7244 2.68436,0.688076 -4.7244 2.72072,-0.0536938 -4.7244 3.47239,-0.0439636 -4.7244 3.44347,0.717609 -4.7244 2.72009,0.688975 -4.7244 2.7559,-0.0179128 -4.7244 3.47418,-0.00879846 -4.7244 3.44482,0.718503 -4.7244 2.7559,0.0179128 -4.7244 3.47418,0.0263896 -4.7244 3.44437,0.717609 -4.7244 2.79171,0.688076 -4.7244 2.79108,0.0536938 -4.7244 3.47239,0.0615089 -4.7244 3.44212,0.714932 -4.7244 2.82744,0.685382 -4.7244 2.82617,0.0893413 -4.7244 3.46883,0.0964676 -4.7244 3.43809,0.710477 -4.7244 2.86299,0.680901 -4.7244 2.86107,0.124767 -4.7244 3.46349,0.131175 -4.7244 3.43227,0.704256 -4.7244 2.89827,0.674642 -4.7244 2.8957,0.159882 -4.7244 3.45639,0.16554 -4.7244 3.42469,0.696284 -4.7244 2.9332,0.666624 -4.7244 2.92997,0.199473 -4.7244 3.41537,0.1946 -4.7244 3.44755,0.686581 -4.7244 2.96768,0.656866 -4.7244 2.96378,0.232885 -4.7244 3.40432,0.228833 -4.7244 3.43699,0.675171 -4.7244 3.00164,0.645395 -4.7244 2.99705,0.26569 -4.7244 3.39158,0.262498 -4.7244 3.42474,0.662083 -4.7244 3.03499,0.63224 -4.7244 3.02969,0.297802 -4.7244 3.37719,0.295511 -4.7244 3.41082,0.647348 -4.7244 3.06765,0.617436 -4.7244 3.06161,0.329137 -4.7244 3.36117,0.327788 -4.7244 3.39528,0.631004 -4.7244 3.09953,0.60102 -4.7244 3.09274,0.359613 -4.7244 3.34358,0.359251 -4.7244 3.37814,0.613092 -4.7244 3.13055,0.583037 -4.7244 3.12299,0.389151 -4.7244 3.32445,0.389821 -4.7244 3.35946,0.593655 -4.7244 3.16065,0.563533 -4.7244 3.15228,0.419421 -4.7244 3.33928,0.417674 -4.7244 3.30384,0.572742 -4.7244 3.18973,0.542558 -4.7244 3.18054,0.447979 -4.7244 3.31765,0.445107 -4.7244 3.2818,0.550405 -4.7244 3.21774,0.520168 -4.7244 3.20769,0.475423 -4.7244 3.29462,0.471379 -4.7244 3.25838,0.5267 -4.7244 3.24461,0.496421 -4.7244 3.23366,0.501685 -4.7244 3.27025]
}}
appearance Appearance{material Material{diffuseColor 0.8 0.8 0.8
transparency 0}}}
Shape { geometry IndexedFaceSet 
{ creaseAngle 1.00 coordIndex [0,1,2,-1,2,1,3,-1,3,4,5,-1,1,4,3,-1,5,6,7,-1,4,6,5,-1,7,8,9,-1,6,8,7,-1,9,10,11,-1,8,10,9,-1,11,12,13,-1,10,12,11,-1,13,14,15,-1,12,14,13,-1,15,16,17,-1,14,16,15,-1,17,18,19,-1,16,18,17,-1,19,20,21,-1,18,20,19,-1,21,22,23,-1,23,22,24,-1,20,22,21,-1,22,25,24,-1,25,26,24,-1,24,26,27,-1,26,28,27,-1,27,28,29,-1,28,30,29,-1,29,30,31,-1,30,32,31,-1,31,32,33,-1,33,34,35,-1,32,34,33,-1,35,36,37,-1,37,36,38,-1,34,36,35,-1,36,39,38,-1,38,40,41,-1,39,40,38,-1,41,42,43,-1,40,42,41,-1,43,44,45,-1,42,44,43,-1,45,46,47,-1,47,46,48,-1,44,46,45,-1,46,49,48,-1,48,50,51,-1,49,50,48,-1,51,52,53,-1,50,52,51,-1,53,54,55,-1,52,54,53,-1,55,56,57,-1,54,56,55,-1,57,58,59,-1,56,58,57,-1,59,60,61,-1,58,60,59,-1,61,62,63,-1,63,62,64,-1,60,62,61,-1,62,65,64,-1,64,66,67,-1,65,66,64,-1,67,68,69,-1,66,68,67,-1,69,70,71,-1,71,70,72,-1,68,70,69,-1,70,73,72,-1,72,74,75,-1,73,74,72,-1,75,76,77,-1,74,76,75,-1,76,78,77,-1,77,78,79,-1,78,80,79,-1,79,80,81,-1,80,82,81,-1,81,82,83,-1,82,84,83,-1,83,84,85,-1,85,84,86,-1,84,87,86,-1,87,88,86,-1,86,88,89,-1,88,90,89,-1,89,90,91,-1,90,92,91,-1,91,92,93,-1,93,92,94,-1,92,95,94,-1,95,96,94,-1,94,96,97,-1,96,98,97,-1,97,98,99,-1,98,100,99,-1,99,100,101,-1,101,102,103,-1,100,102,101,-1,103,104,105,-1,102,104,103,-1,105,106,107,-1,104,106,105,-1,107,108,109,-1,106,108,107,-1,109,110,111,-1,108,110,109,-1,111,112,113,-1,110,112,111,-1,113,114,115,-1,112,114,113,-1,115,116,117,-1,117,116,118,-1,114,116,115,-1,116,119,118,-1,118,120,121,-1,119,120,118,-1,121,122,123,-1,120,122,121,-1,123,124,125,-1,122,124,123,-1,124,126,125,-1,125,126,127,-1,126,128,127,-1,127,128,129,-1,129,128,130,-1,128,131,130,-1,131,132,130,-1,130,132,133,-1,132,134,133,-1,133,134,135,-1,134,136,135,-1,135,136,137,-1,137,136,138,-1,136,139,138,-1,139,140,138,-1,138,140,141,-1,140,142,141,-1,141,142,143,-1,143,142,144,-1,142,145,144,-1,145,146,144,-1,144,146,147,-1,147,146,148,-1,146,149,148,-1,149,150,148,-1,148,150,151,-1,150,152,151,-1,151,152,153,-1,153,152,154,-1,152,155,154,-1,155,156,154,-1,154,156,157,-1,156,158,157,-1,157,158,159,-1,158,160,159,-1,159,160,161,-1,161,160,162,-1,160,163,162,-1,163,164,162,-1,162,164,165,-1,164,166,165,-1,165,166,167,-1,167,166,168,-1,166,169,168,-1,168,170,171,-1,169,170,168,-1,171,172,173,-1,170,172,171,-1,173,174,175,-1,172,174,173,-1,175,176,177,-1,174,176,175,-1,176,178,177,-1,177,178,179,-1,178,180,179,-1,179,180,181,-1,181,180,182,-1,180,183,182,-1,183,184,182,-1,182,184,185,-1,184,186,185,-1,185,186,187,-1,186,188,187,-1,187,188,189,-1,188,190,189,-1,189,190,191,-1,190,192,191,-1,191,192,193,-1,192,194,193,-1,193,194,195,-1,194,196,195,-1,195,196,197,-1,196,198,197,-1,197,198,199,-1,199,200,201,-1,198,200,199,-1,201,202,203,-1,200,202,201,-1,203,204,205,-1,202,204,203,-1,205,206,207,-1,204,206,205,-1,207,208,209,-1,206,208,207,-1,209,210,211,-1,208,210,209,-1,211,212,213,-1,210,212,211,-1,213,214,215,-1,215,214,216,-1,212,214,213,-1,214,217,216,-1,216,218,219,-1,217,218,216,-1,219,220,221,-1,221,220,222,-1,218,220,219,-1,220,223,222,-1,222,224,225,-1,223,224,222,-1,225,226,227,-1,224,226,225,-1,226,228,227,-1,227,228,229,-1,228,230,229,-1,229,230,231,-1,230,232,231,-1,231,232,233,-1,232,234,233,-1,233,234,235,-1,235,236,237,-1,234,236,235,-1,237,238,239,-1,236,238,237,-1,239,240,241,-1,238,240,239,-1,241,242,243,-1,240,242,241,-1,243,244,245,-1,245,244,2,-1,242,244,243,-1,244,0,2,-1]
coord Coordinate { point [0.688975 -4.7244 2.7559,0.688076 -4.7244 2.79108,0.688975 -4.3307 2.7559,0.688076 -4.3307 2.79108,0.685382 -4.7244 2.82617,0.685382 -4.3307 2.82617,0.680901 -4.7244 2.86107,0.680901 -4.3307 2.86107,0.674642 -4.7244 2.8957,0.674642 -4.3307 2.8957,0.666624 -4.7244 2.92997,0.666624 -4.3307 2.92997,0.656866 -4.7244 2.96378,0.656866 -4.3307 2.96378,0.645395 -4.7244 2.99705,0.645395 -4.3307 2.99705,0.63224 -4.7244 3.02969,0.63224 -4.3307 3.02969,0.617436 -4.7244 3.06161,0.617436 -4.3307 3.06161,0.60102 -4.7244 3.09274,0.60102 -4.3307 3.09274,0.583037 -4.7244 3.12299,0.583037 -4.3307 3.12299,0.563533 -4.3307 3.15228,0.563533 -4.7244 3.15228,0.542558 -4.7244 3.18054,0.542558 -4.3307 3.18054,0.520168 -4.7244 3.20769,0.520168 -4.3307 3.20769,0.496421 -4.7244 3.23366,0.496421 -4.3307 3.23366,0.471379 -4.7244 3.25838,0.471379 -4.3307 3.25838,0.445107 -4.7244 3.2818,0.445107 -4.3307 3.2818,0.417674 -4.7244 3.30384,0.417674 -4.3307 3.30384,0.389151 -4.3307 3.32445,0.389151 -4.7244 3.32445,0.359613 -4.7244 3.34358,0.359613 -4.3307 3.34358,0.329137 -4.7244 3.36117,0.329137 -4.3307 3.36117,0.297802 -4.7244 3.37719,0.297802 -4.3307 3.37719,0.26569 -4.7244 3.39158,0.26569 -4.3307 3.39158,0.232885 -4.3307 3.40432,0.232885 -4.7244 3.40432,0.199473 -4.7244 3.41537,0.199473 -4.3307 3.41537,0.16554 -4.7244 3.42469,0.16554 -4.3307 3.42469,0.131175 -4.7244 3.43227,0.131175 -4.3307 3.43227,0.0964676 -4.7244 3.43809,0.0964676 -4.3307 3.43809,0.0615089 -4.7244 3.44212,0.0615089 -4.3307 3.44212,0.0263896 -4.7244 3.44437,0.0263896 -4.3307 3.44437,-0.00879846 -4.7244 3.44482,-0.00879846 -4.3307 3.44482,-0.0439636 -4.3307 3.44347,-0.0439636 -4.7244 3.44347,-0.079014 -4.7244 3.44033,-0.079014 -4.3307 3.44033,-0.113858 -4.7244 3.4354,-0.113858 -4.3307 3.4354,-0.148406 -4.7244 3.4287,-0.148406 -4.3307 3.4287,-0.182566 -4.3307 3.42025,-0.182566 -4.7244 3.42025,-0.216249 -4.7244 3.41006,-0.216249 -4.3307 3.41006,-0.249369 -4.7244 3.39816,-0.249369 -4.3307 3.39816,-0.281838 -4.7244 3.38459,-0.281838 -4.3307 3.38459,-0.313572 -4.7244 3.36938,-0.313572 -4.3307 3.36938,-0.344487 -4.7244 3.35257,-0.344487 -4.3307 3.35257,-0.374504 -4.7244 3.3342,-0.374504 -4.3307 3.3342,-0.403544 -4.3307 3.31433,-0.403544 -4.7244 3.31433,-0.431531 -4.7244 3.29299,-0.431531 -4.3307 3.29299,-0.458393 -4.7244 3.27026,-0.458393 -4.3307 3.27026,-0.484058 -4.7244 3.24618,-0.484058 -4.3307 3.24618,-0.508461 -4.3307 3.22082,-0.508461 -4.7244 3.22082,-0.531537 -4.7244 3.19426,-0.531537 -4.3307 3.19426,-0.553226 -4.7244 3.16654,-0.553226 -4.3307 3.16654,-0.573472 -4.7244 3.13776,-0.573472 -4.3307 3.13776,-0.592222 -4.7244 3.10798,-0.592222 -4.3307 3.10798,-0.609427 -4.7244 3.07728,-0.609427 -4.3307 3.07728,-0.625042 -4.7244 3.04574,-0.625042 -4.3307 3.04574,-0.639026 -4.7244 3.01345,-0.639026 -4.3307 3.01345,-0.651343 -4.7244 2.98049,-0.651343 -4.3307 2.98049,-0.661961 -4.7244 2.94693,-0.661961 -4.3307 2.94693,-0.670852 -4.7244 2.91289,-0.670852 -4.3307 2.91289,-0.677992 -4.7244 2.87843,-0.677992 -4.3307 2.87843,-0.683364 -4.3307 2.84365,-0.683364 -4.7244 2.84365,-0.686953 -4.7244 2.80864,-0.686953 -4.3307 2.80864,-0.68875 -4.7244 2.7735,-0.68875 -4.3307 2.7735,-0.68875 -4.7244 2.7383,-0.68875 -4.3307 2.7383,-0.686953 -4.7244 2.70316,-0.686953 -4.3307 2.70316,-0.683364 -4.7244 2.66815,-0.683364 -4.3307 2.66815,-0.677992 -4.3307 2.63337,-0.677992 -4.7244 2.63337,-0.670852 -4.7244 2.59891,-0.670852 -4.3307 2.59891,-0.661961 -4.7244 2.56487,-0.661961 -4.3307 2.56487,-0.651343 -4.7244 2.53131,-0.651343 -4.3307 2.53131,-0.639026 -4.3307 2.49835,-0.639026 -4.7244 2.49835,-0.625042 -4.7244 2.46606,-0.625042 -4.3307 2.46606,-0.609427 -4.7244 2.43452,-0.609427 -4.3307 2.43452,-0.592222 -4.3307 2.40382,-0.592222 -4.7244 2.40382,-0.573472 -4.7244 2.37404,-0.573472 -4.3307 2.37404,-0.553226 -4.3307 2.34526,-0.553226 -4.7244 2.34526,-0.531537 -4.7244 2.31754,-0.531537 -4.3307 2.31754,-0.508461 -4.7244 2.29098,-0.508461 -4.3307 2.29098,-0.484058 -4.3307 2.26562,-0.484058 -4.7244 2.26562,-0.458393 -4.7244 2.24154,-0.458393 -4.3307 2.24154,-0.431531 -4.7244 2.21881,-0.431531 -4.3307 2.21881,-0.403544 -4.7244 2.19747,-0.403544 -4.3307 2.19747,-0.374504 -4.3307 2.1776,-0.374504 -4.7244 2.1776,-0.344487 -4.7244 2.15923,-0.344487 -4.3307 2.15923,-0.313572 -4.7244 2.14242,-0.313572 -4.3307 2.14242,-0.281838 -4.3307 2.12721,-0.281838 -4.7244 2.12721,-0.249369 -4.7244 2.11364,-0.249369 -4.3307 2.11364,-0.216249 -4.7244 2.10174,-0.216249 -4.3307 2.10174,-0.182566 -4.7244 2.09155,-0.182566 -4.3307 2.09155,-0.148406 -4.7244 2.0831,-0.148406 -4.3307 2.0831,-0.113858 -4.7244 2.0764,-0.113858 -4.3307 2.0764,-0.079014 -4.7244 2.07147,-0.079014 -4.3307 2.07147,-0.0439636 -4.3307 2.06833,-0.0439636 -4.7244 2.06833,-0.00879846 -4.7244 2.06698,-0.00879846 -4.3307 2.06698,0.0263896 -4.7244 2.06743,0.0263896 -4.3307 2.06743,0.0615089 -4.7244 2.06968,0.0615089 -4.3307 2.06968,0.0964676 -4.7244 2.07371,0.0964676 -4.3307 2.07371,0.131175 -4.7244 2.07953,0.131175 -4.3307 2.07953,0.16554 -4.7244 2.08711,0.16554 -4.3307 2.08711,0.199473 -4.7244 2.09643,0.199473 -4.3307 2.09643,0.232885 -4.7244 2.10748,0.232885 -4.3307 2.10748,0.26569 -4.7244 2.12022,0.26569 -4.3307 2.12022,0.297802 -4.7244 2.13461,0.297802 -4.3307 2.13461,0.329137 -4.7244 2.15063,0.329137 -4.3307 2.15063,0.359613 -4.7244 2.16822,0.359613 -4.3307 2.16822,0.389151 -4.7244 2.18735,0.389151 -4.3307 2.18735,0.417674 -4.7244 2.20796,0.417674 -4.3307 2.20796,0.445107 -4.7244 2.23,0.445107 -4.3307 2.23,0.471379 -4.7244 2.25342,0.471379 -4.3307 2.25342,0.496421 -4.3307 2.27814,0.496421 -4.7244 2.27814,0.520168 -4.7244 2.30411,0.520168 -4.3307 2.30411,0.542558 -4.7244 2.33126,0.542558 -4.3307 2.33126,0.563533 -4.3307 2.35952,0.563533 -4.7244 2.35952,0.583037 -4.7244 2.38881,0.583037 -4.3307 2.38881,0.60102 -4.7244 2.41906,0.60102 -4.3307 2.41906,0.617436 -4.7244 2.45019,0.617436 -4.3307 2.45019,0.63224 -4.7244 2.48211,0.63224 -4.3307 2.48211,0.645395 -4.7244 2.51475,0.645395 -4.3307 2.51475,0.656866 -4.7244 2.54802,0.656866 -4.3307 2.54802,0.666624 -4.7244 2.58183,0.666624 -4.3307 2.58183,0.674642 -4.7244 2.6161,0.674642 -4.3307 2.6161,0.680901 -4.7244 2.65073,0.680901 -4.3307 2.65073,0.685382 -4.7244 2.68563,0.685382 -4.3307 2.68563,0.688076 -4.7244 2.72072,0.688076 -4.3307 2.72072]
}}
appearance Appearance{material Material{diffuseColor 0.8 0.8 0.8
transparency 0}}}
Shape { geometry IndexedFaceSet 
{ creaseAngle 1.00 coordIndex [0,1,2,-1,3,1,0,-1,4,5,6,-1,7,8,9,-1,10,8,7,-1,8,11,12,-1,13,14,5,-1,15,14,13,-1,11,16,17,-1,1,18,2,-1,14,18,5,-1,5,18,6,-1,2,18,19,-1,20,18,1,-1,6,18,20,-1,21,18,14,-1,22,18,21,-1,23,18,22,-1,24,18,23,-1,25,26,27,-1,28,29,30,-1,26,29,28,-1,31,32,18,-1,33,32,31,-1,34,32,33,-1,35,32,34,-1,36,37,38,-1,29,37,36,-1,29,39,37,-1,40,41,42,-1,43,41,32,-1,42,41,43,-1,39,44,45,-1,46,47,48,-1,49,50,51,-1,44,50,49,-1,39,52,44,-1,44,52,50,-1,48,53,41,-1,54,53,47,-1,47,53,48,-1,55,56,53,-1,57,56,55,-1,53,56,41,-1,41,56,32,-1,32,56,18,-1,18,56,19,-1,58,56,59,-1,19,56,58,-1,60,61,62,-1,39,63,52,-1,29,63,39,-1,60,63,61,-1,64,63,60,-1,52,63,64,-1,65,66,67,-1,63,66,65,-1,68,69,70,-1,29,71,63,-1,66,71,72,-1,63,71,66,-1,73,71,25,-1,16,71,73,-1,25,71,26,-1,26,71,29,-1,74,75,69,-1,76,77,56,-1,78,77,76,-1,70,77,78,-1,69,77,70,-1,75,77,69,-1,16,79,71,-1,71,79,80,-1,10,79,8,-1,8,79,11,-1,11,79,16,-1,81,79,10,-1,82,79,81,-1,83,79,82,-1,84,85,77,-1,86,85,84,-1,87,88,89,-1,79,88,87,-1,79,90,88,-1,91,92,85,-1,85,92,77,-1,90,93,94,-1,95,96,92,-1,79,97,90,-1,90,97,93,-1,93,97,98,-1,99,100,96,-1,96,100,92,-1,97,101,102,-1,97,103,101,-1,104,105,106,-1,97,107,103,-1,100,108,92,-1,106,108,100,-1,92,108,77,-1,105,108,106,-1,97,109,107,-1,110,111,112,-1,109,113,110,-1,97,113,109,-1,110,113,111,-1,114,115,108,-1,116,115,114,-1,117,115,116,-1,118,115,117,-1,113,119,120,-1,79,119,97,-1,108,119,77,-1,97,119,113,-1,56,119,59,-1,77,119,56,-1,59,119,83,-1,83,119,79,-1,121,122,115,-1,115,122,108,-1,108,122,119,-1]
coord Coordinate { point [-0.431531 -4.3307 2.21881,-0.374504 -4.3307 2.1776,-0.458393 -4.3307 2.24154,-0.403544 -4.3307 2.19747,-0.281838 -4.3307 2.12721,-0.249369 -4.3307 2.11364,-0.313572 -4.3307 2.14242,-0.625042 -4.3307 2.46606,-0.651343 -4.3307 2.53131,-0.639026 -4.3307 2.49835,-0.609427 -4.3307 2.43452,-0.670852 -4.3307 2.59891,-0.661961 -4.3307 2.56487,-0.216249 -4.3307 2.10174,-0.148406 -4.3307 2.0831,-0.182566 -4.3307 2.09155,-0.683364 -4.3307 2.66815,-0.677992 -4.3307 2.63337,0.0263896 -4.3307 2.06743,-0.484058 -4.3307 2.26562,-0.344487 -4.3307 2.15923,-0.113858 -4.3307 2.0764,-0.079014 -4.3307 2.07147,-0.0439636 -4.3307 2.06833,-0.00879846 -4.3307 2.06698,-0.68875 -4.3307 2.7383,-0.686953 -4.3307 2.80864,-0.68875 -4.3307 2.7735,-0.683364 -4.3307 2.84365,-0.670852 -4.3307 2.91289,-0.677992 -4.3307 2.87843,0.0615089 -4.3307 2.06968,0.199473 -4.3307 2.09643,0.0964676 -4.3307 2.07371,0.131175 -4.3307 2.07953,0.16554 -4.3307 2.08711,-0.661961 -4.3307 2.94693,-0.639026 -4.3307 3.01345,-0.651343 -4.3307 2.98049,-0.625042 -4.3307 3.04574,0.297802 -4.3307 2.13461,0.329137 -4.3307 2.15063,0.26569 -4.3307 2.12022,0.232885 -4.3307 2.10748,-0.592222 -4.3307 3.10798,-0.609427 -4.3307 3.07728,0.389151 -4.3307 2.18735,0.417674 -4.3307 2.20796,0.359613 -4.3307 2.16822,-0.573472 -4.3307 3.13776,-0.531537 -4.3307 3.19426,-0.553226 -4.3307 3.16654,-0.508461 -4.3307 3.22082,0.471379 -4.3307 2.25342,0.445107 -4.3307 2.23,0.496421 -4.3307 2.27814,0.542558 -4.3307 2.33126,0.520168 -4.3307 2.30411,-0.508461 -4.3307 2.29098,-0.531537 -4.3307 2.31754,-0.458393 -4.3307 3.27026,-0.403544 -4.3307 3.31433,-0.431531 -4.3307 3.29299,-0.374504 -4.3307 3.3342,-0.484058 -4.3307 3.24618,-0.344487 -4.3307 3.35257,-0.281838 -4.3307 3.38459,-0.313572 -4.3307 3.36938,0.617436 -4.3307 2.45019,0.63224 -4.3307 2.48211,0.60102 -4.3307 2.41906,-0.216249 -4.3307 3.41006,-0.249369 -4.3307 3.39816,-0.686953 -4.3307 2.70316,0.645395 -4.3307 2.51475,0.656866 -4.3307 2.54802,0.563533 -4.3307 2.35952,0.666624 -4.3307 2.58183,0.583037 -4.3307 2.38881,-0.148406 -4.3307 3.4287,-0.182566 -4.3307 3.42025,-0.592222 -4.3307 2.40382,-0.573472 -4.3307 2.37404,-0.553226 -4.3307 2.34526,0.674642 -4.3307 2.6161,0.685382 -4.3307 2.68563,0.680901 -4.3307 2.65073,-0.113858 -4.3307 3.4354,-0.0439636 -4.3307 3.44347,-0.079014 -4.3307 3.44033,-0.00879846 -4.3307 3.44482,0.688076 -4.3307 2.72072,0.688975 -4.3307 2.7559,0.0615089 -4.3307 3.44212,0.0263896 -4.3307 3.44437,0.688076 -4.3307 2.79108,0.685382 -4.3307 2.82617,0.131175 -4.3307 3.43227,0.0964676 -4.3307 3.43809,0.680901 -4.3307 2.86107,0.674642 -4.3307 2.8957,0.199473 -4.3307 3.41537,0.16554 -4.3307 3.42469,0.232885 -4.3307 3.40432,0.656866 -4.3307 2.96378,0.645395 -4.3307 2.99705,0.666624 -4.3307 2.92997,0.26569 -4.3307 3.39158,0.63224 -4.3307 3.02969,0.297802 -4.3307 3.37719,0.329137 -4.3307 3.36117,0.389151 -4.3307 3.32445,0.359613 -4.3307 3.34358,0.417674 -4.3307 3.30384,0.617436 -4.3307 3.06161,0.542558 -4.3307 3.18054,0.60102 -4.3307 3.09274,0.583037 -4.3307 3.12299,0.563533 -4.3307 3.15228,0.471379 -4.3307 3.25838,0.445107 -4.3307 3.2818,0.520168 -4.3307 3.20769,0.496421 -4.3307 3.23366]
}}
appearance Appearance{material Material{diffuseColor 0.8 0.8 0.8
transparency 0}}}
